Aujournuit-Regular Condensed.ufo
<glyph name="exclam" format="2">
  <advance width="143"/>
  <unicode hex="0021"/>
  <outline>
    <contour>
      <point x="32" y="657" type="curve" smooth="yes"/>
      <point x="32" y="579"/>
      <point x="58" y="385"/>
      <point x="58" y="234" type="curve" smooth="yes"/>
      <point x="58" y="227"/>
      <point x="56" y="215"/>
      <point x="66" y="215" type="curve" smooth="yes"/>
      <point x="76" y="215"/>
      <point x="74" y="226"/>
      <point x="74" y="234" type="curve" smooth="yes"/>
      <point x="74" y="385"/>
      <point x="100" y="581"/>
      <point x="100" y="661" type="curve" smooth="yes"/>
      <point x="100" y="694"/>
      <point x="91" y="710"/>
      <point x="65" y="710" type="curve" smooth="yes"/>
      <point x="41" y="710"/>
      <point x="32" y="692"/>
    </contour>
    <component base="period" xOffset="3"/>
  </outline>
</glyph>
<glyph name="numbersign" format="2">
  <advance width="606"/>
  <unicode hex="0023"/>
  <outline>
    <contour>
      <point x="92" y="-10" type="curve" smooth="yes"/>
      <point x="96" y="-10"/>
      <point x="97" y="-6"/>
      <point x="112" y="6" type="curve" smooth="yes"/>
      <point x="122" y="14"/>
      <point x="121" y="20"/>
      <point x="127" y="36" type="curve" smooth="yes"/>
      <point x="187" y="206" type="line" smooth="yes"/>
      <point x="190" y="213"/>
      <point x="194" y="216"/>
      <point x="201" y="216" type="curve" smooth="yes"/>
      <point x="314" y="216" type="line" smooth="yes"/>
      <point x="322" y="216"/>
      <point x="327" y="211"/>
      <point x="324" y="202" type="curve" smooth="yes"/>
      <point x="250" y="0" type="line" smooth="yes"/>
      <point x="247" y="-7"/>
      <point x="248" y="-10"/>
      <point x="252" y="-10" type="curve" smooth="yes"/>
      <point x="256" y="-10"/>
      <point x="257" y="-6"/>
      <point x="272" y="6" type="curve" smooth="yes"/>
      <point x="282" y="14"/>
      <point x="281" y="20"/>
      <point x="287" y="36" type="curve" smooth="yes"/>
      <point x="347" y="206" type="line" smooth="yes"/>
      <point x="350" y="213"/>
      <point x="354" y="216"/>
      <point x="361" y="216" type="curve" smooth="yes"/>
      <point x="459" y="216" type="line" smooth="yes"/>
      <point x="468" y="216"/>
      <point x="473" y="217"/>
      <point x="484" y="224" type="curve" smooth="yes"/>
      <point x="491" y="228"/>
      <point x="496" y="230"/>
      <point x="496" y="233" type="curve" smooth="yes"/>
      <point x="496" y="235"/>
      <point x="494" y="235"/>
      <point x="490" y="235" type="curve" smooth="yes"/>
      <point x="373" y="235" type="line" smooth="yes"/>
      <point x="365" y="235"/>
      <point x="360" y="240"/>
      <point x="363" y="249" type="curve" smooth="yes"/>
      <point x="433" y="445" type="line" smooth="yes"/>
      <point x="436" y="452"/>
      <point x="440" y="455"/>
      <point x="447" y="455" type="curve" smooth="yes"/>
      <point x="539" y="455" type="line" smooth="yes"/>
      <point x="548" y="455"/>
      <point x="553" y="456"/>
      <point x="564" y="463" type="curve" smooth="yes"/>
      <point x="571" y="467"/>
      <point x="576" y="469"/>
      <point x="576" y="472" type="curve" smooth="yes"/>
      <point x="576" y="474"/>
      <point x="574" y="474"/>
      <point x="570" y="474" type="curve" smooth="yes"/>
      <point x="459" y="474" type="line" smooth="yes"/>
      <point x="451" y="474"/>
      <point x="446" y="479"/>
      <point x="449" y="488" type="curve" smooth="yes"/>
      <point x="527" y="700" type="line" smooth="yes"/>
      <point x="530" y="707"/>
      <point x="529" y="710"/>
      <point x="525" y="710" type="curve" smooth="yes"/>
      <point x="521" y="710"/>
      <point x="520" y="706"/>
      <point x="505" y="694" type="curve" smooth="yes"/>
      <point x="495" y="686"/>
      <point x="496" y="680"/>
      <point x="490" y="664" type="curve" smooth="yes"/>
      <point x="426" y="484" type="line" smooth="yes"/>
      <point x="424" y="478"/>
      <point x="420" y="474"/>
      <point x="413" y="474" type="curve" smooth="yes"/>
      <point x="299" y="474" type="line" smooth="yes"/>
      <point x="291" y="474"/>
      <point x="286" y="479"/>
      <point x="289" y="488" type="curve" smooth="yes"/>
      <point x="367" y="700" type="line" smooth="yes"/>
      <point x="370" y="707"/>
      <point x="369" y="710"/>
      <point x="365" y="710" type="curve" smooth="yes"/>
      <point x="361" y="710"/>
      <point x="360" y="706"/>
      <point x="345" y="694" type="curve" smooth="yes"/>
      <point x="335" y="686"/>
      <point x="336" y="680"/>
      <point x="330" y="664" type="curve" smooth="yes"/>
      <point x="266" y="484" type="line" smooth="yes"/>
      <point x="264" y="478"/>
      <point x="260" y="474"/>
      <point x="253" y="474" type="curve" smooth="yes"/>
      <point x="147" y="474" type="line" smooth="yes"/>
      <point x="138" y="474"/>
      <point x="133" y="473"/>
      <point x="122" y="466" type="curve" smooth="yes"/>
      <point x="115" y="462"/>
      <point x="110" y="460"/>
      <point x="110" y="457" type="curve" smooth="yes"/>
      <point x="110" y="455"/>
      <point x="112" y="455"/>
      <point x="116" y="455" type="curve" smooth="yes"/>
      <point x="241" y="455" type="line" smooth="yes"/>
      <point x="250" y="455"/>
      <point x="254" y="450"/>
      <point x="251" y="441" type="curve" smooth="yes"/>
      <point x="180" y="245" type="line"/>
      <point x="177" y="238"/>
      <point x="173" y="235"/>
      <point x="166" y="235" type="curve" smooth="yes"/>
      <point x="67" y="235" type="line" smooth="yes"/>
      <point x="58" y="235"/>
      <point x="53" y="234"/>
      <point x="42" y="227" type="curve" smooth="yes"/>
      <point x="35" y="223"/>
      <point x="30" y="221"/>
      <point x="30" y="218" type="curve" smooth="yes"/>
      <point x="30" y="216"/>
      <point x="32" y="216"/>
      <point x="36" y="216" type="curve" smooth="yes"/>
      <point x="154" y="216" type="line" smooth="yes"/>
      <point x="162" y="216"/>
      <point x="167" y="211"/>
      <point x="164" y="202" type="curve" smooth="yes"/>
      <point x="90" y="0" type="line" smooth="yes"/>
      <point x="87" y="-7"/>
      <point x="88" y="-10"/>
    </contour>
    <contour>
      <point x="326" y="235" type="curve" smooth="yes"/>
      <point x="213" y="235" type="line"/>
      <point x="205" y="235"/>
      <point x="200" y="240"/>
      <point x="203" y="249" type="curve" smooth="yes"/>
      <point x="273" y="445" type="line" smooth="yes"/>
      <point x="276" y="452"/>
      <point x="280" y="455"/>
      <point x="287" y="455" type="curve" smooth="yes"/>
      <point x="401" y="455" type="line" smooth="yes"/>
      <point x="410" y="455"/>
      <point x="414" y="450"/>
      <point x="411" y="441" type="curve" smooth="yes"/>
      <point x="340" y="245" type="line" smooth="yes"/>
      <point x="337" y="238"/>
      <point x="333" y="235"/>
    </contour>
  </outline>
</glyph>
<glyph name="dollar" format="2">
  <advance width="300"/>
  <unicode hex="0024"/>
  <outline>
    <contour>
      <point x="144" y="-88" type="curve" smooth="yes"/>
      <point x="151" y="-88"/>
      <point x="152" y="-85"/>
      <point x="152" y="-69" type="curve" smooth="yes"/>
      <point x="152" y="-52"/>
      <point x="152" y="-36"/>
      <point x="152" y="-20" type="curve" smooth="yes"/>
      <point x="152" y="-13"/>
      <point x="156" y="-10"/>
      <point x="162" y="-10" type="curve" smooth="yes"/>
      <point x="262" y="-2"/>
      <point x="270" y="114"/>
      <point x="270" y="153" type="curve" smooth="yes"/>
      <point x="270" y="236"/>
      <point x="239" y="299"/>
      <point x="163" y="393" type="curve" smooth="yes"/>
      <point x="160" y="398"/>
      <point x="159" y="401"/>
      <point x="159" y="406" type="curve" smooth="yes"/>
      <point x="159" y="498"/>
      <point x="159" y="591"/>
      <point x="160" y="683" type="curve" smooth="yes"/>
      <point x="160" y="692"/>
      <point x="163" y="694"/>
      <point x="171" y="692" type="curve" smooth="yes"/>
      <point x="212" y="675"/>
      <point x="231" y="620"/>
      <point x="230" y="526" type="curve" smooth="yes"/>
      <point x="230" y="506"/>
      <point x="235" y="501"/>
      <point x="241" y="501" type="curve" smooth="yes"/>
      <point x="246" y="501"/>
      <point x="248" y="505"/>
      <point x="248" y="511" type="curve" smooth="yes"/>
      <point x="248" y="523"/>
      <point x="239" y="552"/>
      <point x="239" y="615" type="curve" smooth="yes"/>
      <point x="239" y="662"/>
      <point x="245" y="686"/>
      <point x="246" y="695" type="curve" smooth="yes"/>
      <point x="248" y="710"/>
      <point x="241" y="710"/>
      <point x="239" y="710" type="curve" smooth="yes"/>
      <point x="229" y="710"/>
      <point x="229" y="693"/>
      <point x="214" y="693" type="curve" smooth="yes"/>
      <point x="204" y="693"/>
      <point x="188" y="702"/>
      <point x="169" y="707" type="curve" smooth="yes"/>
      <point x="163" y="709"/>
      <point x="160" y="712"/>
      <point x="160" y="718" type="curve" smooth="yes"/>
      <point x="160" y="752" type="line" smooth="yes"/>
      <point x="160" y="768"/>
      <point x="159" y="771"/>
      <point x="152" y="771" type="curve" smooth="yes"/>
      <point x="145" y="771"/>
      <point x="144" y="768"/>
      <point x="144" y="752" type="curve" smooth="yes"/>
      <point x="144" y="720" type="line" smooth="yes"/>
      <point x="144" y="714"/>
      <point x="141" y="710"/>
      <point x="134" y="710" type="curve" smooth="yes"/>
      <point x="70" y="704"/>
      <point x="30" y="642"/>
      <point x="30" y="547" type="curve" smooth="yes"/>
      <point x="30" y="474"/>
      <point x="56" y="406"/>
      <point x="130" y="316" type="curve" smooth="yes"/>
      <point x="135" y="309"/>
      <point x="137" y="305"/>
      <point x="137" y="300" type="curve" smooth="yes"/>
      <point x="138" y="206"/>
      <point x="137" y="112"/>
      <point x="137" y="17" type="curve" smooth="yes"/>
      <point x="137" y="8"/>
      <point x="134" y="6"/>
      <point x="126" y="8" type="curve" smooth="yes"/>
      <point x="77" y="23"/>
      <point x="49" y="81"/>
      <point x="47" y="173" type="curve" smooth="yes"/>
      <point x="47" y="196"/>
      <point x="45" y="201"/>
      <point x="39" y="201" type="curve" smooth="yes"/>
      <point x="33" y="201"/>
      <point x="31" y="195"/>
      <point x="31" y="189" type="curve" smooth="yes"/>
      <point x="31" y="176"/>
      <point x="39" y="132"/>
      <point x="39" y="80" type="curve" smooth="yes"/>
      <point x="39" y="28"/>
      <point x="31" y="11"/>
      <point x="31" y="1" type="curve" smooth="yes"/>
      <point x="31" y="-6"/>
      <point x="34" y="-10"/>
      <point x="39" y="-10" type="curve" smooth="yes"/>
      <point x="49" y="-10"/>
      <point x="49" y="7"/>
      <point x="64" y="7" type="curve" smooth="yes"/>
      <point x="78" y="7"/>
      <point x="97" y="-4"/>
      <point x="126" y="-8" type="curve" smooth="yes"/>
      <point x="133" y="-9"/>
      <point x="136" y="-12"/>
      <point x="136" y="-18" type="curve" smooth="yes"/>
      <point x="136" y="-69" type="line" smooth="yes"/>
      <point x="136" y="-85"/>
      <point x="137" y="-88"/>
    </contour>
    <contour>
      <point x="161" y="6" type="curve" smooth="yes"/>
      <point x="153" y="5"/>
      <point x="151" y="7"/>
      <point x="151" y="15" type="curve" smooth="yes"/>
      <point x="151" y="100"/>
      <point x="150" y="185"/>
      <point x="151" y="270" type="curve" smooth="yes"/>
      <point x="151" y="286"/>
      <point x="154" y="287"/>
      <point x="164" y="274" type="curve" smooth="yes"/>
      <point x="210" y="213"/>
      <point x="229" y="164"/>
      <point x="229" y="109" type="curve" smooth="yes"/>
      <point x="229" y="48"/>
      <point x="205" y="11"/>
    </contour>
    <contour>
      <point x="132" y="433" type="curve" smooth="yes"/>
      <point x="85" y="495"/>
      <point x="68" y="538"/>
      <point x="68" y="590" type="curve" smooth="yes"/>
      <point x="68" y="611"/>
      <point x="70" y="679"/>
      <point x="122" y="694" type="curve" smooth="yes"/>
      <point x="139" y="699"/>
      <point x="144" y="698"/>
      <point x="144" y="687" type="curve" smooth="yes"/>
      <point x="145" y="604"/>
      <point x="145" y="520"/>
      <point x="145" y="437" type="curve" smooth="yes"/>
      <point x="145" y="421"/>
      <point x="142" y="420"/>
    </contour>
  </outline>
</glyph>
<glyph name="ampersand" format="2">
  <advance width="560"/>
  <unicode hex="0026"/>
  <outline>
    <contour>
      <point x="221" y="-13" type="curve" smooth="yes"/>
      <point x="262" y="-13"/>
      <point x="298" y="-1"/>
      <point x="329" y="22" type="curve" smooth="yes"/>
      <point x="332" y="25"/>
      <point x="336" y="25"/>
      <point x="340" y="22" type="curve" smooth="yes"/>
      <point x="367" y="1"/>
      <point x="395" y="-10"/>
      <point x="424" y="-10" type="curve" smooth="yes"/>
      <point x="473" y="-10"/>
      <point x="509" y="19"/>
      <point x="524" y="71" type="curve" smooth="yes"/>
      <point x="537" y="116"/>
      <point x="528" y="145"/>
      <point x="505" y="145" type="curve" smooth="yes"/>
      <point x="489" y="145"/>
      <point x="480" y="131"/>
      <point x="480" y="107" type="curve" smooth="yes"/>
      <point x="480" y="41"/>
      <point x="460" y="4"/>
      <point x="424" y="4" type="curve" smooth="yes"/>
      <point x="401" y="4"/>
      <point x="379" y="15"/>
      <point x="358" y="38" type="curve" smooth="yes"/>
      <point x="355" y="42"/>
      <point x="355" y="46"/>
      <point x="358" y="49" type="curve" smooth="yes"/>
      <point x="397" y="88"/>
      <point x="425" y="145"/>
      <point x="442" y="212" type="curve" smooth="yes"/>
      <point x="441" y="207"/>
      <point x="454" y="323"/>
      <point x="494" y="327" type="curve" smooth="yes"/>
      <point x="504" y="328"/>
      <point x="520" y="325"/>
      <point x="520" y="336" type="curve" smooth="yes"/>
      <point x="520" y="339"/>
      <point x="520" y="345"/>
      <point x="505" y="343" type="curve" smooth="yes"/>
      <point x="496" y="342"/>
      <point x="472" y="334"/>
      <point x="425" y="334" type="curve" smooth="yes"/>
      <point x="362" y="334"/>
      <point x="333" y="343"/>
      <point x="321" y="343" type="curve" smooth="yes"/>
      <point x="315" y="343"/>
      <point x="311" y="341"/>
      <point x="311" y="336" type="curve" smooth="yes"/>
      <point x="311" y="330"/>
      <point x="316" y="326"/>
      <point x="336" y="326" type="curve" smooth="yes"/>
      <point x="418" y="326"/>
      <point x="446" y="289"/>
      <point x="416" y="180" type="curve" smooth="yes"/>
      <point x="403" y="133"/>
      <point x="384" y="89"/>
      <point x="352" y="59" type="curve" smooth="yes"/>
      <point x="348" y="55"/>
      <point x="344" y="55"/>
      <point x="341" y="60" type="curve" smooth="yes"/>
      <point x="300" y="117"/>
      <point x="264" y="221"/>
      <point x="238" y="363" type="curve" smooth="yes"/>
      <point x="237" y="367"/>
      <point x="239" y="370"/>
      <point x="242" y="373" type="curve" smooth="yes"/>
      <point x="252" y="381"/>
      <point x="262" y="388"/>
      <point x="272" y="396" type="curve" smooth="yes"/>
      <point x="365" y="465"/>
      <point x="409" y="520"/>
      <point x="412" y="590" type="curve" smooth="yes"/>
      <point x="415" y="657"/>
      <point x="367" y="710"/>
      <point x="303" y="710" type="curve" smooth="yes"/>
      <point x="188" y="710"/>
      <point x="135" y="572"/>
      <point x="176" y="360" type="curve" smooth="yes"/>
      <point x="177" y="355"/>
      <point x="175" y="352"/>
      <point x="172" y="349" type="curve" smooth="yes"/>
      <point x="110" y="301"/>
      <point x="40" y="231"/>
      <point x="40" y="145" type="curve" smooth="yes"/>
      <point x="40" y="50"/>
      <point x="106" y="-13"/>
    </contour>
    <contour>
      <point x="100" y="147" type="curve" smooth="yes"/>
      <point x="100" y="209"/>
      <point x="119" y="256"/>
      <point x="173" y="312" type="curve" smooth="yes"/>
      <point x="180" y="319"/>
      <point x="184" y="319"/>
      <point x="186" y="311" type="curve" smooth="yes"/>
      <point x="218" y="195"/>
      <point x="264" y="98"/>
      <point x="315" y="43" type="curve" smooth="yes"/>
      <point x="320" y="38"/>
      <point x="320" y="34"/>
      <point x="313" y="32" type="curve" smooth="yes"/>
      <point x="293" y="22"/>
      <point x="268" y="17"/>
      <point x="238" y="17" type="curve" smooth="yes"/>
      <point x="149" y="17"/>
      <point x="100" y="63"/>
    </contour>
    <contour>
      <point x="231" y="404" type="curve" smooth="yes"/>
      <point x="203" y="590"/>
      <point x="230" y="694"/>
      <point x="303" y="694" type="curve" smooth="yes"/>
      <point x="340" y="694"/>
      <point x="365" y="649"/>
      <point x="365" y="582" type="curve" smooth="yes"/>
      <point x="365" y="498"/>
      <point x="304" y="441"/>
      <point x="242" y="399" type="curve" smooth="yes"/>
      <point x="235" y="393"/>
      <point x="232" y="395"/>
    </contour>
  </outline>
</glyph>
<glyph name="parenleft" format="2">
  <advance width="189"/>
  <unicode hex="0028"/>
  <outline>
    <contour>
      <point x="30" y="282" type="curve" smooth="yes"/>
      <point x="30" y="114"/>
      <point x="87" y="-48"/>
      <point x="177" y="-138" type="curve" smooth="yes"/>
      <point x="184" y="-144"/>
      <point x="186" y="-146"/>
      <point x="190" y="-146" type="curve" smooth="yes"/>
      <point x="192" y="-146"/>
      <point x="194" y="-145"/>
      <point x="194" y="-143" type="curve" smooth="yes"/>
      <point x="194" y="-140"/>
      <point x="192" y="-139"/>
      <point x="185" y="-129" type="curve" smooth="yes"/>
      <point x="125" y="-46"/>
      <point x="91" y="102"/>
      <point x="91" y="282" type="curve" smooth="yes"/>
      <point x="91" y="462"/>
      <point x="125" y="610"/>
      <point x="185" y="693" type="curve" smooth="yes"/>
      <point x="192" y="703"/>
      <point x="194" y="704"/>
      <point x="194" y="707" type="curve" smooth="yes"/>
      <point x="194" y="709"/>
      <point x="192" y="710"/>
      <point x="190" y="710" type="curve" smooth="yes"/>
      <point x="186" y="710"/>
      <point x="184" y="708"/>
      <point x="177" y="702" type="curve" smooth="yes"/>
      <point x="87" y="612"/>
      <point x="30" y="450"/>
    </contour>
  </outline>
</glyph>
<glyph name="parenright" format="2">
  <advance width="184"/>
  <unicode hex="0029"/>
  <outline>
    <contour>
      <point x="154" y="282" type="curve" smooth="yes"/>
      <point x="154" y="450"/>
      <point x="97" y="612"/>
      <point x="7" y="702" type="curve" smooth="yes"/>
      <point x="0" y="708"/>
      <point x="-2" y="710"/>
      <point x="-6" y="710" type="curve" smooth="yes"/>
      <point x="-8" y="710"/>
      <point x="-10" y="709"/>
      <point x="-10" y="707" type="curve" smooth="yes"/>
      <point x="-10" y="704"/>
      <point x="-8" y="703"/>
      <point x="-1" y="693" type="curve" smooth="yes"/>
      <point x="59" y="610"/>
      <point x="93" y="462"/>
      <point x="93" y="282" type="curve" smooth="yes"/>
      <point x="93" y="102"/>
      <point x="59" y="-46"/>
      <point x="-1" y="-129" type="curve" smooth="yes"/>
      <point x="-8" y="-139"/>
      <point x="-10" y="-140"/>
      <point x="-10" y="-143" type="curve" smooth="yes"/>
      <point x="-10" y="-145"/>
      <point x="-8" y="-146"/>
      <point x="-6" y="-146" type="curve" smooth="yes"/>
      <point x="-2" y="-146"/>
      <point x="0" y="-144"/>
      <point x="7" y="-138" type="curve" smooth="yes"/>
      <point x="97" y="-48"/>
      <point x="154" y="114"/>
    </contour>
  </outline>
</glyph>
<glyph name="asterisk" format="2">
  <advance width="314"/>
  <unicode hex="002A"/>
  <outline>
    <contour>
      <point x="179" y="681" type="curve" smooth="yes"/>
      <point x="179" y="699"/>
      <point x="170" y="710"/>
      <point x="157" y="710" type="curve" smooth="yes"/>
      <point x="144" y="710"/>
      <point x="135" y="699"/>
      <point x="135" y="681" type="curve" smooth="yes"/>
      <point x="135" y="653"/>
      <point x="150" y="631"/>
      <point x="150" y="600" type="curve" smooth="yes"/>
      <point x="150" y="594"/>
      <point x="151" y="587"/>
      <point x="144" y="584" type="curve"/>
      <point x="146" y="560" type="line"/>
      <point x="168" y="560" type="line"/>
      <point x="170" y="584" type="line"/>
      <point x="163" y="587"/>
      <point x="164" y="594"/>
      <point x="164" y="600" type="curve" smooth="yes"/>
      <point x="164" y="631"/>
      <point x="179" y="653"/>
    </contour>
    <contour>
      <point x="68" y="643" type="curve" smooth="yes"/>
      <point x="53" y="653"/>
      <point x="39" y="651"/>
      <point x="32" y="640" type="curve" smooth="yes"/>
      <point x="26" y="628"/>
      <point x="30" y="615"/>
      <point x="46" y="606" type="curve" smooth="yes"/>
      <point x="70" y="591"/>
      <point x="96" y="593"/>
      <point x="123" y="577" type="curve" smooth="yes"/>
      <point x="128" y="574"/>
      <point x="135" y="571"/>
      <point x="134" y="563" type="curve"/>
      <point x="155" y="553" type="line"/>
      <point x="167" y="572" type="line"/>
      <point x="147" y="586" type="line"/>
      <point x="141" y="581"/>
      <point x="135" y="586"/>
      <point x="130" y="589" type="curve" smooth="yes"/>
      <point x="104" y="605"/>
      <point x="92" y="629"/>
    </contour>
    <contour>
      <point x="135" y="449" type="curve" smooth="yes"/>
      <point x="135" y="431"/>
      <point x="144" y="420"/>
      <point x="157" y="420" type="curve" smooth="yes"/>
      <point x="170" y="420"/>
      <point x="179" y="431"/>
      <point x="179" y="449" type="curve" smooth="yes"/>
      <point x="179" y="477"/>
      <point x="164" y="499"/>
      <point x="164" y="530" type="curve" smooth="yes"/>
      <point x="164" y="536"/>
      <point x="163" y="543"/>
      <point x="170" y="546" type="curve"/>
      <point x="168" y="570" type="line"/>
      <point x="146" y="570" type="line"/>
      <point x="144" y="546" type="line"/>
      <point x="151" y="543"/>
      <point x="150" y="536"/>
      <point x="150" y="530" type="curve" smooth="yes"/>
      <point x="150" y="499"/>
      <point x="135" y="477"/>
    </contour>
    <contour>
      <point x="246" y="487" type="curve" smooth="yes"/>
      <point x="261" y="477"/>
      <point x="275" y="479"/>
      <point x="282" y="490" type="curve" smooth="yes"/>
      <point x="288" y="502"/>
      <point x="284" y="515"/>
      <point x="268" y="524" type="curve" smooth="yes"/>
      <point x="244" y="539"/>
      <point x="218" y="537"/>
      <point x="191" y="553" type="curve" smooth="yes"/>
      <point x="186" y="556"/>
      <point x="179" y="559"/>
      <point x="180" y="567" type="curve"/>
      <point x="159" y="577" type="line"/>
      <point x="147" y="558" type="line"/>
      <point x="167" y="544" type="line"/>
      <point x="173" y="549"/>
      <point x="179" y="544"/>
      <point x="184" y="541" type="curve" smooth="yes"/>
      <point x="210" y="525"/>
      <point x="222" y="501"/>
    </contour>
    <component base="_astriskside" xScale="0.515" xyScale="-0.8572" yScale="0.515" yxScale="0.8572" xOffset="-348" yOffset="309" identifier="90B72DF8"/>
    <component base="_astriskside" xScale="-0.515" xyScale="0.8572" yScale="-0.515" yxScale="-0.8572" xOffset="662" yOffset="821" identifier="89751D3B"/>
  </outline>
</glyph>
<glyph name="plus" format="2">
  <advance width="581"/>
  <unicode hex="002B"/>
  <outline>
    <contour>
      <point x="99" y="339" type="curve" smooth="yes"/>
      <point x="163" y="341"/>
      <point x="387" y="341"/>
      <point x="451" y="339" type="curve" smooth="yes"/>
      <point x="458" y="339"/>
      <point x="461" y="343"/>
      <point x="462" y="351" type="curve" smooth="yes"/>
      <point x="463" y="362"/>
      <point x="461" y="367"/>
      <point x="453" y="367" type="curve" smooth="yes"/>
      <point x="392" y="365"/>
      <point x="168" y="365"/>
      <point x="104" y="367" type="curve" smooth="yes"/>
      <point x="96" y="367"/>
      <point x="90" y="359"/>
      <point x="90" y="347" type="curve" smooth="yes"/>
      <point x="90" y="342"/>
      <point x="93" y="339"/>
    </contour>
    <contour>
      <point x="261" y="528" type="curve" smooth="yes"/>
      <point x="263" y="464"/>
      <point x="263" y="240"/>
      <point x="261" y="176" type="curve" smooth="yes"/>
      <point x="261" y="169"/>
      <point x="265" y="166"/>
      <point x="273" y="165" type="curve" smooth="yes"/>
      <point x="284" y="164"/>
      <point x="288" y="166"/>
      <point x="288" y="174" type="curve" smooth="yes"/>
      <point x="286" y="235"/>
      <point x="286" y="459"/>
      <point x="288" y="523" type="curve" smooth="yes"/>
      <point x="288" y="531"/>
      <point x="281" y="537"/>
      <point x="269" y="537" type="curve" smooth="yes"/>
      <point x="264" y="537"/>
      <point x="261" y="534"/>
    </contour>
  </outline>
</glyph>
<glyph name="comma" format="2">
  <advance width="147"/>
  <unicode hex="002C"/>
  <outline>
    <contour>
      <point x="75" y="-6" type="curve" smooth="yes"/>
      <point x="87" y="-10"/>
      <point x="90" y="-16"/>
      <point x="87" y="-26" type="curve" smooth="yes"/>
      <point x="81" y="-46"/>
      <point x="67" y="-67"/>
      <point x="41" y="-92" type="curve" smooth="yes"/>
      <point x="28" y="-105"/>
      <point x="35" y="-117"/>
      <point x="44" y="-117" type="curve" smooth="yes"/>
      <point x="49" y="-117"/>
      <point x="52" y="-114"/>
      <point x="55" y="-111" type="curve" smooth="yes"/>
      <point x="89" y="-77"/>
      <point x="117" y="-23"/>
      <point x="116" y="42" type="curve" smooth="yes"/>
      <point x="116" y="72"/>
      <point x="100" y="93"/>
      <point x="79" y="93" type="curve" smooth="yes"/>
      <point x="57" y="93"/>
      <point x="39" y="73"/>
      <point x="39" y="42" type="curve" smooth="yes"/>
      <point x="39" y="18"/>
      <point x="53" y="1"/>
    </contour>
  </outline>
</glyph>
<glyph name="hyphen" format="2">
  <advance width="295"/>
  <unicode hex="002D"/>
  <outline>
    <contour>
      <point x="59" y="228" type="curve" smooth="yes"/>
      <point x="123" y="230"/>
      <point x="167" y="230"/>
      <point x="231" y="228" type="curve" smooth="yes"/>
      <point x="238" y="228"/>
      <point x="241" y="232"/>
      <point x="242" y="240" type="curve" smooth="yes"/>
      <point x="243" y="250"/>
      <point x="245" y="270"/>
      <point x="245" y="273" type="curve" smooth="yes"/>
      <point x="245" y="278"/>
      <point x="242" y="281"/>
      <point x="236" y="281" type="curve" smooth="yes"/>
      <point x="172" y="279"/>
      <point x="128" y="279"/>
      <point x="64" y="281" type="curve" smooth="yes"/>
      <point x="57" y="281"/>
      <point x="54" y="277"/>
      <point x="53" y="269" type="curve" smooth="yes"/>
      <point x="52" y="259"/>
      <point x="50" y="239"/>
      <point x="50" y="236" type="curve" smooth="yes"/>
      <point x="50" y="231"/>
      <point x="53" y="228"/>
    </contour>
  </outline>
</glyph>
<glyph name="period" format="2">
  <advance width="140"/>
  <unicode hex="002E"/>
  <anchor x="70" y="89" name="top"/>
  <outline>
    <contour>
      <point x="68" y="-10" type="curve" smooth="yes"/>
      <point x="93" y="-10"/>
      <point x="108" y="11"/>
      <point x="108" y="40" type="curve" smooth="yes"/>
      <point x="108" y="72"/>
      <point x="95" y="93"/>
      <point x="74" y="93" type="curve" smooth="yes"/>
      <point x="48" y="93"/>
      <point x="32" y="72"/>
      <point x="32" y="40" type="curve" smooth="yes"/>
      <point x="32" y="10"/>
      <point x="46" y="-10"/>
    </contour>
  </outline>
</glyph>
<glyph name="slash" format="2">
  <advance width="341"/>
  <unicode hex="002F"/>
  <outline>
    <contour>
      <point x="34" y="-10" type="curve" smooth="yes"/>
      <point x="55" y="-10"/>
      <point x="62" y="17"/>
      <point x="69" y="36" type="curve" smooth="yes"/>
      <point x="147" y="257"/>
      <point x="227" y="479"/>
      <point x="309" y="700" type="curve" smooth="yes"/>
      <point x="312" y="707"/>
      <point x="311" y="710"/>
      <point x="307" y="710" type="curve" smooth="yes"/>
      <point x="291" y="710"/>
      <point x="284" y="696"/>
      <point x="272" y="664" type="curve" smooth="yes"/>
      <point x="194" y="443"/>
      <point x="114" y="221"/>
      <point x="32" y="0" type="curve" smooth="yes"/>
      <point x="29" y="-7"/>
      <point x="30" y="-10"/>
    </contour>
  </outline>
</glyph>
<glyph name="zero" format="2">
  <advance width="353"/>
  <unicode hex="0030"/>
  <outline>
    <contour>
      <point x="180" y="-10" type="curve" smooth="yes"/>
      <point x="266" y="-10"/>
      <point x="303" y="157"/>
      <point x="303" y="346" type="curve" smooth="yes"/>
      <point x="303" y="570"/>
      <point x="251" y="710"/>
      <point x="173" y="710" type="curve" smooth="yes"/>
      <point x="89" y="710"/>
      <point x="50" y="547"/>
      <point x="50" y="353" type="curve" smooth="yes"/>
      <point x="50" y="134"/>
      <point x="100" y="-10"/>
    </contour>
    <contour>
      <point x="110" y="426" type="curve" smooth="yes"/>
      <point x="110" y="608"/>
      <point x="119" y="694"/>
      <point x="168" y="694" type="curve" smooth="yes"/>
      <point x="219" y="694"/>
      <point x="243" y="598"/>
      <point x="243" y="276" type="curve" smooth="yes"/>
      <point x="243" y="95"/>
      <point x="234" y="10"/>
      <point x="185" y="10" type="curve" smooth="yes"/>
      <point x="134" y="10"/>
      <point x="110" y="104"/>
    </contour>
  </outline>
</glyph>
<glyph name="one" format="2">
  <advance width="217"/>
  <unicode hex="0031"/>
  <outline>
    <contour>
      <point x="85" y="544" type="curve" smooth="yes"/>
      <point x="84" y="389" type="line"/>
      <point x="136" y="389" type="line"/>
      <point x="136" y="535" type="line" smooth="yes"/>
      <point x="136" y="580"/>
      <point x="138" y="690"/>
      <point x="138" y="701" type="curve" smooth="yes"/>
      <point x="138" y="707"/>
      <point x="136" y="710"/>
      <point x="131" y="710" type="curve" smooth="yes"/>
      <point x="127" y="710"/>
      <point x="125" y="707"/>
      <point x="123" y="699" type="curve" smooth="yes"/>
      <point x="106" y="642"/>
      <point x="68" y="572"/>
      <point x="25" y="519" type="curve" smooth="yes"/>
      <point x="17" y="510"/>
      <point x="20" y="500"/>
      <point x="28" y="500" type="curve" smooth="yes"/>
      <point x="49" y="500"/>
      <point x="71" y="565"/>
      <point x="80" y="565" type="curve" smooth="yes"/>
      <point x="85" y="565"/>
      <point x="85" y="560"/>
    </contour>
    <component base="_stem.short" xOffset="5"/>
    <contour>
      <point x="84" y="80" type="line"/>
      <point x="84" y="53" type="line"/>
      <point x="84" y="5"/>
      <point x="56" y="14"/>
      <point x="36" y="14" type="curve"/>
      <point x="29" y="14"/>
      <point x="23" y="10"/>
      <point x="23" y="5" type="curve"/>
      <point x="23" y="-1"/>
      <point x="29" y="-4"/>
      <point x="38" y="-4" type="curve"/>
      <point x="50" y="-4"/>
      <point x="84" y="0"/>
      <point x="120" y="0" type="curve"/>
      <point x="100" y="0" type="line"/>
      <point x="137" y="0"/>
      <point x="172" y="-4"/>
      <point x="183" y="-4" type="curve"/>
      <point x="192" y="-4"/>
      <point x="197" y="-1"/>
      <point x="197" y="5" type="curve"/>
      <point x="197" y="10"/>
      <point x="192" y="14"/>
      <point x="183" y="14" type="curve"/>
      <point x="165" y="14"/>
      <point x="136" y="10"/>
      <point x="136" y="41" type="curve"/>
      <point x="136" y="80" type="line"/>
    </contour>
  </outline>
</glyph>
<glyph name="two" format="2">
  <advance width="306"/>
  <unicode hex="0032"/>
  <outline>
    <component base="_tip" xOffset="17"/>
    <contour>
      <point x="64" y="48" type="curve" smooth="yes"/>
      <point x="59" y="51"/>
      <point x="68" y="63"/>
      <point x="73" y="74" type="curve" smooth="yes"/>
      <point x="180" y="304"/>
      <point x="274" y="471"/>
      <point x="274" y="582" type="curve" smooth="yes"/>
      <point x="274" y="661"/>
      <point x="230" y="710"/>
      <point x="160" y="710" type="curve" smooth="yes"/>
      <point x="109" y="710"/>
      <point x="89" y="677"/>
      <point x="75" y="677" type="curve"/>
      <point x="61" y="667" type="line"/>
      <point x="61" y="520" type="line"/>
      <point x="68" y="526" type="line"/>
      <point x="68" y="636"/>
      <point x="97" y="697"/>
      <point x="148" y="697" type="curve" smooth="yes"/>
      <point x="192" y="697"/>
      <point x="214" y="654"/>
      <point x="214" y="585" type="curve" smooth="yes"/>
      <point x="214" y="460"/>
      <point x="182" y="344"/>
      <point x="98" y="164" type="curve" smooth="yes"/>
      <point x="73" y="109"/>
      <point x="55" y="75"/>
      <point x="44" y="51" type="curve" smooth="yes"/>
      <point x="30" y="20"/>
      <point x="20" y="8"/>
      <point x="20" y="-2" type="curve" smooth="yes"/>
      <point x="20" y="-10"/>
      <point x="26" y="-12"/>
      <point x="30" y="-12" type="curve" smooth="yes"/>
      <point x="42" y="-12"/>
      <point x="49" y="10"/>
      <point x="64" y="23" type="curve" smooth="yes"/>
      <point x="89" y="45"/>
      <point x="113" y="44"/>
      <point x="141" y="24" type="curve" smooth="yes"/>
      <point x="169" y="5"/>
      <point x="186" y="-10"/>
      <point x="216" y="-10" type="curve" smooth="yes"/>
      <point x="251" y="-10"/>
      <point x="271" y="17"/>
      <point x="284" y="70" type="curve" smooth="yes"/>
      <point x="286" y="79"/>
      <point x="289" y="93"/>
      <point x="280" y="93" type="curve" smooth="yes"/>
      <point x="274" y="93"/>
      <point x="272" y="88"/>
      <point x="270" y="75" type="curve" smooth="yes"/>
      <point x="265" y="49"/>
      <point x="260" y="30"/>
      <point x="240" y="30" type="curve" smooth="yes"/>
      <point x="224" y="30"/>
      <point x="209" y="43"/>
      <point x="187" y="56" type="curve" smooth="yes"/>
      <point x="136" y="86"/>
      <point x="108" y="86"/>
      <point x="75" y="53" type="curve" smooth="yes"/>
      <point x="72" y="50"/>
      <point x="68" y="46"/>
    </contour>
  </outline>
</glyph>
<glyph name="three" format="2">
  <advance width="306"/>
  <unicode hex="0033"/>
  <outline>
    <contour>
      <point x="131" y="-10" type="curve" smooth="yes"/>
      <point x="216" y="-10"/>
      <point x="276" y="74"/>
      <point x="276" y="194" type="curve" smooth="yes"/>
      <point x="276" y="310"/>
      <point x="208" y="390"/>
      <point x="121" y="376" type="curve" smooth="yes"/>
      <point x="115" y="375"/>
      <point x="113" y="375"/>
      <point x="113" y="378" type="curve" smooth="yes"/>
      <point x="113" y="380"/>
      <point x="116" y="381"/>
      <point x="118" y="382" type="curve" smooth="yes"/>
      <point x="199" y="435"/>
      <point x="260" y="513"/>
      <point x="260" y="598" type="curve" smooth="yes"/>
      <point x="260" y="667"/>
      <point x="218" y="710"/>
      <point x="151" y="710" type="curve" smooth="yes"/>
      <point x="100" y="710"/>
      <point x="80" y="677"/>
      <point x="66" y="677" type="curve"/>
      <point x="52" y="667" type="line"/>
      <point x="52" y="520" type="line"/>
      <point x="59" y="526" type="line"/>
      <point x="59" y="636"/>
      <point x="88" y="697"/>
      <point x="138" y="697" type="curve" smooth="yes"/>
      <point x="178" y="697"/>
      <point x="200" y="657"/>
      <point x="200" y="587" type="curve" smooth="yes"/>
      <point x="200" y="492"/>
      <point x="164" y="423"/>
      <point x="90" y="377" type="curve" smooth="yes"/>
      <point x="75" y="368"/>
      <point x="71" y="366"/>
      <point x="63" y="363" type="curve" smooth="yes"/>
      <point x="52" y="359"/>
      <point x="48" y="356"/>
      <point x="48" y="351" type="curve" smooth="yes"/>
      <point x="48" y="341"/>
      <point x="58" y="342"/>
      <point x="68" y="348" type="curve" smooth="yes"/>
      <point x="83" y="357"/>
      <point x="103" y="362"/>
      <point x="121" y="362" type="curve" smooth="yes"/>
      <point x="185" y="362"/>
      <point x="216" y="300"/>
      <point x="216" y="176" type="curve" smooth="yes"/>
      <point x="216" y="66"/>
      <point x="182" y="5"/>
      <point x="126" y="5" type="curve" smooth="yes"/>
      <point x="87" y="5"/>
      <point x="71" y="35"/>
      <point x="71" y="107" type="curve" smooth="yes"/>
      <point x="71" y="130"/>
      <point x="63" y="145"/>
      <point x="47" y="145" type="curve" smooth="yes"/>
      <point x="21" y="145"/>
      <point x="13" y="116"/>
      <point x="27" y="71" type="curve" smooth="yes"/>
      <point x="42" y="17"/>
      <point x="77" y="-10"/>
    </contour>
    <component base="_tip" xOffset="8"/>
  </outline>
</glyph>
<glyph name="four" format="2">
  <advance width="319"/>
  <unicode hex="0034"/>
  <outline>
    <contour>
      <point x="197" y="0" type="curve"/>
      <point x="211" y="0" type="line"/>
      <point x="231" y="0"/>
      <point x="255" y="-4"/>
      <point x="266" y="-4" type="curve"/>
      <point x="274" y="-4"/>
      <point x="278" y="-1"/>
      <point x="278" y="5" type="curve"/>
      <point x="278" y="10"/>
      <point x="274" y="13"/>
      <point x="267" y="13" type="curve"/>
      <point x="249" y="13"/>
      <point x="230" y="8"/>
      <point x="229" y="61" type="curve"/>
      <point x="229" y="79"/>
      <point x="229" y="100"/>
      <point x="229" y="122" type="curve" smooth="yes"/>
      <point x="229" y="127"/>
      <point x="232" y="130"/>
      <point x="237" y="130" type="curve" smooth="yes"/>
      <point x="281" y="130" type="line" smooth="yes"/>
      <point x="286" y="130"/>
      <point x="289" y="133"/>
      <point x="289" y="138" type="curve" smooth="yes"/>
      <point x="289" y="170" type="line" smooth="yes"/>
      <point x="289" y="175"/>
      <point x="286" y="178"/>
      <point x="281" y="178" type="curve" smooth="yes"/>
      <point x="236" y="178" type="line" smooth="yes"/>
      <point x="231" y="178"/>
      <point x="228" y="181"/>
      <point x="228" y="186" type="curve" smooth="yes"/>
      <point x="227" y="375"/>
      <point x="228" y="613"/>
      <point x="228" y="631" type="curve" smooth="yes"/>
      <point x="228" y="676"/>
      <point x="233" y="692"/>
      <point x="233" y="701" type="curve" smooth="yes"/>
      <point x="233" y="707"/>
      <point x="230" y="710"/>
      <point x="225" y="710" type="curve" smooth="yes"/>
      <point x="222" y="710"/>
      <point x="219" y="708"/>
      <point x="217" y="706" type="curve" smooth="yes"/>
      <point x="213" y="702"/>
      <point x="208" y="695"/>
      <point x="200" y="688" type="curve" smooth="yes"/>
      <point x="182" y="672"/>
      <point x="178" y="658"/>
      <point x="178" y="645" type="curve" smooth="yes"/>
      <point x="178" y="621" type="line" smooth="yes"/>
      <point x="178" y="600"/>
      <point x="176" y="592"/>
      <point x="170" y="574" type="curve" smooth="yes"/>
      <point x="32" y="174" type="line" smooth="yes"/>
      <point x="18" y="134"/>
      <point x="9" y="130"/>
      <point x="48" y="130" type="curve" smooth="yes"/>
      <point x="170" y="130" type="line" smooth="yes"/>
      <point x="175" y="130"/>
      <point x="178" y="127"/>
      <point x="178" y="122" type="curve" smooth="yes"/>
      <point x="178" y="61" type="line"/>
      <point x="178" y="8"/>
      <point x="159" y="13"/>
      <point x="141" y="13" type="curve"/>
      <point x="134" y="13"/>
      <point x="130" y="10"/>
      <point x="130" y="5" type="curve"/>
      <point x="130" y="-1"/>
      <point x="134" y="-4"/>
      <point x="142" y="-4" type="curve"/>
      <point x="153" y="-4"/>
      <point x="177" y="0"/>
    </contour>
    <contour>
      <point x="59" y="207" type="curve" smooth="yes"/>
      <point x="168" y="523" type="line" smooth="yes"/>
      <point x="173" y="537"/>
      <point x="174" y="544"/>
      <point x="177" y="544" type="curve" smooth="yes"/>
      <point x="181" y="544"/>
      <point x="180" y="533"/>
      <point x="180" y="517" type="curve" smooth="yes"/>
      <point x="178" y="186" type="line" smooth="yes"/>
      <point x="178" y="180"/>
      <point x="175" y="178"/>
      <point x="170" y="178" type="curve" smooth="yes"/>
      <point x="76" y="178" type="line" smooth="yes"/>
      <point x="51" y="178"/>
      <point x="50" y="182"/>
    </contour>
  </outline>
</glyph>
<glyph name="five" format="2">
  <advance width="294"/>
  <unicode hex="0035"/>
  <outline>
    <contour>
      <point x="137" y="487" type="curve" smooth="yes"/>
      <point x="122" y="487"/>
      <point x="107" y="485"/>
      <point x="93" y="480" type="curve" smooth="yes"/>
      <point x="82" y="476"/>
      <point x="76" y="471"/>
      <point x="74" y="474" type="curve" smooth="yes"/>
      <point x="72" y="476"/>
      <point x="78" y="482"/>
      <point x="82" y="490" type="curve" smooth="yes"/>
      <point x="98" y="520"/>
      <point x="94" y="571"/>
      <point x="73" y="621" type="curve" smooth="yes"/>
      <point x="70" y="629"/>
      <point x="71" y="632"/>
      <point x="76" y="632" type="curve" smooth="yes"/>
      <point x="88" y="632"/>
      <point x="111" y="629"/>
      <point x="158" y="629" type="curve" smooth="yes"/>
      <point x="178" y="629"/>
      <point x="205" y="633"/>
      <point x="226" y="648" type="curve" smooth="yes"/>
      <point x="249" y="665"/>
      <point x="264" y="690"/>
      <point x="264" y="705" type="curve" smooth="yes"/>
      <point x="264" y="707"/>
      <point x="263" y="710"/>
      <point x="260" y="710" type="curve" smooth="yes"/>
      <point x="257" y="710"/>
      <point x="257" y="708"/>
      <point x="251" y="702" type="curve" smooth="yes"/>
      <point x="230" y="681"/>
      <point x="201" y="677"/>
      <point x="158" y="677" type="curve" smooth="yes"/>
      <point x="80" y="677"/>
      <point x="49" y="710"/>
      <point x="28" y="710" type="curve" smooth="yes"/>
      <point x="12" y="710"/>
      <point x="33" y="674"/>
      <point x="52" y="632" type="curve" smooth="yes"/>
      <point x="89" y="553"/>
      <point x="85" y="491"/>
      <point x="43" y="460" type="curve" smooth="yes"/>
      <point x="33" y="453"/>
      <point x="26" y="449"/>
      <point x="27" y="443" type="curve" smooth="yes"/>
      <point x="29" y="436"/>
      <point x="35" y="436"/>
      <point x="58" y="450" type="curve" smooth="yes"/>
      <point x="80" y="464"/>
      <point x="105" y="472"/>
      <point x="126" y="472" type="curve" smooth="yes"/>
      <point x="187" y="472"/>
      <point x="214" y="403"/>
      <point x="214" y="244" type="curve" smooth="yes"/>
      <point x="214" y="78"/>
      <point x="187" y="5"/>
      <point x="125" y="5" type="curve" smooth="yes"/>
      <point x="87" y="5"/>
      <point x="71" y="35"/>
      <point x="71" y="107" type="curve" smooth="yes"/>
      <point x="71" y="130"/>
      <point x="63" y="145"/>
      <point x="47" y="145" type="curve" smooth="yes"/>
      <point x="21" y="145"/>
      <point x="13" y="116"/>
      <point x="27" y="71" type="curve" smooth="yes"/>
      <point x="42" y="17"/>
      <point x="77" y="-10"/>
      <point x="136" y="-10" type="curve" smooth="yes"/>
      <point x="217" y="-10"/>
      <point x="274" y="95"/>
      <point x="274" y="244" type="curve" smooth="yes"/>
      <point x="274" y="400"/>
      <point x="225" y="487"/>
    </contour>
  </outline>
</glyph>
<glyph name="six" format="2">
  <advance width="349"/>
  <unicode hex="0036"/>
  <outline>
    <contour>
      <point x="191" y="455" type="curve" smooth="yes"/>
      <point x="157" y="455"/>
      <point x="128" y="431"/>
      <point x="111" y="388" type="curve" smooth="yes"/>
      <point x="107" y="378"/>
      <point x="107" y="373"/>
      <point x="104" y="373" type="curve" smooth="yes"/>
      <point x="100" y="373"/>
      <point x="101" y="382"/>
      <point x="101" y="393" type="curve" smooth="yes"/>
      <point x="102" y="613"/>
      <point x="127" y="696"/>
      <point x="191" y="696" type="curve" smooth="yes"/>
      <point x="229" y="696"/>
      <point x="246" y="663"/>
      <point x="246" y="593" type="curve" smooth="yes"/>
      <point x="246" y="569"/>
      <point x="255" y="555"/>
      <point x="271" y="555" type="curve" smooth="yes"/>
      <point x="294" y="555"/>
      <point x="302" y="584"/>
      <point x="290" y="628" type="curve" smooth="yes"/>
      <point x="275" y="683"/>
      <point x="239" y="710"/>
      <point x="190" y="710" type="curve" smooth="yes"/>
      <point x="99" y="710"/>
      <point x="50" y="581"/>
      <point x="50" y="348" type="curve" smooth="yes"/>
      <point x="50" y="118"/>
      <point x="97" y="-10"/>
      <point x="175" y="-10" type="curve" smooth="yes"/>
      <point x="246" y="-10"/>
      <point x="299" y="92"/>
      <point x="299" y="236" type="curve" smooth="yes"/>
      <point x="299" y="371"/>
      <point x="257" y="455"/>
    </contour>
    <contour>
      <point x="107" y="272" type="curve" smooth="yes"/>
      <point x="104" y="363"/>
      <point x="129" y="420"/>
      <point x="171" y="420" type="curve" smooth="yes"/>
      <point x="215" y="420"/>
      <point x="240" y="350"/>
      <point x="240" y="224" type="curve" smooth="yes"/>
      <point x="240" y="79"/>
      <point x="221" y="9"/>
      <point x="183" y="9" type="curve" smooth="yes"/>
      <point x="137" y="9"/>
      <point x="112" y="96"/>
    </contour>
  </outline>
</glyph>
<glyph name="seven" format="2">
  <advance width="283"/>
  <unicode hex="0037"/>
  <outline>
    <contour>
      <point x="233" y="653" type="curve" smooth="yes"/>
      <point x="238" y="650"/>
      <point x="230" y="637"/>
      <point x="225" y="626" type="curve" smooth="yes"/>
      <point x="97" y="366"/>
      <point x="47" y="205"/>
      <point x="47" y="48" type="curve" smooth="yes"/>
      <point x="47" y="18" type="line" smooth="yes"/>
      <point x="47" y="4"/>
      <point x="51" y="0"/>
      <point x="61" y="0" type="curve" smooth="yes"/>
      <point x="85" y="0" type="line" smooth="yes"/>
      <point x="94" y="0"/>
      <point x="98" y="4"/>
      <point x="98" y="18" type="curve" smooth="yes"/>
      <point x="98" y="55" type="line" smooth="yes"/>
      <point x="98" y="250"/>
      <point x="125" y="382"/>
      <point x="198" y="536" type="curve" smooth="yes"/>
      <point x="223" y="591"/>
      <point x="240" y="625"/>
      <point x="251" y="649" type="curve" smooth="yes"/>
      <point x="254" y="656"/>
      <point x="257" y="662"/>
      <point x="262" y="667" type="curve" smooth="yes"/>
      <point x="271" y="675"/>
      <point x="287" y="684"/>
      <point x="287" y="697" type="curve" smooth="yes"/>
      <point x="287" y="707"/>
      <point x="280" y="710"/>
      <point x="275" y="710" type="curve" smooth="yes"/>
      <point x="261" y="710"/>
      <point x="239" y="683"/>
      <point x="232" y="677" type="curve" smooth="yes"/>
      <point x="207" y="655"/>
      <point x="183" y="656"/>
      <point x="155" y="676" type="curve" smooth="yes"/>
      <point x="127" y="695"/>
      <point x="110" y="710"/>
      <point x="80" y="710" type="curve" smooth="yes"/>
      <point x="45" y="710"/>
      <point x="25" y="683"/>
      <point x="12" y="630" type="curve" smooth="yes"/>
      <point x="10" y="621"/>
      <point x="7" y="607"/>
      <point x="16" y="607" type="curve" smooth="yes"/>
      <point x="22" y="607"/>
      <point x="24" y="612"/>
      <point x="26" y="625" type="curve" smooth="yes"/>
      <point x="31" y="651"/>
      <point x="36" y="670"/>
      <point x="56" y="670" type="curve" smooth="yes"/>
      <point x="72" y="670"/>
      <point x="87" y="657"/>
      <point x="109" y="644" type="curve" smooth="yes"/>
      <point x="160" y="614"/>
      <point x="188" y="614"/>
      <point x="221" y="647" type="curve" smooth="yes"/>
      <point x="224" y="650"/>
      <point x="229" y="655"/>
    </contour>
  </outline>
</glyph>
<glyph name="eight" format="2">
  <advance width="357"/>
  <unicode hex="0038"/>
  <outline>
    <contour>
      <point x="178" y="710" type="curve" smooth="yes"/>
      <point x="106" y="710"/>
      <point x="60" y="647"/>
      <point x="60" y="560" type="curve" smooth="yes"/>
      <point x="60" y="496"/>
      <point x="85" y="443"/>
      <point x="150" y="359" type="curve"/>
      <point x="85" y="286"/>
      <point x="50" y="211"/>
      <point x="50" y="133" type="curve" smooth="yes"/>
      <point x="50" y="41"/>
      <point x="98" y="-10"/>
      <point x="178" y="-10" type="curve" smooth="yes"/>
      <point x="297" y="-10"/>
      <point x="307" y="105"/>
      <point x="307" y="148" type="curve" smooth="yes"/>
      <point x="307" y="225"/>
      <point x="276" y="301"/>
      <point x="212" y="380" type="curve"/>
      <point x="266" y="448"/>
      <point x="296" y="517"/>
      <point x="296" y="573" type="curve" smooth="yes"/>
      <point x="296" y="653"/>
      <point x="247" y="710"/>
    </contour>
    <contour>
      <point x="90" y="146" type="curve" smooth="yes"/>
      <point x="90" y="223"/>
      <point x="118" y="296"/>
      <point x="162" y="343" type="curve"/>
      <point x="227" y="266"/>
      <point x="256" y="196"/>
      <point x="256" y="115" type="curve" smooth="yes"/>
      <point x="256" y="41"/>
      <point x="232" y="5"/>
      <point x="184" y="5" type="curve" smooth="yes"/>
      <point x="127" y="5"/>
      <point x="90" y="57"/>
    </contour>
    <contour>
      <point x="108" y="588" type="curve" smooth="yes"/>
      <point x="108" y="650"/>
      <point x="136" y="697"/>
      <point x="181" y="697" type="curve" smooth="yes"/>
      <point x="228" y="697"/>
      <point x="258" y="646"/>
      <point x="258" y="565" type="curve" smooth="yes"/>
      <point x="258" y="503"/>
      <point x="236" y="442"/>
      <point x="198" y="395" type="curve"/>
      <point x="136" y="468"/>
      <point x="108" y="526"/>
    </contour>
  </outline>
</glyph>
<glyph name="equal" format="2">
  <advance width="432"/>
  <unicode hex="003D"/>
  <outline>
    <contour>
      <point x="39" y="429" type="curve" smooth="yes"/>
      <point x="103" y="431"/>
      <point x="327" y="431"/>
      <point x="391" y="429" type="curve" smooth="yes"/>
      <point x="398" y="429"/>
      <point x="401" y="433"/>
      <point x="402" y="441" type="curve" smooth="yes"/>
      <point x="403" y="452"/>
      <point x="401" y="457"/>
      <point x="393" y="457" type="curve" smooth="yes"/>
      <point x="332" y="455"/>
      <point x="108" y="455"/>
      <point x="44" y="457" type="curve" smooth="yes"/>
      <point x="36" y="457"/>
      <point x="30" y="449"/>
      <point x="30" y="437" type="curve" smooth="yes"/>
      <point x="30" y="432"/>
      <point x="33" y="429"/>
    </contour>
    <contour>
      <point x="39" y="239" type="curve" smooth="yes"/>
      <point x="103" y="241"/>
      <point x="327" y="241"/>
      <point x="391" y="239" type="curve" smooth="yes"/>
      <point x="398" y="239"/>
      <point x="401" y="243"/>
      <point x="402" y="251" type="curve" smooth="yes"/>
      <point x="403" y="262"/>
      <point x="401" y="267"/>
      <point x="393" y="267" type="curve" smooth="yes"/>
      <point x="332" y="265"/>
      <point x="108" y="265"/>
      <point x="44" y="267" type="curve" smooth="yes"/>
      <point x="36" y="267"/>
      <point x="30" y="259"/>
      <point x="30" y="247" type="curve" smooth="yes"/>
      <point x="30" y="242"/>
      <point x="33" y="239"/>
    </contour>
  </outline>
</glyph>
<glyph name="greater" format="2">
  <advance width="374"/>
  <unicode hex="003E"/>
  <outline>
    <contour>
      <point x="34" y="488" type="curve" smooth="yes"/>
      <point x="79" y="458"/>
      <point x="223" y="359"/>
      <point x="299" y="308" type="curve" smooth="yes"/>
      <point x="309" y="301"/>
      <point x="309" y="297"/>
      <point x="302" y="292" type="curve" smooth="yes"/>
      <point x="227" y="241"/>
      <point x="80" y="141"/>
      <point x="34" y="110" type="curve" smooth="yes"/>
      <point x="30" y="107"/>
      <point x="29" y="103"/>
      <point x="32" y="99" type="curve" smooth="yes"/>
      <point x="38" y="89"/>
      <point x="48" y="85"/>
      <point x="54" y="90" type="curve" smooth="yes"/>
      <point x="103" y="127"/>
      <point x="270" y="246"/>
      <point x="331" y="284" type="curve" smooth="yes"/>
      <point x="339" y="289"/>
      <point x="344" y="294"/>
      <point x="344" y="299" type="curve" smooth="yes"/>
      <point x="344" y="304"/>
      <point x="339" y="309"/>
      <point x="331" y="314" type="curve" smooth="yes"/>
      <point x="270" y="352"/>
      <point x="103" y="471"/>
      <point x="54" y="508" type="curve" smooth="yes"/>
      <point x="48" y="513"/>
      <point x="38" y="509"/>
      <point x="31" y="500" type="curve"/>
      <point x="29" y="495"/>
      <point x="30" y="491"/>
    </contour>
  </outline>
</glyph>
<glyph name="question" format="2">
  <advance width="316"/>
  <unicode hex="003F"/>
  <outline>
    <contour>
      <point x="224" y="595" type="curve" smooth="yes"/>
      <point x="224" y="470"/>
      <point x="139" y="393"/>
      <point x="119" y="247" type="curve" smooth="yes"/>
      <point x="116" y="227"/>
      <point x="116" y="215"/>
      <point x="126" y="215" type="curve" smooth="yes"/>
      <point x="136" y="215"/>
      <point x="133" y="226"/>
      <point x="135" y="244" type="curve" smooth="yes"/>
      <point x="155" y="401"/>
      <point x="286" y="465"/>
      <point x="286" y="589" type="curve" smooth="yes"/>
      <point x="286" y="662"/>
      <point x="233" y="710"/>
      <point x="166" y="710" type="curve" smooth="yes"/>
      <point x="88" y="710"/>
      <point x="30" y="646"/>
      <point x="30" y="583" type="curve" smooth="yes"/>
      <point x="30" y="557"/>
      <point x="42" y="548"/>
      <point x="57" y="548" type="curve" smooth="yes"/>
      <point x="79" y="548"/>
      <point x="87" y="563"/>
      <point x="87" y="602" type="curve" smooth="yes"/>
      <point x="87" y="661"/>
      <point x="109" y="697"/>
      <point x="153" y="697" type="curve" smooth="yes"/>
      <point x="197" y="697"/>
      <point x="224" y="658"/>
    </contour>
    <component base="period" xOffset="68"/>
  </outline>
</glyph>
<glyph name="at" format="2">
  <advance width="598"/>
  <unicode hex="0040"/>
  <outline>
    <contour>
      <point x="305" y="-200" type="curve" smooth="yes"/>
      <point x="373" y="-200"/>
      <point x="431" y="-162"/>
      <point x="476" y="-99" type="curve" smooth="yes"/>
      <point x="492" y="-78"/>
      <point x="494" y="-68"/>
      <point x="486" y="-66" type="curve" smooth="yes"/>
      <point x="479" y="-64"/>
      <point x="472" y="-72"/>
      <point x="462" y="-89" type="curve" smooth="yes"/>
      <point x="420" y="-147"/>
      <point x="366" y="-182"/>
      <point x="305" y="-182" type="curve" smooth="yes"/>
      <point x="158" y="-182"/>
      <point x="55" y="-12"/>
      <point x="46" y="243" type="curve" smooth="yes"/>
      <point x="37" y="496"/>
      <point x="145" y="695"/>
      <point x="292" y="695" type="curve" smooth="yes"/>
      <point x="439" y="695"/>
      <point x="542" y="528"/>
      <point x="551" y="276" type="curve" smooth="yes"/>
      <point x="557" y="120"/>
      <point x="524" y="16"/>
      <point x="468" y="16" type="curve" smooth="yes"/>
      <point x="437" y="16"/>
      <point x="426" y="39"/>
      <point x="422" y="116" type="curve" smooth="yes"/>
      <point x="420" y="148"/>
      <point x="419" y="188"/>
      <point x="419" y="240" type="curve" smooth="yes"/>
      <point x="419" y="371" type="line" smooth="yes"/>
      <point x="419" y="451"/>
      <point x="421" y="476"/>
      <point x="425" y="495" type="curve" smooth="yes"/>
      <point x="427" y="504"/>
      <point x="425" y="510"/>
      <point x="419" y="510" type="curve" smooth="yes"/>
      <point x="414" y="510"/>
      <point x="412" y="507"/>
      <point x="409" y="501" type="curve" smooth="yes"/>
      <point x="404" y="491"/>
      <point x="396" y="460"/>
      <point x="376" y="460" type="curve" smooth="yes"/>
      <point x="349" y="460"/>
      <point x="337" y="510"/>
      <point x="285" y="510" type="curve" smooth="yes"/>
      <point x="280" y="510" type="line" smooth="yes"/>
      <point x="203" y="507"/>
      <point x="142" y="392"/>
      <point x="142" y="236" type="curve" smooth="yes"/>
      <point x="142" y="88"/>
      <point x="192" y="-10"/>
      <point x="267" y="-10" type="curve" smooth="yes"/>
      <point x="304" y="-10"/>
      <point x="335" y="13"/>
      <point x="355" y="55" type="curve" smooth="yes"/>
      <point x="361" y="69"/>
      <point x="363" y="71"/>
      <point x="367" y="71" type="curve" smooth="yes"/>
      <point x="372" y="71"/>
      <point x="374" y="64"/>
      <point x="376" y="55" type="curve" smooth="yes"/>
      <point x="384" y="13"/>
      <point x="413" y="-10"/>
      <point x="456" y="-10" type="curve" smooth="yes"/>
      <point x="531" y="-10"/>
      <point x="575" y="104"/>
      <point x="567" y="276" type="curve" smooth="yes"/>
      <point x="558" y="533"/>
      <point x="439" y="710"/>
      <point x="292" y="710" type="curve" smooth="yes"/>
      <point x="133" y="710"/>
      <point x="22" y="504"/>
      <point x="30" y="243" type="curve" smooth="yes"/>
      <point x="35" y="-18"/>
      <point x="154" y="-200"/>
    </contour>
    <contour>
      <point x="284" y="26" type="curve" smooth="yes"/>
      <point x="231" y="26"/>
      <point x="201" y="101"/>
      <point x="201" y="265" type="curve" smooth="yes"/>
      <point x="201" y="420"/>
      <point x="235" y="498"/>
      <point x="283" y="498" type="curve" smooth="yes"/>
      <point x="341" y="498"/>
      <point x="367" y="415"/>
      <point x="367" y="253" type="curve" smooth="yes"/>
      <point x="367" y="232" type="line" smooth="yes"/>
      <point x="367" y="96"/>
      <point x="336" y="26"/>
    </contour>
  </outline>
</glyph>
<glyph name="B" format="2">
  <advance width="361"/>
  <unicode hex="0042"/>
  <anchor x="171" y="0" name="bottom"/>
  <anchor x="171" y="350" name="center"/>
  <anchor x="171" y="700" name="top"/>
  <outline>
    <contour>
      <point x="89" y="700" type="curve"/>
      <point x="89" y="682" type="line"/>
      <point x="134" y="682" type="line"/>
      <point x="134" y="686"/>
      <point x="136" y="688"/>
      <point x="141" y="688" type="curve" smooth="yes"/>
      <point x="211" y="690"/>
      <point x="250" y="610"/>
      <point x="250" y="464" type="curve" smooth="yes"/>
      <point x="250" y="341"/>
      <point x="211" y="255"/>
      <point x="149" y="242" type="curve" smooth="yes"/>
      <point x="139" y="240"/>
      <point x="136" y="243"/>
      <point x="136" y="251" type="curve"/>
      <point x="122" y="248" type="line"/>
      <point x="122" y="214" type="line"/>
      <point x="136" y="208" type="line"/>
      <point x="136" y="218"/>
      <point x="138" y="221"/>
      <point x="149" y="221" type="curve" smooth="yes"/>
      <point x="223" y="222"/>
      <point x="269" y="180"/>
      <point x="269" y="112" type="curve" smooth="yes"/>
      <point x="269" y="50"/>
      <point x="229" y="14"/>
      <point x="156" y="14" type="curve" smooth="yes"/>
      <point x="141" y="14"/>
      <point x="142" y="27"/>
      <point x="141" y="44" type="curve"/>
      <point x="108" y="46" type="line"/>
      <point x="108" y="0" type="line"/>
      <point x="119" y="0"/>
      <point x="129" y="-1"/>
      <point x="140" y="-1" type="curve" smooth="yes"/>
      <point x="273" y="-1"/>
      <point x="331" y="34"/>
      <point x="331" y="114" type="curve" smooth="yes"/>
      <point x="331" y="184"/>
      <point x="273" y="230"/>
      <point x="181" y="234" type="curve" smooth="yes"/>
      <point x="178" y="234"/>
      <point x="177" y="235"/>
      <point x="177" y="237" type="curve" smooth="yes"/>
      <point x="177" y="238"/>
      <point x="178" y="239"/>
      <point x="181" y="240" type="curve" smooth="yes"/>
      <point x="258" y="262"/>
      <point x="307" y="351"/>
      <point x="307" y="469" type="curve" smooth="yes"/>
      <point x="307" y="602"/>
      <point x="244" y="707"/>
      <point x="138" y="701" type="curve" smooth="yes"/>
      <point x="120" y="700"/>
      <point x="104" y="700"/>
      <point x="92" y="700" type="curve" smooth="yes"/>
      <point x="91" y="700"/>
      <point x="90" y="700"/>
    </contour>
    <contour>
      <point x="110" y="0" type="curve"/>
      <point x="144" y="0" type="line"/>
      <point x="137" y="47"/>
      <point x="130" y="653"/>
      <point x="135" y="700" type="curve"/>
      <point x="101" y="700" type="line"/>
      <point x="70" y="700"/>
      <point x="41" y="703"/>
      <point x="32" y="703" type="curve"/>
      <point x="24" y="703"/>
      <point x="20" y="700"/>
      <point x="20" y="694" type="curve"/>
      <point x="20" y="689"/>
      <point x="24" y="685"/>
      <point x="32" y="685" type="curve"/>
      <point x="47" y="686"/>
      <point x="71" y="690"/>
      <point x="73" y="659" type="curve"/>
      <point x="78" y="507"/>
      <point x="82" y="193"/>
      <point x="81" y="41" type="curve"/>
      <point x="80" y="10"/>
      <point x="56" y="14"/>
      <point x="41" y="14" type="curve"/>
      <point x="33" y="14"/>
      <point x="29" y="10"/>
      <point x="29" y="5" type="curve"/>
      <point x="29" y="-1"/>
      <point x="33" y="-4"/>
      <point x="41" y="-4" type="curve"/>
      <point x="50" y="-4"/>
      <point x="79" y="0"/>
    </contour>
  </outline>
</glyph>
<glyph name="C" format="2">
  <advance width="292"/>
  <unicode hex="0043"/>
  <anchor x="146" y="0" name="bottom"/>
  <anchor x="184" y="700" name="top"/>
  <outline>
    <contour>
      <point x="272" y="189" type="curve" smooth="yes"/>
      <point x="272" y="196"/>
      <point x="270" y="202"/>
      <point x="264" y="202" type="curve" smooth="yes"/>
      <point x="256" y="202"/>
      <point x="256" y="193"/>
      <point x="256" y="172" type="curve" smooth="yes"/>
      <point x="256" y="76"/>
      <point x="228" y="8"/>
      <point x="185" y="8" type="curve" smooth="yes"/>
      <point x="133" y="8"/>
      <point x="101" y="135"/>
      <point x="96" y="363" type="curve" smooth="yes"/>
      <point x="91" y="579"/>
      <point x="126" y="697"/>
      <point x="178" y="697" type="curve" smooth="yes"/>
      <point x="220" y="697"/>
      <point x="250" y="629"/>
      <point x="250" y="533" type="curve" smooth="yes"/>
      <point x="250" y="511"/>
      <point x="249" y="500"/>
      <point x="258" y="500" type="curve" smooth="yes"/>
      <point x="263" y="500"/>
      <point x="266" y="504"/>
      <point x="266" y="511" type="curve" smooth="yes"/>
      <point x="266" y="521"/>
      <point x="258" y="550"/>
      <point x="258" y="610" type="curve" smooth="yes"/>
      <point x="258" y="661"/>
      <point x="264" y="685"/>
      <point x="265" y="693" type="curve" smooth="yes"/>
      <point x="267" y="708"/>
      <point x="262" y="710"/>
      <point x="258" y="710" type="curve" smooth="yes"/>
      <point x="248" y="710"/>
      <point x="248" y="693"/>
      <point x="233" y="693" type="curve" smooth="yes"/>
      <point x="219" y="693"/>
      <point x="203" y="710"/>
      <point x="174" y="710" type="curve" smooth="yes"/>
      <point x="88" y="710"/>
      <point x="26" y="547"/>
      <point x="30" y="339" type="curve" smooth="yes"/>
      <point x="33" y="134"/>
      <point x="98" y="-9"/>
      <point x="180" y="-9" type="curve" smooth="yes"/>
      <point x="209" y="-9"/>
      <point x="225" y="8"/>
      <point x="239" y="8" type="curve" smooth="yes"/>
      <point x="254" y="8"/>
      <point x="254" y="-9"/>
      <point x="264" y="-9" type="curve" smooth="yes"/>
      <point x="269" y="-9"/>
      <point x="272" y="-5"/>
      <point x="272" y="2" type="curve" smooth="yes"/>
      <point x="272" y="12"/>
      <point x="265" y="29"/>
      <point x="265" y="81" type="curve" smooth="yes"/>
      <point x="265" y="133"/>
      <point x="272" y="177"/>
    </contour>
  </outline>
</glyph>
<glyph name="D" format="2">
  <advance width="349"/>
  <unicode hex="0044"/>
  <anchor x="175" y="0" name="bottom"/>
  <anchor x="175" y="350" name="center"/>
  <anchor x="175" y="700" name="top"/>
  <outline>
    <contour>
      <point x="142" y="32" type="curve"/>
      <point x="97" y="32" type="line"/>
      <point x="97" y="0" type="line"/>
      <point x="109" y="0"/>
      <point x="124" y="-1"/>
      <point x="138" y="-1" type="curve" smooth="yes"/>
      <point x="249" y="-1"/>
      <point x="319" y="134"/>
      <point x="319" y="370" type="curve" smooth="yes"/>
      <point x="319" y="568"/>
      <point x="248" y="703"/>
      <point x="137" y="701" type="curve" smooth="yes"/>
      <point x="130" y="701"/>
      <point x="122" y="700"/>
      <point x="95" y="700" type="curve"/>
      <point x="95" y="678" type="line"/>
      <point x="134" y="678" type="line"/>
      <point x="134" y="687"/>
      <point x="137" y="688"/>
      <point x="141" y="688" type="curve" smooth="yes"/>
      <point x="216" y="683"/>
      <point x="258" y="569"/>
      <point x="258" y="371" type="curve" smooth="yes"/>
      <point x="258" y="134"/>
      <point x="222" y="15"/>
      <point x="150" y="15" type="curve" smooth="yes"/>
      <point x="143" y="15"/>
      <point x="143" y="17"/>
    </contour>
    <contour>
      <point x="110" y="0" type="curve"/>
      <point x="144" y="0" type="line"/>
      <point x="137" y="47"/>
      <point x="130" y="653"/>
      <point x="135" y="700" type="curve"/>
      <point x="101" y="700" type="line"/>
      <point x="70" y="700"/>
      <point x="41" y="703"/>
      <point x="32" y="703" type="curve"/>
      <point x="24" y="703"/>
      <point x="20" y="700"/>
      <point x="20" y="694" type="curve"/>
      <point x="20" y="689"/>
      <point x="24" y="685"/>
      <point x="32" y="685" type="curve"/>
      <point x="47" y="686"/>
      <point x="71" y="690"/>
      <point x="73" y="659" type="curve"/>
      <point x="78" y="507"/>
      <point x="82" y="193"/>
      <point x="81" y="41" type="curve"/>
      <point x="80" y="10"/>
      <point x="56" y="14"/>
      <point x="41" y="14" type="curve"/>
      <point x="33" y="14"/>
      <point x="29" y="10"/>
      <point x="29" y="5" type="curve"/>
      <point x="29" y="-1"/>
      <point x="33" y="-4"/>
      <point x="41" y="-4" type="curve"/>
      <point x="50" y="-4"/>
      <point x="79" y="0"/>
    </contour>
  </outline>
</glyph>
<glyph name="E" format="2">
  <advance width="303"/>
  <unicode hex="0045"/>
  <anchor x="154" y="0" name="bottom"/>
  <anchor x="273" y="10" name="ogonek"/>
  <anchor x="166" y="700" name="top"/>
  <anchor x="25" y="700" name="topleft"/>
  <outline>
    <contour>
      <point x="101" y="0" type="curve"/>
      <point x="135" y="0" type="line"/>
      <point x="129" y="47"/>
      <point x="129" y="653"/>
      <point x="135" y="700" type="curve"/>
      <point x="101" y="700" type="line"/>
      <point x="70" y="700"/>
      <point x="41" y="704"/>
      <point x="32" y="703" type="curve"/>
      <point x="24" y="703"/>
      <point x="20" y="700"/>
      <point x="20" y="694" type="curve"/>
      <point x="20" y="689"/>
      <point x="24" y="685"/>
      <point x="32" y="685" type="curve"/>
      <point x="47" y="686"/>
      <point x="71" y="690"/>
      <point x="72" y="659" type="curve"/>
      <point x="76" y="507"/>
      <point x="76" y="193"/>
      <point x="72" y="41" type="curve"/>
      <point x="71" y="10"/>
      <point x="47" y="14"/>
      <point x="32" y="14" type="curve"/>
      <point x="24" y="14"/>
      <point x="20" y="10"/>
      <point x="20" y="5" type="curve"/>
      <point x="20" y="-1"/>
      <point x="24" y="-4"/>
      <point x="32" y="-4" type="curve"/>
      <point x="41" y="-4"/>
      <point x="70" y="0"/>
    </contour>
    <contour>
      <point x="121" y="330" type="line"/>
      <point x="130" y="330" type="line"/>
      <point x="130" y="350"/>
      <point x="136" y="350"/>
      <point x="152" y="349" type="curve" smooth="yes"/>
      <point x="196" y="345"/>
      <point x="215" y="328"/>
      <point x="215" y="250" type="curve" smooth="yes"/>
      <point x="215" y="243"/>
      <point x="218" y="238"/>
      <point x="223" y="238" type="curve" smooth="yes"/>
      <point x="227" y="238"/>
      <point x="231" y="241"/>
      <point x="231" y="249" type="curve" smooth="yes"/>
      <point x="231" y="272"/>
      <point x="220" y="298"/>
      <point x="220" y="357" type="curve" smooth="yes"/>
      <point x="220" y="420"/>
      <point x="231" y="440"/>
      <point x="231" y="461" type="curve" smooth="yes"/>
      <point x="231" y="469"/>
      <point x="227" y="472"/>
      <point x="223" y="472" type="curve" smooth="yes"/>
      <point x="218" y="472"/>
      <point x="215" y="467"/>
      <point x="215" y="460" type="curve" smooth="yes"/>
      <point x="215" y="379"/>
      <point x="196" y="369"/>
      <point x="152" y="365" type="curve" smooth="yes"/>
      <point x="136" y="364"/>
      <point x="130" y="364"/>
      <point x="130" y="388" type="curve"/>
      <point x="121" y="388" type="line"/>
    </contour>
    <contour>
      <point x="280" y="-6" type="curve" smooth="yes"/>
      <point x="285" y="-6"/>
      <point x="289" y="-3"/>
      <point x="288" y="5" type="curve" smooth="yes"/>
      <point x="286" y="20"/>
      <point x="281" y="40"/>
      <point x="281" y="80" type="curve" smooth="yes"/>
      <point x="281" y="144"/>
      <point x="286" y="175"/>
      <point x="288" y="191" type="curve" smooth="yes"/>
      <point x="289" y="200"/>
      <point x="285" y="203"/>
      <point x="280" y="203" type="curve" smooth="yes"/>
      <point x="275" y="203"/>
      <point x="272" y="198"/>
      <point x="272" y="191" type="curve" smooth="yes"/>
      <point x="272" y="34"/>
      <point x="255" y="13"/>
      <point x="147" y="13" type="curve" smooth="yes"/>
      <point x="138" y="13"/>
      <point x="134" y="14"/>
      <point x="133" y="37" type="curve"/>
      <point x="124" y="37" type="line"/>
      <point x="124" y="0" type="line"/>
      <point x="262" y="0"/>
      <point x="270" y="-6"/>
    </contour>
    <component base="_Etop" xOffset="4"/>
  </outline>
</glyph>
<glyph name="F" format="2">
  <advance width="293"/>
  <unicode hex="0046"/>
  <anchor x="149" y="0" name="bottom"/>
  <anchor x="149" y="700" name="top"/>
  <outline>
    <contour>
      <point x="101" y="0" type="curve"/>
      <point x="96" y="0" type="line"/>
      <point x="136" y="0"/>
      <point x="174" y="-4"/>
      <point x="186" y="-4" type="curve"/>
      <point x="196" y="-4"/>
      <point x="201" y="-1"/>
      <point x="201" y="5" type="curve"/>
      <point x="201" y="10"/>
      <point x="196" y="14"/>
      <point x="186" y="14" type="curve"/>
      <point x="166" y="14"/>
      <point x="135" y="10"/>
      <point x="133" y="41" type="curve"/>
      <point x="129" y="188"/>
      <point x="130" y="659"/>
      <point x="135" y="700" type="curve"/>
      <point x="101" y="700" type="line"/>
      <point x="70" y="700"/>
      <point x="41" y="704"/>
      <point x="32" y="703" type="curve"/>
      <point x="24" y="703"/>
      <point x="20" y="700"/>
      <point x="20" y="694" type="curve"/>
      <point x="20" y="689"/>
      <point x="24" y="685"/>
      <point x="32" y="685" type="curve"/>
      <point x="47" y="686"/>
      <point x="71" y="690"/>
      <point x="72" y="659" type="curve"/>
      <point x="76" y="507"/>
      <point x="76" y="193"/>
      <point x="72" y="41" type="curve"/>
      <point x="71" y="10"/>
      <point x="47" y="14"/>
      <point x="32" y="14" type="curve"/>
      <point x="24" y="14"/>
      <point x="20" y="10"/>
      <point x="20" y="5" type="curve"/>
      <point x="20" y="-1"/>
      <point x="24" y="-4"/>
      <point x="32" y="-4" type="curve"/>
      <point x="41" y="-4"/>
      <point x="70" y="0"/>
    </contour>
    <component base="_Etop" xOffset="5"/>
    <contour>
      <point x="122" y="325" type="line"/>
      <point x="131" y="325" type="line"/>
      <point x="131" y="345"/>
      <point x="137" y="345"/>
      <point x="153" y="344" type="curve" smooth="yes"/>
      <point x="209" y="340"/>
      <point x="228" y="324"/>
      <point x="228" y="245" type="curve" smooth="yes"/>
      <point x="228" y="238"/>
      <point x="231" y="233"/>
      <point x="236" y="233" type="curve" smooth="yes"/>
      <point x="240" y="233"/>
      <point x="244" y="236"/>
      <point x="244" y="244" type="curve" smooth="yes"/>
      <point x="244" y="267"/>
      <point x="233" y="293"/>
      <point x="233" y="352" type="curve" smooth="yes"/>
      <point x="233" y="415"/>
      <point x="244" y="435"/>
      <point x="244" y="456" type="curve" smooth="yes"/>
      <point x="244" y="464"/>
      <point x="240" y="467"/>
      <point x="236" y="467" type="curve" smooth="yes"/>
      <point x="231" y="467"/>
      <point x="228" y="462"/>
      <point x="228" y="455" type="curve" smooth="yes"/>
      <point x="228" y="373"/>
      <point x="209" y="364"/>
      <point x="153" y="360" type="curve" smooth="yes"/>
      <point x="137" y="359"/>
      <point x="131" y="359"/>
      <point x="131" y="383" type="curve"/>
      <point x="122" y="383" type="line"/>
    </contour>
  </outline>
</glyph>
<glyph name="G" format="2">
  <advance width="339"/>
  <unicode hex="0047"/>
  <anchor x="188" y="-20" name="bottom"/>
  <anchor x="167" y="700" name="top"/>
  <outline>
    <contour>
      <point x="30" y="328" type="curve" smooth="yes"/>
      <point x="30" y="134"/>
      <point x="93" y="-10"/>
      <point x="179" y="-10" type="curve" smooth="yes"/>
      <point x="227" y="-10"/>
      <point x="234" y="27"/>
      <point x="261" y="27" type="curve" smooth="yes"/>
      <point x="274" y="27"/>
      <point x="278" y="19"/>
      <point x="283" y="4" type="curve" smooth="yes"/>
      <point x="287" y="-6"/>
      <point x="290" y="-10"/>
      <point x="295" y="-10" type="curve" smooth="yes"/>
      <point x="300" y="-10"/>
      <point x="304" y="-5"/>
      <point x="301" y="4" type="curve" smooth="yes"/>
      <point x="289" y="39"/>
      <point x="290" y="94"/>
      <point x="290" y="144" type="curve" smooth="yes"/>
      <point x="290" y="181"/>
      <point x="291" y="228"/>
      <point x="292" y="316" type="curve"/>
      <point x="293" y="364"/>
      <point x="307" y="355"/>
      <point x="317" y="355" type="curve"/>
      <point x="321" y="355"/>
      <point x="324" y="359"/>
      <point x="324" y="364" type="curve"/>
      <point x="324" y="370"/>
      <point x="321" y="373"/>
      <point x="316" y="373" type="curve"/>
      <point x="310" y="373"/>
      <point x="293" y="369"/>
      <point x="275" y="369" type="curve"/>
      <point x="269" y="369" type="line"/>
      <point x="239" y="369"/>
      <point x="211" y="373"/>
      <point x="201" y="373" type="curve"/>
      <point x="193" y="372"/>
      <point x="188" y="369"/>
      <point x="188" y="363" type="curve"/>
      <point x="188" y="358"/>
      <point x="193" y="354"/>
      <point x="199" y="354" type="curve"/>
      <point x="216" y="355"/>
      <point x="239" y="364"/>
      <point x="240" y="316" type="curve"/>
      <point x="241" y="213"/>
      <point x="240" y="152"/>
      <point x="240" y="132" type="curve" smooth="yes"/>
      <point x="240" y="31"/>
      <point x="215" y="10"/>
      <point x="187" y="10" type="curve" smooth="yes"/>
      <point x="128" y="10"/>
      <point x="91" y="154"/>
      <point x="91" y="383" type="curve" smooth="yes"/>
      <point x="91" y="564"/>
      <point x="115" y="697"/>
      <point x="181" y="697" type="curve" smooth="yes"/>
      <point x="229" y="697"/>
      <point x="259" y="633"/>
      <point x="259" y="533" type="curve" smooth="yes"/>
      <point x="259" y="511"/>
      <point x="258" y="500"/>
      <point x="267" y="500" type="curve" smooth="yes"/>
      <point x="272" y="500"/>
      <point x="275" y="504"/>
      <point x="275" y="511" type="curve" smooth="yes"/>
      <point x="275" y="521"/>
      <point x="268" y="550"/>
      <point x="268" y="610" type="curve" smooth="yes"/>
      <point x="268" y="661"/>
      <point x="273" y="685"/>
      <point x="274" y="693" type="curve" smooth="yes"/>
      <point x="276" y="708"/>
      <point x="271" y="710"/>
      <point x="267" y="710" type="curve" smooth="yes"/>
      <point x="257" y="710"/>
      <point x="257" y="693"/>
      <point x="242" y="693" type="curve" smooth="yes"/>
      <point x="228" y="693"/>
      <point x="212" y="710"/>
      <point x="183" y="710" type="curve" smooth="yes"/>
      <point x="89" y="710"/>
      <point x="30" y="536"/>
    </contour>
  </outline>
</glyph>
<glyph name="H" format="2">
  <advance width="386"/>
  <unicode hex="0048"/>
  <anchor x="193" y="0" name="bottom"/>
  <anchor x="193" y="350" name="center"/>
  <anchor x="193" y="700" name="top"/>
  <anchor x="25" y="700" name="topleft"/>
  <outline>
    <contour>
      <point x="101" y="0" type="curve"/>
      <point x="105" y="0" type="line"/>
      <point x="135" y="0"/>
      <point x="163" y="-3"/>
      <point x="173" y="-3" type="curve"/>
      <point x="181" y="-3"/>
      <point x="186" y="0"/>
      <point x="186" y="6" type="curve"/>
      <point x="186" y="11"/>
      <point x="181" y="15"/>
      <point x="175" y="15" type="curve"/>
      <point x="158" y="14"/>
      <point x="135" y="5"/>
      <point x="133" y="53" type="curve"/>
      <point x="130" y="185"/>
      <point x="130" y="515"/>
      <point x="133" y="647" type="curve"/>
      <point x="135" y="695"/>
      <point x="157" y="685"/>
      <point x="174" y="684" type="curve"/>
      <point x="180" y="684"/>
      <point x="186" y="688"/>
      <point x="186" y="693" type="curve"/>
      <point x="186" y="699"/>
      <point x="181" y="702"/>
      <point x="173" y="702" type="curve"/>
      <point x="163" y="703"/>
      <point x="135" y="700"/>
      <point x="105" y="700" type="curve"/>
      <point x="101" y="700" type="line"/>
      <point x="70" y="700"/>
      <point x="41" y="704"/>
      <point x="32" y="703" type="curve"/>
      <point x="24" y="703"/>
      <point x="20" y="700"/>
      <point x="20" y="694" type="curve"/>
      <point x="20" y="689"/>
      <point x="24" y="685"/>
      <point x="32" y="685" type="curve"/>
      <point x="47" y="686"/>
      <point x="71" y="690"/>
      <point x="72" y="659" type="curve"/>
      <point x="76" y="507"/>
      <point x="76" y="193"/>
      <point x="72" y="41" type="curve"/>
      <point x="71" y="10"/>
      <point x="47" y="14"/>
      <point x="32" y="15" type="curve"/>
      <point x="24" y="15"/>
      <point x="20" y="11"/>
      <point x="20" y="6" type="curve"/>
      <point x="20" y="0"/>
      <point x="24" y="-3"/>
      <point x="32" y="-3" type="curve"/>
      <point x="41" y="-4"/>
      <point x="70" y="0"/>
    </contour>
    <contour>
      <point x="285" y="700" type="curve"/>
      <point x="281" y="700" type="line"/>
      <point x="251" y="700"/>
      <point x="223" y="703"/>
      <point x="213" y="702" type="curve"/>
      <point x="205" y="702"/>
      <point x="200" y="699"/>
      <point x="200" y="693" type="curve"/>
      <point x="200" y="688"/>
      <point x="206" y="684"/>
      <point x="212" y="684" type="curve"/>
      <point x="229" y="685"/>
      <point x="251" y="695"/>
      <point x="253" y="647" type="curve"/>
      <point x="256" y="515"/>
      <point x="256" y="185"/>
      <point x="253" y="53" type="curve"/>
      <point x="251" y="5"/>
      <point x="228" y="14"/>
      <point x="211" y="15" type="curve"/>
      <point x="205" y="15"/>
      <point x="200" y="11"/>
      <point x="200" y="6" type="curve"/>
      <point x="200" y="0"/>
      <point x="205" y="-3"/>
      <point x="213" y="-3" type="curve"/>
      <point x="223" y="-3"/>
      <point x="251" y="0"/>
      <point x="281" y="0" type="curve"/>
      <point x="285" y="0" type="line"/>
      <point x="316" y="0"/>
      <point x="345" y="-4"/>
      <point x="354" y="-3" type="curve"/>
      <point x="362" y="-3"/>
      <point x="366" y="0"/>
      <point x="366" y="6" type="curve"/>
      <point x="366" y="11"/>
      <point x="362" y="15"/>
      <point x="354" y="15" type="curve"/>
      <point x="339" y="14"/>
      <point x="315" y="10"/>
      <point x="314" y="41" type="curve"/>
      <point x="310" y="193"/>
      <point x="310" y="507"/>
      <point x="314" y="659" type="curve"/>
      <point x="315" y="690"/>
      <point x="339" y="685"/>
      <point x="354" y="685" type="curve"/>
      <point x="362" y="685"/>
      <point x="366" y="689"/>
      <point x="366" y="694" type="curve"/>
      <point x="366" y="700"/>
      <point x="362" y="703"/>
      <point x="354" y="703" type="curve"/>
      <point x="345" y="703"/>
      <point x="316" y="700"/>
    </contour>
    <contour>
      <point x="131" y="394" type="curve"/>
      <point x="121" y="394" type="line"/>
      <point x="121" y="336" type="line"/>
      <point x="131" y="336" type="line"/>
      <point x="131" y="358"/>
      <point x="132" y="357"/>
      <point x="183" y="357" type="curve" smooth="yes"/>
      <point x="203" y="357" type="line" smooth="yes"/>
      <point x="254" y="357"/>
      <point x="255" y="358"/>
      <point x="255" y="336" type="curve"/>
      <point x="265" y="336" type="line"/>
      <point x="265" y="394" type="line"/>
      <point x="255" y="394" type="line"/>
      <point x="255" y="372"/>
      <point x="254" y="373"/>
      <point x="203" y="373" type="curve" smooth="yes"/>
      <point x="183" y="373" type="line" smooth="yes"/>
      <point x="132" y="373"/>
      <point x="131" y="372"/>
    </contour>
  </outline>
</glyph>
<glyph name="I" format="2">
  <advance width="207"/>
  <unicode hex="0049"/>
  <anchor x="104" y="0" name="bottom"/>
  <anchor x="180" y="10" name="ogonek"/>
  <anchor x="104" y="700" name="top"/>
  <anchor x="25" y="700" name="topleft"/>
  <outline>
    <contour>
      <point x="101" y="0" type="curve"/>
      <point x="106" y="0" type="line"/>
      <point x="137" y="0"/>
      <point x="166" y="-4"/>
      <point x="175" y="-3" type="curve"/>
      <point x="183" y="-3"/>
      <point x="187" y="0"/>
      <point x="187" y="6" type="curve"/>
      <point x="187" y="11"/>
      <point x="183" y="15"/>
      <point x="175" y="15" type="curve"/>
      <point x="160" y="14"/>
      <point x="136" y="10"/>
      <point x="135" y="41" type="curve"/>
      <point x="131" y="193"/>
      <point x="131" y="507"/>
      <point x="135" y="659" type="curve"/>
      <point x="136" y="690"/>
      <point x="160" y="685"/>
      <point x="175" y="685" type="curve"/>
      <point x="183" y="685"/>
      <point x="187" y="689"/>
      <point x="187" y="694" type="curve"/>
      <point x="187" y="700"/>
      <point x="183" y="703"/>
      <point x="175" y="703" type="curve"/>
      <point x="166" y="703"/>
      <point x="137" y="700"/>
      <point x="106" y="700" type="curve"/>
      <point x="101" y="700" type="line"/>
      <point x="70" y="700"/>
      <point x="41" y="704"/>
      <point x="32" y="703" type="curve"/>
      <point x="24" y="703"/>
      <point x="20" y="700"/>
      <point x="20" y="694" type="curve"/>
      <point x="20" y="689"/>
      <point x="24" y="685"/>
      <point x="32" y="685" type="curve"/>
      <point x="47" y="686"/>
      <point x="71" y="690"/>
      <point x="72" y="659" type="curve"/>
      <point x="76" y="507"/>
      <point x="76" y="193"/>
      <point x="72" y="41" type="curve"/>
      <point x="71" y="10"/>
      <point x="47" y="14"/>
      <point x="32" y="15" type="curve"/>
      <point x="24" y="15"/>
      <point x="20" y="11"/>
      <point x="20" y="6" type="curve"/>
      <point x="20" y="0"/>
      <point x="24" y="-3"/>
      <point x="32" y="-3" type="curve"/>
      <point x="41" y="-4"/>
      <point x="70" y="0"/>
    </contour>
  </outline>
</glyph>
<glyph name="J" format="2">
  <advance width="249"/>
  <unicode hex="004A"/>
  <anchor x="130" y="0" name="bottom"/>
  <anchor x="130" y="700" name="top"/>
  <outline>
    <contour>
      <point x="188" y="149" type="curve" smooth="yes"/>
      <point x="188" y="209"/>
      <point x="188" y="473"/>
      <point x="188" y="659" type="curve"/>
      <point x="188" y="690"/>
      <point x="212" y="686"/>
      <point x="227" y="686" type="curve"/>
      <point x="235" y="686"/>
      <point x="239" y="690"/>
      <point x="239" y="695" type="curve"/>
      <point x="239" y="701"/>
      <point x="235" y="704"/>
      <point x="227" y="704" type="curve"/>
      <point x="218" y="704"/>
      <point x="189" y="700"/>
      <point x="158" y="700" type="curve"/>
      <point x="167" y="700" type="line"/>
      <point x="127" y="700"/>
      <point x="89" y="703"/>
      <point x="77" y="703" type="curve"/>
      <point x="67" y="703"/>
      <point x="62" y="700"/>
      <point x="62" y="694" type="curve"/>
      <point x="62" y="689"/>
      <point x="67" y="685"/>
      <point x="78" y="685" type="curve"/>
      <point x="97" y="685"/>
      <point x="128" y="690"/>
      <point x="129" y="659" type="curve"/>
      <point x="132" y="494"/>
      <point x="132" y="199"/>
      <point x="132" y="132" type="curve" smooth="yes"/>
      <point x="132" y="23"/>
      <point x="122" y="6"/>
      <point x="90" y="6" type="curve" smooth="yes"/>
      <point x="38" y="6"/>
      <point x="54" y="86"/>
      <point x="54" y="112" type="curve" smooth="yes"/>
      <point x="54" y="136"/>
      <point x="43" y="145"/>
      <point x="29" y="145" type="curve" smooth="yes"/>
      <point x="10" y="145"/>
      <point x="0" y="125"/>
      <point x="0" y="91" type="curve" smooth="yes"/>
      <point x="0" y="30"/>
      <point x="37" y="-9"/>
      <point x="92" y="-9" type="curve" smooth="yes"/>
      <point x="158" y="-9"/>
      <point x="188" y="38"/>
    </contour>
  </outline>
</glyph>
<glyph name="K" format="2">
  <advance width="394"/>
  <unicode hex="004B"/>
  <anchor x="187" y="0" name="bottom"/>
  <anchor x="187" y="700" name="top"/>
  <outline>
    <contour>
      <point x="303" y="0" type="curve"/>
      <point x="313" y="0" type="line"/>
      <point x="344" y="0"/>
      <point x="373" y="-4"/>
      <point x="382" y="-4" type="curve"/>
      <point x="390" y="-4"/>
      <point x="394" y="-1"/>
      <point x="394" y="5" type="curve"/>
      <point x="394" y="10"/>
      <point x="390" y="14"/>
      <point x="382" y="14" type="curve"/>
      <point x="367" y="14"/>
      <point x="339" y="9"/>
      <point x="328" y="38" type="curve"/>
      <point x="294" y="128"/>
      <point x="259" y="237"/>
      <point x="199" y="417" type="curve" smooth="yes"/>
      <point x="197" y="423"/>
      <point x="199" y="429"/>
      <point x="203" y="439" type="curve" smooth="yes"/>
      <point x="223" y="489"/>
      <point x="254" y="553"/>
      <point x="300" y="662" type="curve"/>
      <point x="312" y="691"/>
      <point x="340" y="686"/>
      <point x="355" y="686" type="curve"/>
      <point x="363" y="686"/>
      <point x="367" y="690"/>
      <point x="367" y="695" type="curve"/>
      <point x="367" y="701"/>
      <point x="363" y="704"/>
      <point x="355" y="704" type="curve"/>
      <point x="346" y="704"/>
      <point x="317" y="700"/>
      <point x="286" y="700" type="curve"/>
      <point x="296" y="700" type="line"/>
      <point x="266" y="700"/>
      <point x="238" y="704"/>
      <point x="228" y="704" type="curve"/>
      <point x="220" y="704"/>
      <point x="215" y="701"/>
      <point x="215" y="695" type="curve"/>
      <point x="215" y="690"/>
      <point x="220" y="686"/>
      <point x="226" y="686" type="curve"/>
      <point x="243" y="686"/>
      <point x="265" y="695"/>
      <point x="251" y="649" type="curve"/>
      <point x="214" y="527"/>
      <point x="171" y="420"/>
      <point x="141" y="340" type="curve" smooth="yes"/>
      <point x="140" y="337"/>
      <point x="138" y="334"/>
      <point x="135" y="334" type="curve" smooth="yes"/>
      <point x="130" y="334"/>
      <point x="131" y="340"/>
      <point x="131" y="348" type="curve"/>
      <point x="102" y="356" type="line"/>
      <point x="103" y="257" type="line"/>
      <point x="131" y="257" type="line"/>
      <point x="131" y="268"/>
      <point x="135" y="276"/>
      <point x="137" y="282" type="curve" smooth="yes"/>
      <point x="161" y="341" type="line" smooth="yes"/>
      <point x="163" y="345"/>
      <point x="164" y="346"/>
      <point x="166" y="346" type="curve" smooth="yes"/>
      <point x="168" y="346"/>
      <point x="168" y="346"/>
      <point x="170" y="341" type="curve" smooth="yes"/>
      <point x="205" y="231"/>
      <point x="236" y="138"/>
      <point x="260" y="51" type="curve"/>
      <point x="272" y="5"/>
      <point x="250" y="14"/>
      <point x="233" y="14" type="curve"/>
      <point x="227" y="14"/>
      <point x="222" y="10"/>
      <point x="222" y="5" type="curve"/>
      <point x="222" y="-1"/>
      <point x="227" y="-4"/>
      <point x="235" y="-4" type="curve"/>
      <point x="245" y="-4"/>
      <point x="273" y="0"/>
    </contour>
    <contour>
      <point x="71" y="0" type="curve"/>
      <point x="71" y="41" type="line"/>
      <point x="71" y="10"/>
      <point x="47" y="14"/>
      <point x="32" y="14" type="curve"/>
      <point x="24" y="14"/>
      <point x="20" y="10"/>
      <point x="20" y="5" type="curve"/>
      <point x="20" y="-1"/>
      <point x="24" y="-4"/>
      <point x="32" y="-4" type="curve"/>
      <point x="41" y="-4"/>
      <point x="70" y="0"/>
      <point x="101" y="0" type="curve"/>
      <point x="105" y="0" type="line"/>
      <point x="135" y="0"/>
      <point x="163" y="-4"/>
      <point x="173" y="-4" type="curve"/>
      <point x="181" y="-4"/>
      <point x="186" y="-1"/>
      <point x="186" y="5" type="curve"/>
      <point x="186" y="10"/>
      <point x="181" y="14"/>
      <point x="175" y="14" type="curve"/>
      <point x="158" y="14"/>
      <point x="135" y="5"/>
      <point x="133" y="53" type="curve"/>
      <point x="130" y="185"/>
      <point x="130" y="515"/>
      <point x="133" y="647" type="curve"/>
      <point x="135" y="695"/>
      <point x="157" y="685"/>
      <point x="174" y="684" type="curve"/>
      <point x="180" y="684"/>
      <point x="186" y="688"/>
      <point x="186" y="693" type="curve"/>
      <point x="186" y="699"/>
      <point x="181" y="702"/>
      <point x="173" y="702" type="curve"/>
      <point x="163" y="703"/>
      <point x="135" y="700"/>
      <point x="105" y="700" type="curve"/>
      <point x="101" y="700" type="line"/>
      <point x="70" y="700"/>
      <point x="41" y="704"/>
      <point x="32" y="703" type="curve"/>
      <point x="24" y="703"/>
      <point x="20" y="700"/>
      <point x="20" y="694" type="curve"/>
      <point x="20" y="689"/>
      <point x="24" y="685"/>
      <point x="32" y="685" type="curve"/>
      <point x="47" y="686"/>
      <point x="71" y="690"/>
      <point x="72" y="659" type="curve"/>
      <point x="76" y="492"/>
      <point x="76" y="128"/>
    </contour>
  </outline>
</glyph>
<glyph name="L" format="2">
  <advance width="293"/>
  <unicode hex="004C"/>
  <anchor x="149" y="0" name="bottom"/>
  <anchor x="200" y="388" name="center"/>
  <anchor x="119" y="700" name="top"/>
  <anchor x="273" y="700" name="topright"/>
  <outline>
    <contour>
      <point x="101" y="0" type="curve"/>
      <point x="135" y="0" type="line"/>
      <point x="130" y="41"/>
      <point x="129" y="512"/>
      <point x="133" y="659" type="curve"/>
      <point x="135" y="690"/>
      <point x="166" y="686"/>
      <point x="186" y="686" type="curve"/>
      <point x="196" y="686"/>
      <point x="201" y="690"/>
      <point x="201" y="695" type="curve"/>
      <point x="201" y="701"/>
      <point x="196" y="704"/>
      <point x="186" y="704" type="curve"/>
      <point x="174" y="704"/>
      <point x="136" y="700"/>
      <point x="96" y="700" type="curve"/>
      <point x="101" y="700" type="line"/>
      <point x="70" y="700"/>
      <point x="41" y="704"/>
      <point x="32" y="703" type="curve"/>
      <point x="24" y="703"/>
      <point x="20" y="700"/>
      <point x="20" y="694" type="curve"/>
      <point x="20" y="689"/>
      <point x="24" y="685"/>
      <point x="32" y="685" type="curve"/>
      <point x="47" y="686"/>
      <point x="71" y="690"/>
      <point x="72" y="659" type="curve"/>
      <point x="76" y="507"/>
      <point x="76" y="193"/>
      <point x="72" y="41" type="curve"/>
      <point x="71" y="10"/>
      <point x="47" y="14"/>
      <point x="32" y="14" type="curve"/>
      <point x="24" y="14"/>
      <point x="20" y="10"/>
      <point x="20" y="5" type="curve"/>
      <point x="20" y="-1"/>
      <point x="24" y="-4"/>
      <point x="32" y="-4" type="curve"/>
      <point x="41" y="-4"/>
      <point x="70" y="0"/>
    </contour>
    <contour>
      <point x="280" y="-6" type="curve" smooth="yes"/>
      <point x="285" y="-6"/>
      <point x="289" y="-3"/>
      <point x="288" y="5" type="curve" smooth="yes"/>
      <point x="286" y="20"/>
      <point x="281" y="40"/>
      <point x="281" y="80" type="curve" smooth="yes"/>
      <point x="281" y="144"/>
      <point x="286" y="175"/>
      <point x="288" y="208" type="curve" smooth="yes"/>
      <point x="289" y="217"/>
      <point x="285" y="220"/>
      <point x="280" y="220" type="curve" smooth="yes"/>
      <point x="275" y="220"/>
      <point x="272" y="215"/>
      <point x="272" y="208" type="curve" smooth="yes"/>
      <point x="272" y="34"/>
      <point x="255" y="13"/>
      <point x="152" y="13" type="curve" smooth="yes"/>
      <point x="136" y="13"/>
      <point x="133" y="24"/>
      <point x="133" y="45" type="curve"/>
      <point x="124" y="45" type="line"/>
      <point x="124" y="0" type="line"/>
      <point x="262" y="0"/>
      <point x="270" y="-6"/>
    </contour>
  </outline>
</glyph>
<glyph name="M" format="2">
  <advance width="431"/>
  <unicode hex="004D"/>
  <anchor x="213" y="0" name="bottom"/>
  <anchor x="213" y="700" name="top"/>
  <outline>
    <contour>
      <point x="90" y="700" type="curve"/>
      <point x="86" y="700" type="line"/>
      <point x="55" y="700"/>
      <point x="26" y="704"/>
      <point x="17" y="704" type="curve"/>
      <point x="9" y="704"/>
      <point x="5" y="701"/>
      <point x="5" y="695" type="curve"/>
      <point x="5" y="690"/>
      <point x="9" y="686"/>
      <point x="17" y="686" type="curve"/>
      <point x="32" y="686"/>
      <point x="58" y="690"/>
      <point x="63" y="660" type="curve"/>
      <point x="69" y="629" type="line" smooth="yes"/>
      <point x="69" y="627"/>
      <point x="70" y="620"/>
      <point x="70" y="616" type="curve" smooth="yes"/>
      <point x="75" y="580"/>
      <point x="73" y="176"/>
      <point x="68" y="41" type="curve"/>
      <point x="67" y="10"/>
      <point x="42" y="14"/>
      <point x="27" y="14" type="curve"/>
      <point x="19" y="14"/>
      <point x="15" y="10"/>
      <point x="15" y="5" type="curve"/>
      <point x="15" y="-1"/>
      <point x="19" y="-4"/>
      <point x="27" y="-4" type="curve"/>
      <point x="36" y="-4"/>
      <point x="65" y="0"/>
      <point x="96" y="0" type="curve"/>
      <point x="78" y="0" type="line"/>
      <point x="108" y="0"/>
      <point x="136" y="-3"/>
      <point x="146" y="-3" type="curve"/>
      <point x="154" y="-3"/>
      <point x="159" y="0"/>
      <point x="159" y="6" type="curve"/>
      <point x="159" y="11"/>
      <point x="154" y="15"/>
      <point x="148" y="15" type="curve"/>
      <point x="131" y="14"/>
      <point x="108" y="5"/>
      <point x="106" y="53" type="curve"/>
      <point x="98" y="237"/>
      <point x="91" y="402"/>
      <point x="90" y="521" type="curve" smooth="yes"/>
      <point x="90" y="524"/>
      <point x="91" y="526"/>
      <point x="93" y="526" type="curve" smooth="yes"/>
      <point x="95" y="526"/>
      <point x="96" y="525"/>
      <point x="97" y="521" type="curve" smooth="yes"/>
      <point x="128" y="361"/>
      <point x="169" y="157"/>
      <point x="200" y="-9" type="curve" smooth="yes"/>
      <point x="201" y="-12"/>
      <point x="203" y="-12"/>
      <point x="205" y="-12" type="curve" smooth="yes"/>
      <point x="211" y="-12" type="line" smooth="yes"/>
      <point x="213" y="-12"/>
      <point x="214" y="-12"/>
      <point x="215" y="-9" type="curve"/>
      <point x="261" y="277"/>
      <point x="273" y="349"/>
      <point x="302" y="522" type="curve" smooth="yes"/>
      <point x="303" y="526"/>
      <point x="304" y="527"/>
      <point x="306" y="527" type="curve" smooth="yes"/>
      <point x="308" y="527"/>
      <point x="309" y="525"/>
      <point x="309" y="522" type="curve" smooth="yes"/>
      <point x="311" y="380"/>
      <point x="309" y="276"/>
      <point x="306" y="53" type="curve"/>
      <point x="305" y="5"/>
      <point x="282" y="14"/>
      <point x="265" y="14" type="curve"/>
      <point x="259" y="14"/>
      <point x="254" y="10"/>
      <point x="254" y="5" type="curve"/>
      <point x="254" y="-1"/>
      <point x="259" y="-4"/>
      <point x="267" y="-4" type="curve"/>
      <point x="277" y="-4"/>
      <point x="305" y="0"/>
      <point x="335" y="0" type="curve"/>
      <point x="340" y="0" type="line"/>
      <point x="371" y="0"/>
      <point x="400" y="-4"/>
      <point x="409" y="-4" type="curve"/>
      <point x="417" y="-4"/>
      <point x="421" y="-1"/>
      <point x="421" y="5" type="curve"/>
      <point x="421" y="10"/>
      <point x="417" y="14"/>
      <point x="409" y="14" type="curve"/>
      <point x="394" y="14"/>
      <point x="370" y="10"/>
      <point x="368" y="41" type="curve"/>
      <point x="362" y="193"/>
      <point x="357" y="507"/>
      <point x="358" y="659" type="curve"/>
      <point x="359" y="690"/>
      <point x="383" y="686"/>
      <point x="398" y="686" type="curve"/>
      <point x="406" y="686"/>
      <point x="410" y="690"/>
      <point x="410" y="695" type="curve"/>
      <point x="410" y="701"/>
      <point x="406" y="704"/>
      <point x="398" y="704" type="curve"/>
      <point x="389" y="704"/>
      <point x="360" y="700"/>
      <point x="329" y="700" type="curve"/>
      <point x="324" y="700" type="line"/>
      <point x="294" y="700"/>
      <point x="266" y="704"/>
      <point x="256" y="704" type="curve"/>
      <point x="248" y="704"/>
      <point x="243" y="701"/>
      <point x="243" y="695" type="curve"/>
      <point x="243" y="690"/>
      <point x="248" y="686"/>
      <point x="254" y="686" type="curve"/>
      <point x="271" y="686"/>
      <point x="293" y="695"/>
      <point x="289" y="647" type="curve"/>
      <point x="267" y="445"/>
      <point x="243" y="279"/>
      <point x="226" y="164" type="curve" smooth="yes"/>
      <point x="225" y="159"/>
      <point x="224" y="157"/>
      <point x="222" y="157" type="curve" smooth="yes"/>
      <point x="220" y="157"/>
      <point x="219" y="159"/>
      <point x="218" y="164" type="curve" smooth="yes"/>
      <point x="197" y="283"/>
      <point x="165" y="442"/>
      <point x="129" y="648" type="curve"/>
      <point x="121" y="695"/>
      <point x="143" y="686"/>
      <point x="160" y="686" type="curve"/>
      <point x="166" y="686"/>
      <point x="171" y="690"/>
      <point x="171" y="695" type="curve"/>
      <point x="171" y="701"/>
      <point x="166" y="704"/>
      <point x="158" y="704" type="curve"/>
      <point x="148" y="704"/>
      <point x="120" y="700"/>
    </contour>
  </outline>
</glyph>
<glyph name="N" format="2">
  <advance width="380"/>
  <unicode hex="004E"/>
  <anchor x="188" y="0" name="bottom"/>
  <anchor x="188" y="700" name="top"/>
  <outline>
    <contour>
      <point x="102" y="0" type="curve"/>
      <point x="83" y="0" type="line"/>
      <point x="113" y="0"/>
      <point x="141" y="-4"/>
      <point x="151" y="-4" type="curve"/>
      <point x="159" y="-4"/>
      <point x="164" y="-1"/>
      <point x="164" y="5" type="curve"/>
      <point x="164" y="10"/>
      <point x="159" y="14"/>
      <point x="153" y="14" type="curve"/>
      <point x="136" y="14"/>
      <point x="113" y="5"/>
      <point x="110" y="53" type="curve"/>
      <point x="102" y="244"/>
      <point x="101" y="393"/>
      <point x="99" y="528" type="curve" smooth="yes"/>
      <point x="99" y="532"/>
      <point x="100" y="534"/>
      <point x="103" y="534" type="curve" smooth="yes"/>
      <point x="104" y="534"/>
      <point x="106" y="533"/>
      <point x="107" y="529" type="curve" smooth="yes"/>
      <point x="147" y="389"/>
      <point x="187" y="245"/>
      <point x="240" y="51" type="curve"/>
      <point x="253" y="5"/>
      <point x="236" y="14"/>
      <point x="222" y="14" type="curve"/>
      <point x="217" y="14"/>
      <point x="213" y="10"/>
      <point x="213" y="5" type="curve"/>
      <point x="213" y="-1"/>
      <point x="217" y="-4"/>
      <point x="224" y="-4" type="curve"/>
      <point x="232" y="-4"/>
      <point x="254" y="0"/>
      <point x="278" y="0" type="curve"/>
      <point x="275" y="0" type="line"/>
      <point x="306" y="0"/>
      <point x="335" y="-4"/>
      <point x="344" y="-4" type="curve"/>
      <point x="352" y="-4"/>
      <point x="356" y="-1"/>
      <point x="356" y="5" type="curve"/>
      <point x="356" y="10"/>
      <point x="352" y="14"/>
      <point x="344" y="14" type="curve"/>
      <point x="329" y="14"/>
      <point x="304" y="10"/>
      <point x="303" y="41" type="curve"/>
      <point x="296" y="193"/>
      <point x="298" y="507"/>
      <point x="306" y="659" type="curve"/>
      <point x="308" y="690"/>
      <point x="333" y="686"/>
      <point x="348" y="686" type="curve"/>
      <point x="356" y="686"/>
      <point x="360" y="690"/>
      <point x="360" y="695" type="curve"/>
      <point x="360" y="701"/>
      <point x="356" y="704"/>
      <point x="348" y="704" type="curve"/>
      <point x="339" y="704"/>
      <point x="310" y="700"/>
      <point x="279" y="700" type="curve"/>
      <point x="294" y="700" type="line"/>
      <point x="264" y="700"/>
      <point x="236" y="704"/>
      <point x="226" y="704" type="curve"/>
      <point x="218" y="704"/>
      <point x="213" y="701"/>
      <point x="213" y="695" type="curve"/>
      <point x="213" y="690"/>
      <point x="218" y="686"/>
      <point x="224" y="686" type="curve"/>
      <point x="241" y="686"/>
      <point x="264" y="695"/>
      <point x="267" y="647" type="curve"/>
      <point x="275" y="476"/>
      <point x="279" y="267"/>
      <point x="283" y="118" type="curve" smooth="yes"/>
      <point x="283" y="113"/>
      <point x="283" y="111"/>
      <point x="280" y="111" type="curve" smooth="yes"/>
      <point x="278" y="111"/>
      <point x="277" y="115"/>
      <point x="276" y="118" type="curve" smooth="yes"/>
      <point x="207" y="369"/>
      <point x="166" y="513"/>
      <point x="131" y="649" type="curve"/>
      <point x="119" y="695"/>
      <point x="136" y="686"/>
      <point x="150" y="686" type="curve"/>
      <point x="155" y="686"/>
      <point x="159" y="690"/>
      <point x="159" y="695" type="curve"/>
      <point x="159" y="701"/>
      <point x="155" y="704"/>
      <point x="148" y="704" type="curve"/>
      <point x="140" y="704"/>
      <point x="118" y="700"/>
      <point x="94" y="700" type="curve"/>
      <point x="86" y="700" type="line"/>
      <point x="55" y="700"/>
      <point x="26" y="704"/>
      <point x="17" y="704" type="curve"/>
      <point x="9" y="704"/>
      <point x="5" y="701"/>
      <point x="5" y="695" type="curve"/>
      <point x="5" y="690"/>
      <point x="9" y="686"/>
      <point x="17" y="686" type="curve"/>
      <point x="32" y="686"/>
      <point x="59" y="690"/>
      <point x="66" y="660" type="curve"/>
      <point x="79" y="613" type="line" smooth="yes"/>
      <point x="80" y="610"/>
      <point x="81" y="605"/>
      <point x="81" y="602" type="curve" smooth="yes"/>
      <point x="81" y="543"/>
      <point x="79" y="169"/>
      <point x="74" y="41" type="curve"/>
      <point x="73" y="10"/>
      <point x="48" y="14"/>
      <point x="33" y="14" type="curve"/>
      <point x="25" y="14"/>
      <point x="21" y="10"/>
      <point x="21" y="5" type="curve"/>
      <point x="21" y="-1"/>
      <point x="25" y="-4"/>
      <point x="33" y="-4" type="curve"/>
      <point x="42" y="-4"/>
      <point x="71" y="0"/>
    </contour>
  </outline>
</glyph>
<glyph name="O" format="2">
  <advance width="345"/>
  <unicode hex="004F"/>
  <anchor x="173" y="0" name="bottom"/>
  <anchor x="173" y="350" name="center"/>
  <anchor x="307" y="10" name="ogonek"/>
  <anchor x="173" y="700" name="top"/>
  <anchor x="25" y="700" name="topleft"/>
  <anchor x="320" y="700" name="topright"/>
  <outline>
    <contour>
      <point x="176" y="-10" type="curve" smooth="yes"/>
      <point x="262" y="-10"/>
      <point x="320" y="157"/>
      <point x="315" y="366" type="curve" smooth="yes"/>
      <point x="310" y="570"/>
      <point x="247" y="710"/>
      <point x="169" y="710" type="curve" smooth="yes"/>
      <point x="85" y="710"/>
      <point x="26" y="547"/>
      <point x="30" y="340" type="curve" smooth="yes"/>
      <point x="33" y="134"/>
      <point x="96" y="-10"/>
    </contour>
    <contour>
      <point x="94" y="382" type="curve" smooth="yes"/>
      <point x="89" y="577"/>
      <point x="112" y="694"/>
      <point x="156" y="694" type="curve" smooth="yes"/>
      <point x="206" y="694"/>
      <point x="246" y="549"/>
      <point x="251" y="314" type="curve" smooth="yes"/>
      <point x="256" y="121"/>
      <point x="234" y="10"/>
      <point x="189" y="10" type="curve" smooth="yes"/>
      <point x="139" y="10"/>
      <point x="99" y="148"/>
    </contour>
  </outline>
</glyph>
<glyph name="P" format="2">
  <advance width="345"/>
  <unicode hex="0050"/>
  <anchor x="160" y="0" name="bottom"/>
  <anchor x="160" y="700" name="top"/>
  <outline>
    <contour>
      <point x="126" y="161" type="line"/>
      <point x="138" y="161" type="line"/>
      <point x="138" y="176"/>
      <point x="139" y="176"/>
      <point x="147" y="177" type="curve" smooth="yes"/>
      <point x="246" y="195"/>
      <point x="315" y="309"/>
      <point x="315" y="452" type="curve" smooth="yes"/>
      <point x="315" y="602"/>
      <point x="242" y="705"/>
      <point x="137" y="701" type="curve" smooth="yes"/>
      <point x="112" y="700"/>
      <point x="107" y="700"/>
      <point x="95" y="700" type="curve"/>
      <point x="126" y="681" type="line"/>
      <point x="134" y="681" type="line"/>
      <point x="134" y="686"/>
      <point x="136" y="688"/>
      <point x="141" y="688" type="curve" smooth="yes"/>
      <point x="213" y="690"/>
      <point x="254" y="604"/>
      <point x="254" y="449" type="curve" smooth="yes"/>
      <point x="254" y="307"/>
      <point x="214" y="209"/>
      <point x="149" y="194" type="curve" smooth="yes"/>
      <point x="138" y="192"/>
      <point x="138" y="194"/>
      <point x="138" y="206" type="curve"/>
      <point x="126" y="206" type="line"/>
    </contour>
    <contour>
      <point x="111" y="0" type="curve"/>
      <point x="115" y="0" type="line"/>
      <point x="146" y="0"/>
      <point x="175" y="-3"/>
      <point x="184" y="-3" type="curve"/>
      <point x="192" y="-3"/>
      <point x="196" y="1"/>
      <point x="196" y="7" type="curve"/>
      <point x="196" y="12"/>
      <point x="192" y="15"/>
      <point x="184" y="15" type="curve"/>
      <point x="169" y="15"/>
      <point x="144" y="10"/>
      <point x="142" y="41" type="curve"/>
      <point x="136" y="188"/>
      <point x="130" y="659"/>
      <point x="135" y="700" type="curve"/>
      <point x="101" y="700" type="line"/>
      <point x="70" y="700"/>
      <point x="41" y="703"/>
      <point x="32" y="703" type="curve"/>
      <point x="24" y="703"/>
      <point x="20" y="700"/>
      <point x="20" y="694" type="curve"/>
      <point x="20" y="689"/>
      <point x="24" y="685"/>
      <point x="32" y="685" type="curve"/>
      <point x="47" y="685"/>
      <point x="71" y="690"/>
      <point x="73" y="659" type="curve"/>
      <point x="78" y="507"/>
      <point x="83" y="193"/>
      <point x="82" y="41" type="curve"/>
      <point x="81" y="10"/>
      <point x="57" y="14"/>
      <point x="42" y="14" type="curve"/>
      <point x="34" y="14"/>
      <point x="30" y="10"/>
      <point x="30" y="5" type="curve"/>
      <point x="30" y="-1"/>
      <point x="34" y="-4"/>
      <point x="42" y="-4" type="curve"/>
      <point x="51" y="-4"/>
      <point x="80" y="0"/>
    </contour>
  </outline>
</glyph>
<glyph name="Q" format="2">
  <advance width="356"/>
  <unicode hex="0051"/>
  <anchor x="178" y="0" name="bottom"/>
  <anchor x="178" y="700" name="top"/>
  <outline>
    <contour>
      <point x="257" y="-23" type="curve" smooth="yes"/>
      <point x="291" y="-23"/>
      <point x="311" y="3"/>
      <point x="324" y="56" type="curve" smooth="yes"/>
      <point x="326" y="65"/>
      <point x="329" y="79"/>
      <point x="320" y="79" type="curve" smooth="yes"/>
      <point x="314" y="79"/>
      <point x="312" y="74"/>
      <point x="310" y="62" type="curve" smooth="yes"/>
      <point x="304" y="30"/>
      <point x="293" y="9"/>
      <point x="271" y="9" type="curve" smooth="yes"/>
      <point x="260" y="9"/>
      <point x="253" y="14"/>
      <point x="248" y="23" type="curve" smooth="yes"/>
      <point x="245" y="29"/>
      <point x="246" y="30"/>
      <point x="249" y="34" type="curve" smooth="yes"/>
      <point x="293" y="94"/>
      <point x="319" y="216"/>
      <point x="319" y="351" type="curve" smooth="yes"/>
      <point x="319" y="570"/>
      <point x="251" y="709"/>
      <point x="173" y="709" type="curve" smooth="yes"/>
      <point x="89" y="709"/>
      <point x="34" y="547"/>
      <point x="34" y="353" type="curve" smooth="yes"/>
      <point x="34" y="284"/>
      <point x="41" y="225"/>
      <point x="50" y="179" type="curve" smooth="yes"/>
      <point x="52" y="170"/>
      <point x="52" y="169"/>
      <point x="45" y="167" type="curve" smooth="yes"/>
      <point x="38" y="164"/>
      <point x="30" y="160"/>
      <point x="30" y="155" type="curve" smooth="yes"/>
      <point x="30" y="152"/>
      <point x="32" y="150"/>
      <point x="36" y="150" type="curve" smooth="yes"/>
      <point x="39" y="150"/>
      <point x="44" y="151"/>
      <point x="50" y="154" type="curve" smooth="yes"/>
      <point x="55" y="156"/>
      <point x="55" y="157"/>
      <point x="57" y="148" type="curve" smooth="yes"/>
      <point x="82" y="49"/>
      <point x="129" y="-9"/>
      <point x="180" y="-9" type="curve" smooth="yes"/>
      <point x="191" y="-9"/>
      <point x="201" y="-6"/>
      <point x="210" y="-1" type="curve" smooth="yes"/>
      <point x="216" y="2"/>
      <point x="216" y="1"/>
      <point x="219" y="-3" type="curve" smooth="yes"/>
      <point x="227" y="-15"/>
      <point x="238" y="-23"/>
    </contour>
    <contour>
      <point x="198" y="11" type="curve" smooth="yes"/>
      <point x="163" y="11"/>
      <point x="132" y="63"/>
      <point x="116" y="155" type="curve" smooth="yes"/>
      <point x="113" y="171"/>
      <point x="114" y="172"/>
      <point x="123" y="170" type="curve" smooth="yes"/>
      <point x="153" y="163"/>
      <point x="173" y="128"/>
      <point x="203" y="28" type="curve" smooth="yes"/>
      <point x="207" y="15"/>
      <point x="208" y="11"/>
      <point x="200" y="11" type="curve" smooth="yes"/>
      <point x="199" y="11"/>
      <point x="199" y="11"/>
    </contour>
    <contour>
      <point x="236" y="63" type="curve" smooth="yes"/>
      <point x="233" y="63"/>
      <point x="233" y="78"/>
      <point x="225" y="100" type="curve" smooth="yes"/>
      <point x="201" y="162"/>
      <point x="176" y="183"/>
      <point x="124" y="183" type="curve" smooth="yes"/>
      <point x="123" y="183"/>
      <point x="122" y="183"/>
      <point x="121" y="183" type="curve" smooth="yes"/>
      <point x="112" y="183"/>
      <point x="112" y="185"/>
      <point x="111" y="193" type="curve" smooth="yes"/>
      <point x="102" y="253"/>
      <point x="98" y="326"/>
      <point x="98" y="406" type="curve" smooth="yes"/>
      <point x="98" y="577"/>
      <point x="116" y="693"/>
      <point x="160" y="693" type="curve" smooth="yes"/>
      <point x="210" y="693"/>
      <point x="255" y="549"/>
      <point x="255" y="285" type="curve" smooth="yes"/>
      <point x="255" y="197"/>
      <point x="251" y="127"/>
      <point x="242" y="81" type="curve" smooth="yes"/>
      <point x="239" y="67"/>
      <point x="238" y="63"/>
    </contour>
  </outline>
</glyph>
<glyph name="R" format="2">
  <advance width="377"/>
  <unicode hex="0052"/>
  <anchor x="212" y="0" name="bottom"/>
  <anchor x="169" y="700" name="top"/>
  <outline>
    <contour>
      <point x="89" y="699" type="curve"/>
      <point x="89" y="681" type="line"/>
      <point x="134" y="681" type="line"/>
      <point x="134" y="685"/>
      <point x="136" y="687"/>
      <point x="141" y="687" type="curve" smooth="yes"/>
      <point x="218" y="689"/>
      <point x="261" y="605"/>
      <point x="261" y="453" type="curve" smooth="yes"/>
      <point x="261" y="318"/>
      <point x="218" y="222"/>
      <point x="150" y="203" type="curve" smooth="yes"/>
      <point x="140" y="200"/>
      <point x="137" y="203"/>
      <point x="137" y="211" type="curve"/>
      <point x="123" y="211" type="line"/>
      <point x="123" y="174" type="line"/>
      <point x="138" y="174" type="line"/>
      <point x="138" y="183"/>
      <point x="139" y="187"/>
      <point x="150" y="186" type="curve" smooth="yes"/>
      <point x="214" y="177"/>
      <point x="221" y="84"/>
      <point x="247" y="32" type="curve" smooth="yes"/>
      <point x="262" y="2"/>
      <point x="281" y="-10"/>
      <point x="309" y="-10" type="curve" smooth="yes"/>
      <point x="342" y="-10"/>
      <point x="362" y="17"/>
      <point x="375" y="70" type="curve" smooth="yes"/>
      <point x="377" y="79"/>
      <point x="380" y="93"/>
      <point x="371" y="93" type="curve" smooth="yes"/>
      <point x="365" y="93"/>
      <point x="363" y="88"/>
      <point x="361" y="75" type="curve" smooth="yes"/>
      <point x="356" y="49"/>
      <point x="351" y="30"/>
      <point x="331" y="30" type="curve" smooth="yes"/>
      <point x="315" y="30"/>
      <point x="308" y="37"/>
      <point x="293" y="77" type="curve" smooth="yes"/>
      <point x="264" y="157"/>
      <point x="239" y="190"/>
      <point x="182" y="193" type="curve" smooth="yes"/>
      <point x="179" y="193"/>
      <point x="178" y="194"/>
      <point x="178" y="196" type="curve" smooth="yes"/>
      <point x="178" y="197"/>
      <point x="179" y="198"/>
      <point x="182" y="199" type="curve" smooth="yes"/>
      <point x="268" y="230"/>
      <point x="322" y="329"/>
      <point x="322" y="456" type="curve" smooth="yes"/>
      <point x="322" y="600"/>
      <point x="240" y="706"/>
      <point x="138" y="701" type="curve" smooth="yes"/>
      <point x="120" y="700"/>
      <point x="104" y="699"/>
      <point x="92" y="699" type="curve" smooth="yes"/>
      <point x="91" y="699"/>
      <point x="90" y="699"/>
    </contour>
    <contour>
      <point x="110" y="0" type="curve"/>
      <point x="114" y="0" type="line"/>
      <point x="144" y="0"/>
      <point x="172" y="-4"/>
      <point x="182" y="-4" type="curve"/>
      <point x="190" y="-4"/>
      <point x="195" y="-1"/>
      <point x="195" y="5" type="curve"/>
      <point x="195" y="10"/>
      <point x="190" y="14"/>
      <point x="184" y="14" type="curve"/>
      <point x="167" y="14"/>
      <point x="144" y="5"/>
      <point x="141" y="53" type="curve"/>
      <point x="135" y="212"/>
      <point x="130" y="660"/>
      <point x="135" y="700" type="curve"/>
      <point x="101" y="700" type="line"/>
      <point x="70" y="700"/>
      <point x="41" y="703"/>
      <point x="32" y="703" type="curve"/>
      <point x="24" y="703"/>
      <point x="20" y="700"/>
      <point x="20" y="694" type="curve"/>
      <point x="20" y="689"/>
      <point x="24" y="685"/>
      <point x="32" y="685" type="curve"/>
      <point x="47" y="686"/>
      <point x="71" y="690"/>
      <point x="73" y="659" type="curve"/>
      <point x="78" y="507"/>
      <point x="82" y="193"/>
      <point x="81" y="41" type="curve"/>
      <point x="80" y="10"/>
      <point x="56" y="14"/>
      <point x="41" y="14" type="curve"/>
      <point x="33" y="14"/>
      <point x="29" y="10"/>
      <point x="29" y="5" type="curve"/>
      <point x="29" y="-1"/>
      <point x="33" y="-4"/>
      <point x="41" y="-4" type="curve"/>
      <point x="50" y="-4"/>
      <point x="79" y="0"/>
    </contour>
  </outline>
</glyph>
<glyph name="S" format="2">
  <advance width="300"/>
  <unicode hex="0053"/>
  <anchor x="138" y="0" name="bottom"/>
  <anchor x="155" y="700" name="top"/>
  <outline>
    <contour>
      <point x="145" y="710" type="curve" smooth="yes"/>
      <point x="74" y="710"/>
      <point x="30" y="647"/>
      <point x="30" y="547" type="curve" smooth="yes"/>
      <point x="30" y="472"/>
      <point x="58" y="401"/>
      <point x="138" y="305" type="curve" smooth="yes"/>
      <point x="202" y="229"/>
      <point x="229" y="173"/>
      <point x="229" y="109" type="curve" smooth="yes"/>
      <point x="229" y="43"/>
      <point x="201" y="5"/>
      <point x="152" y="5" type="curve" smooth="yes"/>
      <point x="87" y="5"/>
      <point x="49" y="65"/>
      <point x="47" y="173" type="curve" smooth="yes"/>
      <point x="47" y="196"/>
      <point x="45" y="201"/>
      <point x="39" y="201" type="curve" smooth="yes"/>
      <point x="33" y="201"/>
      <point x="31" y="195"/>
      <point x="31" y="189" type="curve" smooth="yes"/>
      <point x="31" y="176"/>
      <point x="39" y="132"/>
      <point x="39" y="80" type="curve" smooth="yes"/>
      <point x="39" y="28"/>
      <point x="31" y="11"/>
      <point x="31" y="1" type="curve" smooth="yes"/>
      <point x="31" y="-6"/>
      <point x="34" y="-10"/>
      <point x="39" y="-10" type="curve" smooth="yes"/>
      <point x="49" y="-10"/>
      <point x="49" y="7"/>
      <point x="64" y="7" type="curve" smooth="yes"/>
      <point x="82" y="7"/>
      <point x="108" y="-10"/>
      <point x="154" y="-10" type="curve" smooth="yes"/>
      <point x="225" y="-10"/>
      <point x="270" y="53"/>
      <point x="270" y="153" type="curve" smooth="yes"/>
      <point x="270" y="238"/>
      <point x="238" y="303"/>
      <point x="159" y="400" type="curve" smooth="yes"/>
      <point x="91" y="482"/>
      <point x="68" y="529"/>
      <point x="68" y="590" type="curve" smooth="yes"/>
      <point x="68" y="659"/>
      <point x="97" y="697"/>
      <point x="142" y="697" type="curve" smooth="yes"/>
      <point x="203" y="697"/>
      <point x="231" y="640"/>
      <point x="230" y="526" type="curve" smooth="yes"/>
      <point x="230" y="506"/>
      <point x="235" y="501"/>
      <point x="241" y="501" type="curve" smooth="yes"/>
      <point x="246" y="501"/>
      <point x="248" y="505"/>
      <point x="248" y="511" type="curve" smooth="yes"/>
      <point x="248" y="523"/>
      <point x="239" y="552"/>
      <point x="239" y="615" type="curve" smooth="yes"/>
      <point x="239" y="662"/>
      <point x="245" y="686"/>
      <point x="246" y="695" type="curve" smooth="yes"/>
      <point x="248" y="710"/>
      <point x="241" y="710"/>
      <point x="239" y="710" type="curve" smooth="yes"/>
      <point x="229" y="710"/>
      <point x="229" y="693"/>
      <point x="214" y="693" type="curve" smooth="yes"/>
      <point x="200" y="693"/>
      <point x="175" y="710"/>
    </contour>
  </outline>
</glyph>
<glyph name="T" format="2">
  <advance width="322"/>
  <unicode hex="0054"/>
  <anchor x="161" y="5" name="bottom"/>
  <anchor x="161" y="350" name="center"/>
  <anchor x="161" y="700" name="top"/>
  <outline>
    <contour>
      <point x="158" y="0" type="curve"/>
      <point x="164" y="0" type="line"/>
      <point x="194" y="0"/>
      <point x="222" y="-4"/>
      <point x="232" y="-4" type="curve"/>
      <point x="240" y="-4"/>
      <point x="245" y="-1"/>
      <point x="245" y="5" type="curve"/>
      <point x="245" y="10"/>
      <point x="240" y="14"/>
      <point x="234" y="14" type="curve"/>
      <point x="217" y="14"/>
      <point x="194" y="5"/>
      <point x="192" y="53" type="curve"/>
      <point x="188" y="224"/>
      <point x="188" y="573"/>
      <point x="192" y="698" type="curve"/>
      <point x="130" y="698" type="line"/>
      <point x="134" y="573"/>
      <point x="134" y="224"/>
      <point x="130" y="53" type="curve"/>
      <point x="128" y="5"/>
      <point x="105" y="14"/>
      <point x="88" y="14" type="curve"/>
      <point x="82" y="14"/>
      <point x="77" y="10"/>
      <point x="77" y="5" type="curve"/>
      <point x="77" y="-1"/>
      <point x="82" y="-4"/>
      <point x="90" y="-4" type="curve"/>
      <point x="100" y="-4"/>
      <point x="128" y="0"/>
    </contour>
    <contour>
      <point x="304" y="706" type="curve" smooth="yes"/>
      <point x="294" y="706"/>
      <point x="284" y="698"/>
      <point x="182" y="698" type="curve"/>
      <point x="182" y="661" type="line"/>
      <point x="191" y="661" type="line"/>
      <point x="192" y="684"/>
      <point x="196" y="685"/>
      <point x="207" y="685" type="curve" smooth="yes"/>
      <point x="279" y="685"/>
      <point x="296" y="666"/>
      <point x="296" y="512" type="curve" smooth="yes"/>
      <point x="296" y="505"/>
      <point x="299" y="500"/>
      <point x="304" y="500" type="curve" smooth="yes"/>
      <point x="309" y="500"/>
      <point x="313" y="503"/>
      <point x="312" y="512" type="curve" smooth="yes"/>
      <point x="310" y="525"/>
      <point x="305" y="556"/>
      <point x="305" y="620" type="curve" smooth="yes"/>
      <point x="305" y="660"/>
      <point x="310" y="684"/>
      <point x="312" y="695" type="curve" smooth="yes"/>
      <point x="313" y="703"/>
      <point x="309" y="706"/>
    </contour>
    <contour>
      <point x="18" y="706" type="curve" smooth="yes"/>
      <point x="13" y="706"/>
      <point x="9" y="703"/>
      <point x="10" y="695" type="curve" smooth="yes"/>
      <point x="12" y="680"/>
      <point x="17" y="660"/>
      <point x="17" y="620" type="curve" smooth="yes"/>
      <point x="17" y="556"/>
      <point x="12" y="525"/>
      <point x="10" y="512" type="curve" smooth="yes"/>
      <point x="9" y="503"/>
      <point x="13" y="500"/>
      <point x="18" y="500" type="curve" smooth="yes"/>
      <point x="23" y="500"/>
      <point x="26" y="505"/>
      <point x="26" y="512" type="curve" smooth="yes"/>
      <point x="26" y="666"/>
      <point x="43" y="685"/>
      <point x="115" y="685" type="curve" smooth="yes"/>
      <point x="124" y="685"/>
      <point x="130" y="684"/>
      <point x="131" y="661" type="curve"/>
      <point x="140" y="661" type="line"/>
      <point x="140" y="698" type="line"/>
      <point x="38" y="698"/>
      <point x="28" y="706"/>
    </contour>
  </outline>
</glyph>
<glyph name="U" format="2">
  <advance width="382"/>
  <unicode hex="0055"/>
  <anchor x="191" y="0" name="bottom"/>
  <anchor x="268" y="10" name="ogonek"/>
  <anchor x="191" y="700" name="top"/>
  <anchor x="352" y="700" name="topright"/>
  <outline>
    <contour>
      <point x="68" y="659" type="curve"/>
      <point x="72" y="577"/>
      <point x="72" y="429"/>
      <point x="74" y="150" type="curve" smooth="yes"/>
      <point x="75" y="39"/>
      <point x="116" y="-9"/>
      <point x="203" y="-9" type="curve" smooth="yes"/>
      <point x="274" y="-9"/>
      <point x="299" y="34"/>
      <point x="299" y="163" type="curve" smooth="yes"/>
      <point x="299" y="350"/>
      <point x="306" y="549"/>
      <point x="313" y="659" type="curve"/>
      <point x="315" y="690"/>
      <point x="339" y="684"/>
      <point x="354" y="683" type="curve"/>
      <point x="362" y="683"/>
      <point x="366" y="686"/>
      <point x="367" y="691" type="curve"/>
      <point x="367" y="697"/>
      <point x="363" y="701"/>
      <point x="355" y="701" type="curve"/>
      <point x="346" y="702"/>
      <point x="317" y="700"/>
      <point x="286" y="700" type="curve"/>
      <point x="299" y="700" type="line"/>
      <point x="269" y="700"/>
      <point x="241" y="704"/>
      <point x="231" y="704" type="curve"/>
      <point x="223" y="704"/>
      <point x="218" y="701"/>
      <point x="218" y="695" type="curve"/>
      <point x="218" y="690"/>
      <point x="223" y="686"/>
      <point x="229" y="686" type="curve"/>
      <point x="246" y="686"/>
      <point x="269" y="695"/>
      <point x="272" y="647" type="curve"/>
      <point x="279" y="481"/>
      <point x="282" y="212"/>
      <point x="282" y="139" type="curve" smooth="yes"/>
      <point x="282" y="44"/>
      <point x="260" y="8"/>
      <point x="207" y="8" type="curve" smooth="yes"/>
      <point x="153" y="8"/>
      <point x="131" y="44"/>
      <point x="130" y="137" type="curve" smooth="yes"/>
      <point x="126" y="413"/>
      <point x="127" y="571"/>
      <point x="128" y="647" type="curve"/>
      <point x="131" y="695"/>
      <point x="153" y="685"/>
      <point x="170" y="684" type="curve"/>
      <point x="176" y="684"/>
      <point x="181" y="688"/>
      <point x="182" y="693" type="curve"/>
      <point x="182" y="699"/>
      <point x="177" y="702"/>
      <point x="169" y="702" type="curve"/>
      <point x="159" y="703"/>
      <point x="131" y="700"/>
      <point x="101" y="700" type="curve"/>
      <point x="96" y="700" type="line"/>
      <point x="65" y="700"/>
      <point x="36" y="703"/>
      <point x="27" y="703" type="curve"/>
      <point x="19" y="703"/>
      <point x="15" y="699"/>
      <point x="15" y="693" type="curve"/>
      <point x="15" y="688"/>
      <point x="19" y="685"/>
      <point x="27" y="685" type="curve"/>
      <point x="42" y="685"/>
      <point x="67" y="690"/>
    </contour>
  </outline>
</glyph>
<glyph name="V" format="2">
  <advance width="363"/>
  <unicode hex="0056"/>
  <anchor x="177" y="0" name="bottom"/>
  <anchor x="177" y="700" name="top"/>
  <outline>
    <contour>
      <point x="85" y="700" type="curve"/>
      <point x="81" y="700" type="line"/>
      <point x="50" y="700"/>
      <point x="21" y="704"/>
      <point x="12" y="704" type="curve"/>
      <point x="4" y="704"/>
      <point x="0" y="701"/>
      <point x="0" y="695" type="curve"/>
      <point x="0" y="690"/>
      <point x="4" y="686"/>
      <point x="12" y="686" type="curve"/>
      <point x="27" y="686"/>
      <point x="53" y="690"/>
      <point x="58" y="660" type="curve"/>
      <point x="102" y="406"/>
      <point x="137" y="200"/>
      <point x="171" y="-5" type="curve" smooth="yes"/>
      <point x="172" y="-9"/>
      <point x="173" y="-9"/>
      <point x="177" y="-9" type="curve" smooth="yes"/>
      <point x="186" y="-9" type="line" smooth="yes"/>
      <point x="190" y="-9"/>
      <point x="191" y="-8"/>
      <point x="192" y="-4" type="curve" smooth="yes"/>
      <point x="224" y="188"/>
      <point x="270" y="458"/>
      <point x="305" y="660" type="curve"/>
      <point x="310" y="690"/>
      <point x="336" y="686"/>
      <point x="351" y="686" type="curve"/>
      <point x="359" y="686"/>
      <point x="363" y="690"/>
      <point x="363" y="695" type="curve"/>
      <point x="363" y="701"/>
      <point x="359" y="704"/>
      <point x="351" y="704" type="curve"/>
      <point x="342" y="704"/>
      <point x="313" y="700"/>
      <point x="282" y="700" type="curve"/>
      <point x="296" y="700" type="line"/>
      <point x="266" y="700"/>
      <point x="238" y="704"/>
      <point x="228" y="704" type="curve"/>
      <point x="220" y="704"/>
      <point x="215" y="701"/>
      <point x="215" y="695" type="curve"/>
      <point x="215" y="690"/>
      <point x="220" y="686"/>
      <point x="226" y="686" type="curve"/>
      <point x="243" y="686"/>
      <point x="266" y="695"/>
      <point x="261" y="647" type="curve"/>
      <point x="242" y="464"/>
      <point x="217" y="267"/>
      <point x="205" y="168" type="curve" smooth="yes"/>
      <point x="204" y="159"/>
      <point x="203" y="158"/>
      <point x="201" y="158" type="curve" smooth="yes"/>
      <point x="199" y="158"/>
      <point x="198" y="159"/>
      <point x="197" y="168" type="curve" smooth="yes"/>
      <point x="176" y="293"/>
      <point x="147" y="469"/>
      <point x="122" y="647" type="curve"/>
      <point x="116" y="695"/>
      <point x="138" y="686"/>
      <point x="155" y="686" type="curve"/>
      <point x="161" y="686"/>
      <point x="166" y="690"/>
      <point x="166" y="695" type="curve"/>
      <point x="166" y="701"/>
      <point x="161" y="704"/>
      <point x="153" y="704" type="curve"/>
      <point x="143" y="704"/>
      <point x="115" y="700"/>
    </contour>
  </outline>
</glyph>
<glyph name="W" format="2">
  <advance width="513"/>
  <unicode hex="0057"/>
  <anchor x="252" y="0" name="bottom"/>
  <anchor x="258" y="700" name="top"/>
  <outline>
    <contour>
      <point x="167" y="-9" type="curve" smooth="yes"/>
      <point x="182" y="-9" type="line" smooth="yes"/>
      <point x="183" y="-9"/>
      <point x="184" y="-8"/>
      <point x="184" y="-7" type="curve" smooth="yes"/>
      <point x="203" y="143"/>
      <point x="228" y="338"/>
      <point x="250" y="510" type="curve" smooth="yes"/>
      <point x="251" y="515"/>
      <point x="253" y="516"/>
      <point x="254" y="516" type="curve" smooth="yes"/>
      <point x="255" y="516"/>
      <point x="257" y="516"/>
      <point x="258" y="510" type="curve" smooth="yes"/>
      <point x="281" y="341"/>
      <point x="306" y="160"/>
      <point x="329" y="-7" type="curve" smooth="yes"/>
      <point x="329" y="-9"/>
      <point x="330" y="-9"/>
      <point x="331" y="-9" type="curve" smooth="yes"/>
      <point x="346" y="-9" type="line" smooth="yes"/>
      <point x="347" y="-9"/>
      <point x="348" y="-8"/>
      <point x="348" y="-7" type="curve" smooth="yes"/>
      <point x="379" y="188"/>
      <point x="423" y="458"/>
      <point x="455" y="660" type="curve"/>
      <point x="460" y="690"/>
      <point x="486" y="686"/>
      <point x="501" y="686" type="curve"/>
      <point x="509" y="686"/>
      <point x="513" y="690"/>
      <point x="513" y="695" type="curve"/>
      <point x="513" y="701"/>
      <point x="509" y="704"/>
      <point x="501" y="704" type="curve"/>
      <point x="492" y="704"/>
      <point x="463" y="700"/>
      <point x="432" y="700" type="curve"/>
      <point x="446" y="700" type="line"/>
      <point x="416" y="700"/>
      <point x="388" y="704"/>
      <point x="378" y="704" type="curve"/>
      <point x="370" y="704"/>
      <point x="365" y="701"/>
      <point x="365" y="695" type="curve"/>
      <point x="365" y="690"/>
      <point x="370" y="686"/>
      <point x="376" y="686" type="curve"/>
      <point x="393" y="686"/>
      <point x="416" y="695"/>
      <point x="412" y="647" type="curve"/>
      <point x="395" y="465"/>
      <point x="373" y="273"/>
      <point x="362" y="183" type="curve" smooth="yes"/>
      <point x="361" y="174"/>
      <point x="360" y="173"/>
      <point x="358" y="173" type="curve" smooth="yes"/>
      <point x="356" y="173"/>
      <point x="355" y="174"/>
      <point x="354" y="183" type="curve" smooth="yes"/>
      <point x="339" y="292"/>
      <point x="313" y="483"/>
      <point x="293" y="647" type="curve"/>
      <point x="288" y="695"/>
      <point x="310" y="686"/>
      <point x="327" y="686" type="curve"/>
      <point x="333" y="686"/>
      <point x="338" y="690"/>
      <point x="338" y="695" type="curve"/>
      <point x="338" y="701"/>
      <point x="333" y="704"/>
      <point x="325" y="704" type="curve"/>
      <point x="315" y="704"/>
      <point x="287" y="700"/>
      <point x="257" y="700" type="curve"/>
      <point x="253" y="700" type="line"/>
      <point x="223" y="700"/>
      <point x="195" y="704"/>
      <point x="185" y="704" type="curve"/>
      <point x="177" y="704"/>
      <point x="172" y="701"/>
      <point x="172" y="695" type="curve"/>
      <point x="172" y="690"/>
      <point x="177" y="686"/>
      <point x="183" y="686" type="curve"/>
      <point x="200" y="686"/>
      <point x="224" y="695"/>
      <point x="231" y="648" type="curve"/>
      <point x="236" y="616" type="line"/>
      <point x="217" y="413"/>
      <point x="202" y="264"/>
      <point x="193" y="183" type="curve" smooth="yes"/>
      <point x="192" y="174"/>
      <point x="191" y="173"/>
      <point x="189" y="173" type="curve" smooth="yes"/>
      <point x="187" y="173"/>
      <point x="186" y="174"/>
      <point x="185" y="183" type="curve" smooth="yes"/>
      <point x="166" y="299"/>
      <point x="143" y="469"/>
      <point x="121" y="647" type="curve"/>
      <point x="116" y="695"/>
      <point x="138" y="686"/>
      <point x="155" y="686" type="curve"/>
      <point x="161" y="686"/>
      <point x="166" y="690"/>
      <point x="166" y="695" type="curve"/>
      <point x="166" y="701"/>
      <point x="161" y="704"/>
      <point x="153" y="704" type="curve"/>
      <point x="143" y="704"/>
      <point x="115" y="700"/>
      <point x="85" y="700" type="curve"/>
      <point x="81" y="700" type="line"/>
      <point x="50" y="700"/>
      <point x="21" y="704"/>
      <point x="12" y="704" type="curve"/>
      <point x="4" y="704"/>
      <point x="0" y="701"/>
      <point x="0" y="695" type="curve"/>
      <point x="0" y="690"/>
      <point x="4" y="686"/>
      <point x="12" y="686" type="curve"/>
      <point x="27" y="686"/>
      <point x="53" y="690"/>
      <point x="58" y="660" type="curve"/>
      <point x="99" y="406"/>
      <point x="133" y="200"/>
      <point x="165" y="-7" type="curve" smooth="yes"/>
      <point x="165" y="-9"/>
      <point x="166" y="-9"/>
    </contour>
  </outline>
</glyph>
<glyph name="X" format="2">
  <advance width="395"/>
  <unicode hex="0058"/>
  <anchor x="193" y="0" name="bottom"/>
  <anchor x="193" y="700" name="top"/>
  <outline>
    <contour>
      <point x="81" y="0" type="curve"/>
      <point x="73" y="0" type="line"/>
      <point x="103" y="0"/>
      <point x="131" y="-4"/>
      <point x="141" y="-4" type="curve"/>
      <point x="149" y="-4"/>
      <point x="154" y="-1"/>
      <point x="154" y="5" type="curve"/>
      <point x="154" y="10"/>
      <point x="149" y="14"/>
      <point x="143" y="14" type="curve"/>
      <point x="126" y="14"/>
      <point x="104" y="5"/>
      <point x="114" y="52" type="curve"/>
      <point x="134" y="138"/>
      <point x="156" y="226"/>
      <point x="181" y="315" type="curve" smooth="yes"/>
      <point x="185" y="328"/>
      <point x="188" y="327"/>
      <point x="192" y="315" type="curve" smooth="yes"/>
      <point x="220" y="226"/>
      <point x="245" y="137"/>
      <point x="267" y="51" type="curve"/>
      <point x="279" y="5"/>
      <point x="257" y="14"/>
      <point x="240" y="14" type="curve"/>
      <point x="234" y="14"/>
      <point x="229" y="10"/>
      <point x="229" y="5" type="curve"/>
      <point x="229" y="-1"/>
      <point x="234" y="-4"/>
      <point x="242" y="-4" type="curve"/>
      <point x="252" y="-4"/>
      <point x="280" y="0"/>
      <point x="310" y="0" type="curve"/>
      <point x="314" y="0" type="line" smooth="yes"/>
      <point x="345" y="0"/>
      <point x="374" y="-4"/>
      <point x="383" y="-4" type="curve" smooth="yes"/>
      <point x="391" y="-4"/>
      <point x="395" y="-1"/>
      <point x="395" y="5" type="curve" smooth="yes"/>
      <point x="395" y="10"/>
      <point x="391" y="14"/>
      <point x="383" y="14" type="curve" smooth="yes"/>
      <point x="368" y="14"/>
      <point x="341" y="9"/>
      <point x="331" y="39" type="curve" smooth="yes"/>
      <point x="293" y="155"/>
      <point x="254" y="276"/>
      <point x="223" y="384" type="curve" smooth="yes"/>
      <point x="219" y="397"/>
      <point x="220" y="399"/>
      <point x="224" y="412" type="curve" smooth="yes"/>
      <point x="251" y="492"/>
      <point x="282" y="577"/>
      <point x="314" y="662" type="curve"/>
      <point x="325" y="691"/>
      <point x="353" y="686"/>
      <point x="368" y="686" type="curve"/>
      <point x="376" y="686"/>
      <point x="380" y="690"/>
      <point x="380" y="695" type="curve"/>
      <point x="380" y="701"/>
      <point x="376" y="704"/>
      <point x="368" y="704" type="curve"/>
      <point x="359" y="704"/>
      <point x="330" y="700"/>
      <point x="299" y="700" type="curve"/>
      <point x="313" y="700" type="line"/>
      <point x="283" y="700"/>
      <point x="255" y="704"/>
      <point x="245" y="704" type="curve"/>
      <point x="237" y="704"/>
      <point x="232" y="701"/>
      <point x="232" y="695" type="curve"/>
      <point x="232" y="690"/>
      <point x="237" y="686"/>
      <point x="243" y="686" type="curve"/>
      <point x="260" y="686"/>
      <point x="282" y="695"/>
      <point x="271" y="648" type="curve"/>
      <point x="255" y="578"/>
      <point x="237" y="508"/>
      <point x="216" y="436" type="curve" smooth="yes"/>
      <point x="212" y="423"/>
      <point x="210" y="423"/>
      <point x="206" y="436" type="curve" smooth="yes"/>
      <point x="185" y="507"/>
      <point x="166" y="578"/>
      <point x="149" y="648" type="curve"/>
      <point x="138" y="695"/>
      <point x="160" y="686"/>
      <point x="177" y="686" type="curve"/>
      <point x="183" y="686"/>
      <point x="188" y="690"/>
      <point x="188" y="695" type="curve"/>
      <point x="188" y="701"/>
      <point x="183" y="704"/>
      <point x="175" y="704" type="curve"/>
      <point x="165" y="704"/>
      <point x="137" y="700"/>
      <point x="107" y="700" type="curve"/>
      <point x="103" y="700" type="line"/>
      <point x="72" y="700"/>
      <point x="43" y="704"/>
      <point x="34" y="704" type="curve"/>
      <point x="26" y="704"/>
      <point x="22" y="701"/>
      <point x="22" y="695" type="curve"/>
      <point x="22" y="690"/>
      <point x="26" y="686"/>
      <point x="34" y="686" type="curve"/>
      <point x="49" y="686"/>
      <point x="76" y="691"/>
      <point x="86" y="661" type="curve"/>
      <point x="120" y="559"/>
      <point x="149" y="461"/>
      <point x="173" y="371" type="curve" smooth="yes"/>
      <point x="177" y="358"/>
      <point x="176" y="356"/>
      <point x="172" y="343" type="curve" smooth="yes"/>
      <point x="142" y="245"/>
      <point x="108" y="139"/>
      <point x="67" y="38" type="curve"/>
      <point x="55" y="9"/>
      <point x="27" y="14"/>
      <point x="12" y="14" type="curve"/>
      <point x="4" y="14"/>
      <point x="0" y="10"/>
      <point x="0" y="5" type="curve"/>
      <point x="0" y="-1"/>
      <point x="4" y="-4"/>
      <point x="12" y="-4" type="curve"/>
      <point x="21" y="-4"/>
      <point x="50" y="0"/>
    </contour>
  </outline>
</glyph>
<glyph name="Y" format="2">
  <advance width="379"/>
  <unicode hex="0059"/>
  <anchor x="185" y="0" name="bottom"/>
  <anchor x="185" y="700" name="top"/>
  <anchor x="35" y="700" name="topleft"/>
  <outline>
    <contour>
      <point x="85" y="700" type="curve"/>
      <point x="81" y="700" type="line"/>
      <point x="50" y="700"/>
      <point x="21" y="704"/>
      <point x="12" y="704" type="curve"/>
      <point x="4" y="704"/>
      <point x="0" y="701"/>
      <point x="0" y="695" type="curve"/>
      <point x="0" y="690"/>
      <point x="4" y="686"/>
      <point x="12" y="686" type="curve"/>
      <point x="27" y="686"/>
      <point x="54" y="690"/>
      <point x="62" y="660" type="curve"/>
      <point x="96" y="533"/>
      <point x="128" y="405"/>
      <point x="160" y="278" type="curve" smooth="yes"/>
      <point x="162" y="271"/>
      <point x="163" y="265"/>
      <point x="163" y="256" type="curve" smooth="yes"/>
      <point x="163" y="169"/>
      <point x="163" y="88"/>
      <point x="161" y="41" type="curve"/>
      <point x="160" y="10"/>
      <point x="135" y="14"/>
      <point x="120" y="14" type="curve"/>
      <point x="112" y="14"/>
      <point x="108" y="10"/>
      <point x="108" y="5" type="curve"/>
      <point x="108" y="-1"/>
      <point x="112" y="-4"/>
      <point x="120" y="-4" type="curve"/>
      <point x="129" y="-4"/>
      <point x="158" y="0"/>
      <point x="189" y="0" type="curve"/>
      <point x="193" y="0" type="line"/>
      <point x="224" y="0"/>
      <point x="253" y="-4"/>
      <point x="262" y="-4" type="curve"/>
      <point x="270" y="-4"/>
      <point x="274" y="-1"/>
      <point x="274" y="5" type="curve"/>
      <point x="274" y="10"/>
      <point x="270" y="14"/>
      <point x="262" y="14" type="curve"/>
      <point x="247" y="14"/>
      <point x="222" y="10"/>
      <point x="221" y="41" type="curve"/>
      <point x="218" y="96"/>
      <point x="217" y="174"/>
      <point x="216" y="257" type="curve" smooth="yes"/>
      <point x="216" y="264"/>
      <point x="217" y="269"/>
      <point x="219" y="279" type="curve" smooth="yes"/>
      <point x="248" y="405"/>
      <point x="282" y="533"/>
      <point x="317" y="660" type="curve"/>
      <point x="325" y="690"/>
      <point x="352" y="686"/>
      <point x="367" y="686" type="curve"/>
      <point x="375" y="686"/>
      <point x="379" y="690"/>
      <point x="379" y="695" type="curve"/>
      <point x="379" y="701"/>
      <point x="375" y="704"/>
      <point x="367" y="704" type="curve"/>
      <point x="358" y="704"/>
      <point x="329" y="700"/>
      <point x="298" y="700" type="curve"/>
      <point x="312" y="700" type="line"/>
      <point x="282" y="700"/>
      <point x="254" y="704"/>
      <point x="244" y="704" type="curve"/>
      <point x="236" y="704"/>
      <point x="231" y="701"/>
      <point x="231" y="695" type="curve"/>
      <point x="231" y="690"/>
      <point x="236" y="686"/>
      <point x="242" y="686" type="curve"/>
      <point x="259" y="686"/>
      <point x="281" y="695"/>
      <point x="273" y="648" type="curve"/>
      <point x="253" y="538"/>
      <point x="231" y="427"/>
      <point x="209" y="316" type="curve" smooth="yes"/>
      <point x="208" y="311"/>
      <point x="207" y="309"/>
      <point x="205" y="309" type="curve" smooth="yes"/>
      <point x="203" y="309"/>
      <point x="201" y="311"/>
      <point x="200" y="316" type="curve" smooth="yes"/>
      <point x="174" y="428"/>
      <point x="150" y="538"/>
      <point x="126" y="648" type="curve"/>
      <point x="116" y="695"/>
      <point x="138" y="686"/>
      <point x="155" y="686" type="curve"/>
      <point x="161" y="686"/>
      <point x="166" y="690"/>
      <point x="166" y="695" type="curve"/>
      <point x="166" y="701"/>
      <point x="161" y="704"/>
      <point x="153" y="704" type="curve"/>
      <point x="143" y="704"/>
      <point x="115" y="700"/>
    </contour>
  </outline>
</glyph>
<glyph name="Z" format="2">
  <advance width="301"/>
  <unicode hex="005A"/>
  <anchor x="141" y="0" name="bottom"/>
  <anchor x="141" y="350" name="center"/>
  <anchor x="150" y="700" name="top"/>
  <outline>
    <contour>
      <point x="61" y="0" type="curve"/>
      <point x="99" y="0" type="line"/>
      <point x="103" y="42"/>
      <point x="204" y="515"/>
      <point x="239" y="660" type="curve"/>
      <point x="247" y="690"/>
      <point x="274" y="686"/>
      <point x="289" y="686" type="curve"/>
      <point x="297" y="686"/>
      <point x="301" y="690"/>
      <point x="301" y="695" type="curve"/>
      <point x="301" y="701"/>
      <point x="297" y="704"/>
      <point x="289" y="704" type="curve"/>
      <point x="280" y="704"/>
      <point x="251" y="700"/>
      <point x="220" y="700" type="curve"/>
      <point x="183" y="700" type="line"/>
      <point x="160" y="570"/>
      <point x="81" y="206"/>
      <point x="41" y="40" type="curve"/>
      <point x="33" y="10"/>
      <point x="7" y="14"/>
      <point x="-8" y="14" type="curve"/>
      <point x="-16" y="14"/>
      <point x="-20" y="10"/>
      <point x="-20" y="5" type="curve"/>
      <point x="-20" y="-1"/>
      <point x="-16" y="-4"/>
      <point x="-8" y="-4" type="curve"/>
      <point x="1" y="-4"/>
      <point x="30" y="0"/>
    </contour>
    <contour>
      <point x="26" y="706" type="curve" smooth="yes"/>
      <point x="21" y="706"/>
      <point x="17" y="703"/>
      <point x="18" y="695" type="curve" smooth="yes"/>
      <point x="20" y="680"/>
      <point x="25" y="660"/>
      <point x="25" y="620" type="curve" smooth="yes"/>
      <point x="25" y="556"/>
      <point x="20" y="525"/>
      <point x="18" y="512" type="curve" smooth="yes"/>
      <point x="17" y="503"/>
      <point x="21" y="500"/>
      <point x="26" y="500" type="curve" smooth="yes"/>
      <point x="31" y="500"/>
      <point x="34" y="505"/>
      <point x="34" y="512" type="curve" smooth="yes"/>
      <point x="34" y="666"/>
      <point x="51" y="687"/>
      <point x="163" y="687" type="curve" smooth="yes"/>
      <point x="172" y="687"/>
      <point x="181" y="686"/>
      <point x="176" y="663" type="curve"/>
      <point x="186" y="663" type="line"/>
      <point x="186" y="700" type="line"/>
      <point x="44" y="700"/>
      <point x="36" y="706"/>
    </contour>
    <contour>
      <point x="255" y="-6" type="curve" smooth="yes"/>
      <point x="260" y="-6"/>
      <point x="264" y="-3"/>
      <point x="263" y="5" type="curve" smooth="yes"/>
      <point x="261" y="20"/>
      <point x="256" y="40"/>
      <point x="256" y="80" type="curve" smooth="yes"/>
      <point x="256" y="144"/>
      <point x="261" y="175"/>
      <point x="263" y="191" type="curve" smooth="yes"/>
      <point x="264" y="200"/>
      <point x="260" y="203"/>
      <point x="255" y="203" type="curve" smooth="yes"/>
      <point x="250" y="203"/>
      <point x="247" y="198"/>
      <point x="247" y="191" type="curve" smooth="yes"/>
      <point x="247" y="34"/>
      <point x="230" y="13"/>
      <point x="118" y="13" type="curve" smooth="yes"/>
      <point x="109" y="13"/>
      <point x="100" y="14"/>
      <point x="105" y="37" type="curve"/>
      <point x="95" y="37" type="line"/>
      <point x="95" y="0" type="line"/>
      <point x="237" y="0"/>
      <point x="245" y="-6"/>
    </contour>
  </outline>
</glyph>
<glyph name="bracketleft" format="2">
  <advance width="169"/>
  <unicode hex="005B"/>
  <outline>
    <component base="_bracketside" xOffset="-165" identifier="0CAEAFCC"/>
    <contour>
      <point x="30" y="276" type="line"/>
      <point x="30" y="40" type="line" smooth="yes"/>
      <point x="30" y="-110"/>
      <point x="54" y="-160"/>
      <point x="127" y="-160" type="curve" smooth="yes"/>
      <point x="142" y="-160" type="line" smooth="yes"/>
      <point x="153" y="-160"/>
      <point x="159" y="-159"/>
      <point x="159" y="-153" type="curve" smooth="yes"/>
      <point x="159" y="-149"/>
      <point x="156" y="-147"/>
      <point x="147" y="-147" type="curve" smooth="yes"/>
      <point x="98" y="-147"/>
      <point x="81" y="-106"/>
      <point x="81" y="16" type="curve" smooth="yes"/>
      <point x="81" y="276" type="line"/>
    </contour>
  </outline>
</glyph>
<glyph name="bracketright" format="2">
  <advance width="169"/>
  <unicode hex="005D"/>
  <outline>
    <contour>
      <point x="139" y="274" type="line"/>
      <point x="139" y="510" type="line" smooth="yes"/>
      <point x="139" y="660"/>
      <point x="115" y="710"/>
      <point x="42" y="710" type="curve" smooth="yes"/>
      <point x="27" y="710" type="line" smooth="yes"/>
      <point x="16" y="710"/>
      <point x="10" y="709"/>
      <point x="10" y="703" type="curve" smooth="yes"/>
      <point x="10" y="699"/>
      <point x="13" y="697"/>
      <point x="22" y="697" type="curve" smooth="yes"/>
      <point x="71" y="697"/>
      <point x="88" y="656"/>
      <point x="88" y="534" type="curve" smooth="yes"/>
      <point x="88" y="274" type="line"/>
    </contour>
    <component base="_bracketside" xScale="-1" yScale="-1" xOffset="334" yOffset="550" identifier="70FD9EDD"/>
  </outline>
</glyph>
<glyph name="asciicircum" format="2">
  <advance width="343"/>
  <unicode hex="005E"/>
  <outline>
    <contour>
      <point x="28" y="499" type="curve" smooth="yes"/>
      <point x="42" y="499"/>
      <point x="107" y="571"/>
      <point x="140" y="600" type="curve" smooth="yes"/>
      <point x="146" y="605"/>
      <point x="154" y="613"/>
      <point x="162" y="613" type="curve" smooth="yes"/>
      <point x="170" y="613"/>
      <point x="175" y="607"/>
      <point x="183" y="600" type="curve" smooth="yes"/>
      <point x="212" y="575"/>
      <point x="280" y="499"/>
      <point x="305" y="499" type="curve" smooth="yes"/>
      <point x="311" y="499"/>
      <point x="313" y="501"/>
      <point x="313" y="505" type="curve" smooth="yes"/>
      <point x="313" y="519"/>
      <point x="238" y="560"/>
      <point x="200" y="644" type="curve" smooth="yes"/>
      <point x="192" y="661"/>
      <point x="190" y="676"/>
      <point x="175" y="676" type="curve" smooth="yes"/>
      <point x="163" y="676"/>
      <point x="156" y="667"/>
      <point x="143" y="646" type="curve" smooth="yes"/>
      <point x="96" y="571"/>
      <point x="20" y="518"/>
      <point x="20" y="505" type="curve" smooth="yes"/>
      <point x="20" y="501"/>
      <point x="22" y="499"/>
    </contour>
  </outline>
</glyph>
<glyph name="underscore" format="2">
  <advance width="275"/>
  <unicode hex="005F"/>
  <outline>
    <contour>
      <point x="24" y="-74" type="curve" smooth="yes"/>
      <point x="88" y="-72"/>
      <point x="182" y="-72"/>
      <point x="246" y="-74" type="curve" smooth="yes"/>
      <point x="253" y="-74"/>
      <point x="256" y="-70"/>
      <point x="257" y="-62" type="curve" smooth="yes"/>
      <point x="258" y="-52"/>
      <point x="260" y="-32"/>
      <point x="260" y="-29" type="curve" smooth="yes"/>
      <point x="260" y="-24"/>
      <point x="257" y="-21"/>
      <point x="251" y="-21" type="curve" smooth="yes"/>
      <point x="187" y="-23"/>
      <point x="93" y="-23"/>
      <point x="29" y="-21" type="curve" smooth="yes"/>
      <point x="22" y="-21"/>
      <point x="19" y="-25"/>
      <point x="18" y="-33" type="curve" smooth="yes"/>
      <point x="17" y="-43"/>
      <point x="15" y="-63"/>
      <point x="15" y="-66" type="curve" smooth="yes"/>
      <point x="15" y="-71"/>
      <point x="18" y="-74"/>
    </contour>
  </outline>
</glyph>
<glyph name="a" format="2">
  <advance width="342"/>
  <unicode hex="0061"/>
  <anchor x="171" y="0" name="bottom"/>
  <anchor x="328" y="10" name="ogonek"/>
  <anchor x="161" y="500" name="top"/>
  <outline>
    <contour>
      <point x="211" y="376" type="curve" smooth="yes"/>
      <point x="211" y="230" type="line" smooth="yes"/>
      <point x="211" y="219"/>
      <point x="209" y="213"/>
      <point x="194" y="212" type="curve" smooth="yes"/>
      <point x="73" y="206"/>
      <point x="20" y="169"/>
      <point x="20" y="90" type="curve" smooth="yes"/>
      <point x="20" y="30"/>
      <point x="53" y="-10"/>
      <point x="106" y="-10" type="curve" smooth="yes"/>
      <point x="148" y="-10"/>
      <point x="177" y="16"/>
      <point x="197" y="52" type="curve" smooth="yes"/>
      <point x="202" y="61"/>
      <point x="203" y="66"/>
      <point x="207" y="66" type="curve" smooth="yes"/>
      <point x="212" y="66"/>
      <point x="212" y="59"/>
      <point x="213" y="53" type="curve" smooth="yes"/>
      <point x="219" y="17"/>
      <point x="230" y="-10"/>
      <point x="263" y="-10" type="curve" smooth="yes"/>
      <point x="296" y="-10"/>
      <point x="316" y="14"/>
      <point x="330" y="70" type="curve" smooth="yes"/>
      <point x="332" y="79"/>
      <point x="335" y="93"/>
      <point x="326" y="93" type="curve" smooth="yes"/>
      <point x="320" y="93"/>
      <point x="319" y="90"/>
      <point x="316" y="75" type="curve" smooth="yes"/>
      <point x="312" y="51"/>
      <point x="306" y="30"/>
      <point x="291" y="30" type="curve" smooth="yes"/>
      <point x="270" y="30"/>
      <point x="263" y="54"/>
      <point x="263" y="124" type="curve" smooth="yes"/>
      <point x="263" y="380" type="line" smooth="yes"/>
      <point x="263" y="463"/>
      <point x="266" y="510"/>
      <point x="216" y="510" type="curve" smooth="yes"/>
      <point x="139" y="510"/>
      <point x="36" y="396"/>
      <point x="36" y="345" type="curve" smooth="yes"/>
      <point x="36" y="328"/>
      <point x="47" y="313"/>
      <point x="66" y="313" type="curve" smooth="yes"/>
      <point x="86" y="313"/>
      <point x="99" y="331"/>
      <point x="99" y="370" type="curve" smooth="yes"/>
      <point x="99" y="436"/>
      <point x="137" y="480"/>
      <point x="177" y="480" type="curve" smooth="yes"/>
      <point x="215" y="480"/>
      <point x="211" y="439"/>
    </contour>
    <contour>
      <point x="74" y="98" type="curve" smooth="yes"/>
      <point x="74" y="163"/>
      <point x="118" y="197"/>
      <point x="197" y="196" type="curve" smooth="yes"/>
      <point x="204" y="196"/>
      <point x="211" y="193"/>
      <point x="211" y="182" type="curve" smooth="yes"/>
      <point x="211" y="162" type="line" smooth="yes"/>
      <point x="211" y="79"/>
      <point x="172" y="32"/>
      <point x="123" y="32" type="curve" smooth="yes"/>
      <point x="92" y="32"/>
      <point x="74" y="57"/>
    </contour>
  </outline>
</glyph>
<glyph name="c" format="2">
  <advance width="303"/>
  <unicode hex="0063"/>
  <anchor x="149" y="0" name="bottom"/>
  <anchor x="180" y="500" name="top"/>
  <outline>
    <contour>
      <point x="277" y="156" type="curve" smooth="yes"/>
      <point x="271" y="156"/>
      <point x="269" y="151"/>
      <point x="267" y="134" type="curve" smooth="yes"/>
      <point x="261" y="78"/>
      <point x="242" y="38"/>
      <point x="196" y="38" type="curve" smooth="yes"/>
      <point x="132" y="38"/>
      <point x="100" y="118"/>
      <point x="95" y="262" type="curve" smooth="yes"/>
      <point x="91" y="401"/>
      <point x="115" y="498"/>
      <point x="173" y="498" type="curve" smooth="yes"/>
      <point x="227" y="498"/>
      <point x="259" y="416"/>
      <point x="259" y="321" type="curve" smooth="yes"/>
      <point x="259" y="304"/>
      <point x="260" y="299"/>
      <point x="266" y="299" type="curve" smooth="yes"/>
      <point x="272" y="299"/>
      <point x="275" y="303"/>
      <point x="275" y="310" type="curve" smooth="yes"/>
      <point x="275" y="323"/>
      <point x="266" y="349"/>
      <point x="266" y="416" type="curve" smooth="yes"/>
      <point x="266" y="475"/>
      <point x="273" y="486"/>
      <point x="273" y="498" type="curve" smooth="yes"/>
      <point x="273" y="506"/>
      <point x="270" y="510"/>
      <point x="265" y="510" type="curve" smooth="yes"/>
      <point x="255" y="510"/>
      <point x="256" y="493"/>
      <point x="241" y="493" type="curve" smooth="yes"/>
      <point x="224" y="493"/>
      <point x="205" y="510"/>
      <point x="172" y="510" type="curve" smooth="yes"/>
      <point x="86" y="510"/>
      <point x="32" y="385"/>
      <point x="35" y="230" type="curve" smooth="yes"/>
      <point x="38" y="88"/>
      <point x="88" y="-10"/>
      <point x="177" y="-10" type="curve" smooth="yes"/>
      <point x="236" y="-10"/>
      <point x="261" y="32"/>
      <point x="281" y="131" type="curve" smooth="yes"/>
      <point x="283" y="142"/>
      <point x="286" y="156"/>
    </contour>
  </outline>
</glyph>
<glyph name="e" format="2">
  <advance width="342"/>
  <unicode hex="0065"/>
  <anchor x="169" y="0" name="bottom"/>
  <anchor x="268" y="10" name="ogonek"/>
  <anchor x="177" y="500" name="top"/>
  <outline>
    <contour>
      <point x="123" y="289" type="curve" smooth="yes"/>
      <point x="278" y="287" type="line" smooth="yes"/>
      <point x="309" y="287"/>
      <point x="315" y="291"/>
      <point x="310" y="329" type="curve" smooth="yes"/>
      <point x="297" y="444"/>
      <point x="241" y="510"/>
      <point x="174" y="510" type="curve" smooth="yes"/>
      <point x="91" y="510"/>
      <point x="31" y="393"/>
      <point x="35" y="240" type="curve" smooth="yes"/>
      <point x="39" y="77"/>
      <point x="94" y="-10"/>
      <point x="185" y="-10" type="curve" smooth="yes"/>
      <point x="246" y="-10"/>
      <point x="288" y="41"/>
      <point x="304" y="131" type="curve" smooth="yes"/>
      <point x="306" y="142"/>
      <point x="309" y="156"/>
      <point x="300" y="156" type="curve" smooth="yes"/>
      <point x="294" y="156"/>
      <point x="292" y="151"/>
      <point x="290" y="134" type="curve" smooth="yes"/>
      <point x="282" y="75"/>
      <point x="251" y="38"/>
      <point x="209" y="38" type="curve" smooth="yes"/>
      <point x="140" y="38"/>
      <point x="98" y="113"/>
      <point x="93" y="259" type="curve" smooth="yes"/>
      <point x="92" y="284"/>
      <point x="93" y="289"/>
    </contour>
    <contour>
      <point x="96" y="358" type="curve" smooth="yes"/>
      <point x="102" y="452"/>
      <point x="131" y="498"/>
      <point x="168" y="498" type="curve" smooth="yes"/>
      <point x="212" y="498"/>
      <point x="240" y="426"/>
      <point x="246" y="345" type="curve" smooth="yes"/>
      <point x="249" y="312"/>
      <point x="245" y="310"/>
      <point x="226" y="309" type="curve" smooth="yes"/>
      <point x="123" y="305" type="line" smooth="yes"/>
      <point x="97" y="304"/>
      <point x="94" y="319"/>
    </contour>
  </outline>
</glyph>
<glyph name="f" format="2">
  <advance width="234"/>
  <unicode hex="0066"/>
  <anchor x="118" y="0" name="bottom"/>
  <anchor x="118" y="758" name="top"/>
  <outline>
    <component base="_stem.short" xOffset="3" identifier="1CAE8BAE"/>
    <contour>
      <point x="82" y="80" type="line"/>
      <point x="81" y="61" type="line"/>
      <point x="78" y="8"/>
      <point x="59" y="13"/>
      <point x="41" y="13" type="curve"/>
      <point x="34" y="13"/>
      <point x="30" y="10"/>
      <point x="30" y="5" type="curve"/>
      <point x="30" y="-1"/>
      <point x="34" y="-4"/>
      <point x="42" y="-4" type="curve"/>
      <point x="53" y="-4"/>
      <point x="77" y="0"/>
      <point x="97" y="0" type="curve"/>
      <point x="111" y="0" type="line"/>
      <point x="139" y="0"/>
      <point x="176" y="-2"/>
      <point x="189" y="-1" type="curve"/>
      <point x="200" y="-1"/>
      <point x="205" y="2"/>
      <point x="205" y="8" type="curve"/>
      <point x="205" y="13"/>
      <point x="199" y="16"/>
      <point x="189" y="16" type="curve"/>
      <point x="167" y="14"/>
      <point x="138" y="7"/>
      <point x="135" y="61" type="curve"/>
      <point x="134" y="80" type="line"/>
    </contour>
    <contour>
      <point x="82" y="441" type="curve" smooth="yes"/>
      <point x="82" y="377" type="line"/>
      <point x="134" y="377" type="line"/>
      <point x="134" y="454" type="line" smooth="yes"/>
      <point x="134" y="481"/>
      <point x="154" y="473"/>
      <point x="207" y="473" type="curve" smooth="yes"/>
      <point x="215" y="473"/>
      <point x="221" y="477"/>
      <point x="221" y="484" type="curve" smooth="yes"/>
      <point x="221" y="490"/>
      <point x="217" y="494"/>
      <point x="207" y="494" type="curve" smooth="yes"/>
      <point x="150" y="494"/>
      <point x="131" y="485"/>
      <point x="131" y="512" type="curve" smooth="yes"/>
      <point x="131" y="543"/>
      <point x="131" y="568"/>
      <point x="131" y="588" type="curve" smooth="yes"/>
      <point x="131" y="656"/>
      <point x="138" y="677"/>
      <point x="166" y="677" type="curve" smooth="yes"/>
      <point x="188" y="677"/>
      <point x="204" y="652"/>
      <point x="230" y="652" type="curve" smooth="yes"/>
      <point x="247" y="652"/>
      <point x="257" y="663"/>
      <point x="257" y="677" type="curve" smooth="yes"/>
      <point x="257" y="695"/>
      <point x="241" y="710"/>
      <point x="211" y="710" type="curve" smooth="yes"/>
      <point x="137" y="710"/>
      <point x="84" y="643"/>
      <point x="84" y="543" type="curve" smooth="yes"/>
      <point x="84" y="539" type="line" smooth="yes"/>
      <point x="84" y="515"/>
      <point x="77" y="506"/>
      <point x="63" y="499" type="curve" smooth="yes"/>
      <point x="44" y="490"/>
      <point x="32" y="492"/>
      <point x="32" y="482" type="curve" smooth="yes"/>
      <point x="32" y="477"/>
      <point x="36" y="474"/>
      <point x="42" y="474" type="curve" smooth="yes"/>
      <point x="57" y="474"/>
      <point x="82" y="483"/>
    </contour>
  </outline>
</glyph>
<glyph name="g" format="2">
  <advance width="369"/>
  <unicode hex="0067"/>
  <anchor x="180" y="500" name="top"/>
  <outline>
    <contour>
      <point x="163" y="139" type="curve" smooth="yes"/>
      <point x="241" y="139"/>
      <point x="294" y="219"/>
      <point x="294" y="333" type="curve" smooth="yes"/>
      <point x="294" y="367"/>
      <point x="286" y="396"/>
      <point x="280" y="414" type="curve" smooth="yes"/>
      <point x="278" y="421"/>
      <point x="274" y="433"/>
      <point x="274" y="438" type="curve" smooth="yes"/>
      <point x="274" y="451"/>
      <point x="287" y="471"/>
      <point x="302" y="471" type="curve" smooth="yes"/>
      <point x="314" y="471"/>
      <point x="314" y="462"/>
      <point x="314" y="452" type="curve" smooth="yes"/>
      <point x="314" y="429"/>
      <point x="316" y="417"/>
      <point x="334" y="417" type="curve" smooth="yes"/>
      <point x="349" y="417"/>
      <point x="359" y="433"/>
      <point x="359" y="456" type="curve" smooth="yes"/>
      <point x="359" y="489"/>
      <point x="342" y="510"/>
      <point x="317" y="510" type="curve" smooth="yes"/>
      <point x="302" y="510"/>
      <point x="287" y="499"/>
      <point x="274" y="474" type="curve" smooth="yes"/>
      <point x="266" y="459"/>
      <point x="260" y="454"/>
      <point x="249" y="468" type="curve" smooth="yes"/>
      <point x="227" y="496"/>
      <point x="197" y="510"/>
      <point x="162" y="510" type="curve" smooth="yes"/>
      <point x="83" y="510"/>
      <point x="29" y="431"/>
      <point x="29" y="316" type="curve" smooth="yes"/>
      <point x="29" y="242"/>
      <point x="61" y="175"/>
      <point x="109" y="151" type="curve" smooth="yes"/>
      <point x="112" y="150"/>
      <point x="114" y="148"/>
      <point x="114" y="145" type="curve" smooth="yes"/>
      <point x="114" y="143"/>
      <point x="113" y="140"/>
      <point x="111" y="137" type="curve" smooth="yes"/>
      <point x="106" y="130"/>
      <point x="101" y="123"/>
      <point x="86" y="110" type="curve" smooth="yes"/>
      <point x="67" y="93"/>
      <point x="59" y="88"/>
      <point x="47" y="79" type="curve" smooth="yes"/>
      <point x="41" y="75"/>
      <point x="37" y="70"/>
      <point x="37" y="67" type="curve" smooth="yes"/>
      <point x="37" y="58"/>
      <point x="46" y="62"/>
      <point x="53" y="67" type="curve" smooth="yes"/>
      <point x="57" y="70"/>
      <point x="62" y="71"/>
      <point x="66" y="71" type="curve" smooth="yes"/>
      <point x="76" y="71"/>
      <point x="93" y="48"/>
      <point x="93" y="38" type="curve" smooth="yes"/>
      <point x="93" y="19"/>
      <point x="10" y="-13"/>
      <point x="10" y="-79" type="curve" smooth="yes"/>
      <point x="10" y="-132"/>
      <point x="69" y="-171"/>
      <point x="161" y="-171" type="curve" smooth="yes"/>
      <point x="257" y="-171"/>
      <point x="353" y="-122"/>
      <point x="353" y="-45" type="curve" smooth="yes"/>
      <point x="353" y="32"/>
      <point x="292" y="65"/>
      <point x="165" y="65" type="curve" smooth="yes"/>
      <point x="130" y="65"/>
      <point x="106" y="65"/>
      <point x="106" y="88" type="curve" smooth="yes"/>
      <point x="106" y="102"/>
      <point x="116" y="112"/>
      <point x="124" y="122" type="curve" smooth="yes"/>
      <point x="138" y="138"/>
      <point x="151" y="139"/>
    </contour>
    <contour>
      <point x="58" y="-57" type="curve" smooth="yes"/>
      <point x="58" y="10"/>
      <point x="110" y="11"/>
      <point x="164" y="11" type="curve" smooth="yes"/>
      <point x="258" y="11"/>
      <point x="311" y="-13"/>
      <point x="311" y="-62" type="curve" smooth="yes"/>
      <point x="311" y="-117"/>
      <point x="241" y="-154"/>
      <point x="181" y="-154" type="curve" smooth="yes"/>
      <point x="89" y="-154"/>
      <point x="58" y="-104"/>
    </contour>
    <contour>
      <point x="86" y="338" type="curve" smooth="yes"/>
      <point x="86" y="439"/>
      <point x="111" y="497"/>
      <point x="153" y="497" type="curve" smooth="yes"/>
      <point x="202" y="497"/>
      <point x="237" y="417"/>
      <point x="237" y="299" type="curve" smooth="yes"/>
      <point x="237" y="206"/>
      <point x="214" y="155"/>
      <point x="174" y="155" type="curve" smooth="yes"/>
      <point x="123" y="155"/>
      <point x="86" y="228"/>
    </contour>
  </outline>
</glyph>
<glyph name="j" format="2">
  <advance width="188"/>
  <unicode hex="006A"/>
  <outline>
    <contour>
      <point x="13" y="-200" type="curve" smooth="yes"/>
      <point x="100" y="-200"/>
      <point x="131" y="-140"/>
      <point x="131" y="-10" type="curve" smooth="yes"/>
      <point x="131" y="50"/>
      <point x="130" y="128"/>
      <point x="130" y="214" type="curve" smooth="yes"/>
      <point x="130" y="441"/>
      <point x="143" y="485"/>
      <point x="143" y="498" type="curve" smooth="yes"/>
      <point x="143" y="503"/>
      <point x="138" y="506"/>
      <point x="133" y="506" type="curve" smooth="yes"/>
      <point x="125" y="506"/>
      <point x="119" y="493"/>
      <point x="94" y="474" type="curve" smooth="yes"/>
      <point x="63" y="451"/>
      <point x="38" y="452"/>
      <point x="38" y="441" type="curve" smooth="yes"/>
      <point x="38" y="436"/>
      <point x="41" y="432"/>
      <point x="46" y="432" type="curve" smooth="yes"/>
      <point x="63" y="432"/>
      <point x="74" y="447"/>
      <point x="76" y="421" type="curve" smooth="yes"/>
      <point x="77" y="409"/>
      <point x="75" y="372"/>
      <point x="78" y="168" type="curve" smooth="yes"/>
      <point x="79" y="100"/>
      <point x="79" y="37"/>
      <point x="79" y="-43" type="curve" smooth="yes"/>
      <point x="79" y="-151"/>
      <point x="72" y="-176"/>
      <point x="45" y="-176" type="curve" smooth="yes"/>
      <point x="12" y="-176"/>
      <point x="15" y="-123"/>
      <point x="-22" y="-123" type="curve" smooth="yes"/>
      <point x="-38" y="-123"/>
      <point x="-50" y="-136"/>
      <point x="-50" y="-153" type="curve" smooth="yes"/>
      <point x="-50" y="-179"/>
      <point x="-22" y="-200"/>
    </contour>
    <component base="uni0307" xOffset="48"/>
  </outline>
</glyph>
<glyph name="k" format="2">
  <advance width="367"/>
  <unicode hex="006B"/>
  <anchor x="184" y="0" name="bottom"/>
  <anchor x="184" y="758" name="top"/>
  <outline>
    <contour>
      <point x="80" y="597" type="curve" smooth="yes"/>
      <point x="80" y="80" type="line"/>
      <point x="132" y="80" type="line"/>
      <point x="132" y="180" type="line" smooth="yes"/>
      <point x="132" y="191"/>
      <point x="135" y="200"/>
      <point x="138" y="207" type="curve" smooth="yes"/>
      <point x="168" y="267" type="line" smooth="yes"/>
      <point x="173" y="278"/>
      <point x="176" y="278"/>
      <point x="179" y="268" type="curve" smooth="yes"/>
      <point x="205" y="197"/>
      <point x="231" y="127"/>
      <point x="254" y="58" type="curve"/>
      <point x="272" y="7"/>
      <point x="253" y="13"/>
      <point x="237" y="13" type="curve"/>
      <point x="230" y="13"/>
      <point x="226" y="10"/>
      <point x="226" y="5" type="curve"/>
      <point x="226" y="-1"/>
      <point x="230" y="-4"/>
      <point x="238" y="-4" type="curve"/>
      <point x="247" y="-4"/>
      <point x="273" y="0"/>
      <point x="293" y="0" type="curve"/>
      <point x="325" y="0" type="line"/>
      <point x="345" y="0"/>
      <point x="369" y="-4"/>
      <point x="380" y="-4" type="curve"/>
      <point x="388" y="-4"/>
      <point x="392" y="-1"/>
      <point x="392" y="5" type="curve"/>
      <point x="392" y="10"/>
      <point x="388" y="13"/>
      <point x="381" y="13" type="curve"/>
      <point x="363" y="13"/>
      <point x="341" y="7"/>
      <point x="318" y="55" type="curve"/>
      <point x="278" y="139"/>
      <point x="241" y="223"/>
      <point x="204" y="310" type="curve" smooth="yes"/>
      <point x="201" y="316"/>
      <point x="202" y="324"/>
      <point x="204" y="328" type="curve" smooth="yes"/>
      <point x="225" y="368"/>
      <point x="249" y="409"/>
      <point x="278" y="451" type="curve"/>
      <point x="309" y="494"/>
      <point x="333" y="487"/>
      <point x="351" y="487" type="curve"/>
      <point x="358" y="487"/>
      <point x="362" y="490"/>
      <point x="362" y="495" type="curve"/>
      <point x="362" y="501"/>
      <point x="358" y="504"/>
      <point x="350" y="504" type="curve"/>
      <point x="339" y="504"/>
      <point x="315" y="500"/>
      <point x="295" y="500" type="curve"/>
      <point x="274" y="500" type="line"/>
      <point x="254" y="500"/>
      <point x="228" y="504"/>
      <point x="219" y="504" type="curve"/>
      <point x="211" y="504"/>
      <point x="207" y="501"/>
      <point x="207" y="495" type="curve"/>
      <point x="207" y="490"/>
      <point x="211" y="487"/>
      <point x="218" y="487" type="curve"/>
      <point x="234" y="487"/>
      <point x="252" y="494"/>
      <point x="232" y="443" type="curve"/>
      <point x="205" y="380"/>
      <point x="173" y="317"/>
      <point x="141" y="260" type="curve" smooth="yes"/>
      <point x="136" y="249"/>
      <point x="126" y="246"/>
      <point x="126" y="268" type="curve" smooth="yes"/>
      <point x="126" y="447" type="line" smooth="yes"/>
      <point x="126" y="645"/>
      <point x="134" y="690"/>
      <point x="134" y="702" type="curve" smooth="yes"/>
      <point x="134" y="708"/>
      <point x="131" y="711"/>
      <point x="126" y="711" type="curve" smooth="yes"/>
      <point x="117" y="711"/>
      <point x="115" y="700"/>
      <point x="85" y="679" type="curve" smooth="yes"/>
      <point x="48" y="653"/>
      <point x="30" y="659"/>
      <point x="30" y="646" type="curve" smooth="yes"/>
      <point x="30" y="641"/>
      <point x="33" y="638"/>
      <point x="38" y="638" type="curve" smooth="yes"/>
      <point x="68" y="638"/>
      <point x="80" y="627"/>
    </contour>
    <component base="_stem.foot" xOffset="11"/>
  </outline>
</glyph>
<glyph name="l" format="2">
  <advance width="202"/>
  <unicode hex="006C"/>
  <anchor x="101" y="0" name="bottom"/>
  <anchor x="184" y="400" name="center"/>
  <anchor x="101" y="758" name="top"/>
  <anchor x="182" y="758" name="topright"/>
  <outline>
    <contour>
      <point x="75" y="455" type="curve"/>
      <point x="75" y="389" type="line"/>
      <point x="127" y="389" type="line"/>
      <point x="127" y="455" type="line" smooth="yes"/>
      <point x="127" y="645"/>
      <point x="133" y="690"/>
      <point x="133" y="702" type="curve" smooth="yes"/>
      <point x="133" y="707"/>
      <point x="131" y="710"/>
      <point x="127" y="710" type="curve" smooth="yes"/>
      <point x="118" y="710"/>
      <point x="117" y="697"/>
      <point x="92" y="679" type="curve" smooth="yes"/>
      <point x="50" y="649"/>
      <point x="25" y="658"/>
      <point x="25" y="646" type="curve" smooth="yes"/>
      <point x="25" y="641"/>
      <point x="28" y="638"/>
      <point x="33" y="638" type="curve" smooth="yes"/>
      <point x="50" y="638"/>
      <point x="72" y="648"/>
      <point x="74" y="623" type="curve" smooth="yes"/>
      <point x="75" y="610"/>
      <point x="75" y="550"/>
    </contour>
    <component base="_stem.short" xOffset="-4"/>
    <component base="_stem.foot" xOffset="6"/>
  </outline>
</glyph>
<glyph name="m" format="2">
  <advance width="585"/>
  <unicode hex="006D"/>
  <anchor x="293" y="0" name="bottom"/>
  <anchor x="293" y="500" name="top"/>
  <outline>
    <component base="_stem.short.top" identifier="7F1B12C3"/>
    <component base="_stem.short" xOffset="1" identifier="5194BB38"/>
    <contour>
      <point x="288" y="0" type="curve"/>
      <point x="302" y="0" type="line"/>
      <point x="321" y="0"/>
      <point x="346" y="-4"/>
      <point x="354" y="-4" type="curve"/>
      <point x="362" y="-4"/>
      <point x="366" y="-1"/>
      <point x="366" y="5" type="curve"/>
      <point x="366" y="10"/>
      <point x="362" y="13"/>
      <point x="355" y="13" type="curve"/>
      <point x="340" y="13"/>
      <point x="320" y="7"/>
      <point x="320" y="61" type="curve"/>
      <point x="320" y="163"/>
      <point x="320" y="267"/>
      <point x="320" y="380" type="curve" smooth="yes"/>
      <point x="320" y="463"/>
      <point x="290" y="510"/>
      <point x="232" y="510" type="curve" smooth="yes"/>
      <point x="196" y="510"/>
      <point x="167" y="488"/>
      <point x="141" y="438" type="curve" smooth="yes"/>
      <point x="138" y="431"/>
      <point x="136" y="427"/>
      <point x="132" y="427" type="curve"/>
      <point x="106" y="427" type="line"/>
      <point x="106" y="287" type="line"/>
      <point x="132" y="287" type="line"/>
      <point x="132" y="402"/>
      <point x="161" y="474"/>
      <point x="215" y="474" type="curve" smooth="yes"/>
      <point x="254" y="474"/>
      <point x="270" y="441"/>
      <point x="270" y="365" type="curve" smooth="yes"/>
      <point x="270" y="61" type="line"/>
      <point x="270" y="7"/>
      <point x="250" y="13"/>
      <point x="235" y="13" type="curve"/>
      <point x="228" y="13"/>
      <point x="224" y="10"/>
      <point x="224" y="5" type="curve"/>
      <point x="224" y="-1"/>
      <point x="228" y="-4"/>
      <point x="236" y="-4" type="curve"/>
      <point x="244" y="-4"/>
      <point x="269" y="0"/>
    </contour>
    <component base="_stem.foot" xOffset="11"/>
    <component base="_n.side" xScale="0.95" xOffset="206"/>
  </outline>
</glyph>
<glyph name="n" format="2">
  <advance width="408"/>
  <unicode hex="006E"/>
  <anchor x="204" y="0" name="bottom"/>
  <anchor x="214" y="500" name="top"/>
  <outline>
    <contour>
      <point x="80" y="392" type="curve" smooth="yes"/>
      <point x="80" y="80" type="line"/>
      <point x="80" y="61" type="line"/>
      <point x="78" y="8"/>
      <point x="59" y="13"/>
      <point x="41" y="13" type="curve"/>
      <point x="34" y="13"/>
      <point x="30" y="10"/>
      <point x="30" y="5" type="curve"/>
      <point x="30" y="-1"/>
      <point x="34" y="-4"/>
      <point x="42" y="-4" type="curve"/>
      <point x="53" y="-4"/>
      <point x="77" y="0"/>
      <point x="97" y="0" type="curve"/>
      <point x="115" y="0" type="line"/>
      <point x="135" y="0"/>
      <point x="161" y="-3"/>
      <point x="170" y="-3" type="curve"/>
      <point x="178" y="-3"/>
      <point x="182" y="0"/>
      <point x="182" y="6" type="curve"/>
      <point x="182" y="11"/>
      <point x="178" y="14"/>
      <point x="171" y="14" type="curve"/>
      <point x="155" y="14"/>
      <point x="134" y="7"/>
      <point x="132" y="61" type="curve"/>
      <point x="132" y="80" type="line"/>
      <point x="132" y="287" type="line" smooth="yes"/>
      <point x="132" y="402"/>
      <point x="163" y="474"/>
      <point x="219" y="474" type="curve" smooth="yes"/>
      <point x="260" y="474"/>
      <point x="277" y="441"/>
      <point x="277" y="365" type="curve" smooth="yes"/>
      <point x="277" y="61" type="line"/>
      <point x="277" y="7"/>
      <point x="256" y="13"/>
      <point x="240" y="13" type="curve"/>
      <point x="233" y="13"/>
      <point x="229" y="10"/>
      <point x="229" y="5" type="curve"/>
      <point x="229" y="-1"/>
      <point x="233" y="-4"/>
      <point x="241" y="-4" type="curve"/>
      <point x="250" y="-4"/>
      <point x="276" y="0"/>
      <point x="296" y="0" type="curve"/>
      <point x="311" y="0" type="line"/>
      <point x="331" y="0"/>
      <point x="355" y="-4"/>
      <point x="366" y="-4" type="curve"/>
      <point x="374" y="-4"/>
      <point x="378" y="-1"/>
      <point x="378" y="5" type="curve"/>
      <point x="378" y="10"/>
      <point x="374" y="13"/>
      <point x="367" y="13" type="curve"/>
      <point x="349" y="13"/>
      <point x="330" y="8"/>
      <point x="330" y="61" type="curve"/>
      <point x="330" y="380" type="line" smooth="yes"/>
      <point x="330" y="463"/>
      <point x="298" y="510"/>
      <point x="237" y="510" type="curve" smooth="yes"/>
      <point x="199" y="510"/>
      <point x="169" y="488"/>
      <point x="142" y="438" type="curve" smooth="yes"/>
      <point x="138" y="431"/>
      <point x="136" y="427"/>
      <point x="132" y="427" type="curve" smooth="yes"/>
      <point x="127" y="427"/>
      <point x="126" y="433"/>
      <point x="126" y="439" type="curve" smooth="yes"/>
      <point x="126" y="452"/>
      <point x="130" y="488"/>
      <point x="130" y="497" type="curve" smooth="yes"/>
      <point x="130" y="503"/>
      <point x="127" y="506"/>
      <point x="123" y="506" type="curve" smooth="yes"/>
      <point x="112" y="506"/>
      <point x="113" y="494"/>
      <point x="85" y="474" type="curve" smooth="yes"/>
      <point x="48" y="448"/>
      <point x="30" y="454"/>
      <point x="30" y="441" type="curve" smooth="yes"/>
      <point x="30" y="436"/>
      <point x="33" y="433"/>
      <point x="38" y="433" type="curve" smooth="yes"/>
      <point x="68" y="433"/>
      <point x="80" y="422"/>
    </contour>
  </outline>
</glyph>
<glyph name="o" format="2">
  <advance width="355"/>
  <unicode hex="006F"/>
  <anchor x="178" y="0" name="bottom"/>
  <anchor x="178" y="250" name="center"/>
  <anchor x="316" y="10" name="ogonek"/>
  <anchor x="172" y="500" name="top"/>
  <anchor x="330" y="500" name="topright"/>
  <outline>
    <contour>
      <point x="181" y="-10" type="curve" smooth="yes"/>
      <point x="267" y="-10"/>
      <point x="325" y="111"/>
      <point x="320" y="262" type="curve" smooth="yes"/>
      <point x="315" y="410"/>
      <point x="252" y="510"/>
      <point x="174" y="510" type="curve" smooth="yes"/>
      <point x="90" y="510"/>
      <point x="31" y="393"/>
      <point x="35" y="243" type="curve" smooth="yes"/>
      <point x="38" y="94"/>
      <point x="101" y="-10"/>
    </contour>
    <contour>
      <point x="95" y="267" type="curve" smooth="yes"/>
      <point x="90" y="408"/>
      <point x="115" y="498"/>
      <point x="163" y="498" type="curve" smooth="yes"/>
      <point x="215" y="498"/>
      <point x="255" y="394"/>
      <point x="260" y="224" type="curve" smooth="yes"/>
      <point x="265" y="85"/>
      <point x="243" y="5"/>
      <point x="195" y="5" type="curve" smooth="yes"/>
      <point x="141" y="5"/>
      <point x="100" y="104"/>
    </contour>
  </outline>
</glyph>
<glyph name="p" format="2">
  <advance width="383"/>
  <unicode hex="0070"/>
  <anchor x="189" y="0" name="bottom"/>
  <anchor x="189" y="500" name="top"/>
  <outline>
    <contour>
      <point x="348" y="264" type="curve" smooth="yes"/>
      <point x="348" y="422"/>
      <point x="302" y="510"/>
      <point x="229" y="510" type="curve" smooth="yes"/>
      <point x="192" y="510"/>
      <point x="160" y="488"/>
      <point x="137" y="445" type="curve" smooth="yes"/>
      <point x="129" y="431"/>
      <point x="127" y="429"/>
      <point x="123" y="429" type="curve" smooth="yes"/>
      <point x="118" y="429"/>
      <point x="118" y="437"/>
      <point x="118" y="446" type="curve" smooth="yes"/>
      <point x="118" y="475"/>
      <point x="130" y="502"/>
      <point x="102" y="501" type="curve" smooth="yes"/>
      <point x="82" y="500" type="line"/>
      <point x="62" y="499"/>
      <point x="38" y="502"/>
      <point x="27" y="501" type="curve"/>
      <point x="19" y="501"/>
      <point x="15" y="498"/>
      <point x="15" y="492" type="curve"/>
      <point x="16" y="487"/>
      <point x="20" y="484"/>
      <point x="27" y="484" type="curve"/>
      <point x="45" y="485"/>
      <point x="63" y="491"/>
      <point x="67" y="438" type="curve"/>
      <point x="70" y="369"/>
      <point x="71" y="306"/>
      <point x="71" y="214" type="curve" smooth="yes"/>
      <point x="71" y="0" type="line"/>
      <point x="117" y="0" type="line"/>
      <point x="117" y="63" type="line" smooth="yes"/>
      <point x="117" y="67"/>
      <point x="117" y="71"/>
      <point x="123" y="71" type="curve" smooth="yes"/>
      <point x="126" y="71"/>
      <point x="127" y="72"/>
      <point x="138" y="53" type="curve" smooth="yes"/>
      <point x="158" y="17"/>
      <point x="179" y="-10"/>
      <point x="215" y="-10" type="curve" smooth="yes"/>
      <point x="291" y="-10"/>
      <point x="348" y="106"/>
    </contour>
    <contour>
      <point x="289" y="246" type="curve" smooth="yes"/>
      <point x="289" y="72"/>
      <point x="262" y="4"/>
      <point x="217" y="4" type="curve" smooth="yes"/>
      <point x="163" y="4"/>
      <point x="123" y="113"/>
      <point x="123" y="254" type="curve" smooth="yes"/>
      <point x="123" y="275" type="line" smooth="yes"/>
      <point x="123" y="404"/>
      <point x="155" y="474"/>
      <point x="207" y="474" type="curve" smooth="yes"/>
      <point x="260" y="474"/>
      <point x="289" y="399"/>
    </contour>
    <contour>
      <point x="71" y="49" type="line"/>
      <point x="71" y="22"/>
      <point x="72" y="-60"/>
      <point x="69" y="-135" type="curve"/>
      <point x="66" y="-188"/>
      <point x="47" y="-183"/>
      <point x="29" y="-183" type="curve"/>
      <point x="22" y="-183"/>
      <point x="18" y="-186"/>
      <point x="18" y="-191" type="curve"/>
      <point x="18" y="-197"/>
      <point x="22" y="-200"/>
      <point x="30" y="-200" type="curve"/>
      <point x="41" y="-200"/>
      <point x="65" y="-196"/>
      <point x="85" y="-196" type="curve"/>
      <point x="90" y="-196" type="line"/>
      <point x="126" y="-196"/>
      <point x="169" y="-200"/>
      <point x="189" y="-200" type="curve"/>
      <point x="203" y="-200"/>
      <point x="210" y="-197"/>
      <point x="210" y="-191" type="curve"/>
      <point x="210" y="-186"/>
      <point x="203" y="-183"/>
      <point x="191" y="-183" type="curve"/>
      <point x="158" y="-183"/>
      <point x="124" y="-188"/>
      <point x="121" y="-135" type="curve"/>
      <point x="119" y="-88"/>
      <point x="117" y="-31"/>
      <point x="117" y="0" type="curve"/>
      <point x="117" y="49" type="line"/>
    </contour>
  </outline>
</glyph>
<glyph name="q" format="2">
  <advance width="376"/>
  <unicode hex="0071"/>
  <anchor x="191" y="0" name="bottom"/>
  <anchor x="191" y="500" name="top"/>
  <outline>
    <component base="_b.bowl" xScale="-1" yScale="-1" xOffset="382" yOffset="500" identifier="C60DEDD7"/>
    <contour>
      <point x="313" y="49" type="curve"/>
      <point x="267" y="49" type="line"/>
      <point x="267" y="0" type="line"/>
      <point x="267" y="-31"/>
      <point x="267" y="-88"/>
      <point x="265" y="-135" type="curve"/>
      <point x="262" y="-188"/>
      <point x="228" y="-183"/>
      <point x="195" y="-183" type="curve"/>
      <point x="183" y="-183"/>
      <point x="176" y="-186"/>
      <point x="176" y="-191" type="curve"/>
      <point x="176" y="-197"/>
      <point x="183" y="-200"/>
      <point x="197" y="-200" type="curve"/>
      <point x="217" y="-200"/>
      <point x="260" y="-196"/>
      <point x="296" y="-196" type="curve"/>
      <point x="299" y="-196" type="line"/>
      <point x="319" y="-196"/>
      <point x="343" y="-200"/>
      <point x="354" y="-200" type="curve"/>
      <point x="362" y="-200"/>
      <point x="366" y="-197"/>
      <point x="366" y="-191" type="curve"/>
      <point x="366" y="-186"/>
      <point x="362" y="-183"/>
      <point x="355" y="-183" type="curve"/>
      <point x="337" y="-183"/>
      <point x="318" y="-188"/>
      <point x="315" y="-135" type="curve"/>
      <point x="312" y="-60"/>
      <point x="313" y="22"/>
    </contour>
  </outline>
</glyph>
<glyph name="r" format="2">
  <advance width="259"/>
  <unicode hex="0072"/>
  <anchor x="118" y="0" name="bottom"/>
  <anchor x="154" y="500" name="top"/>
  <outline>
    <contour>
      <point x="82" y="392" type="curve" smooth="yes"/>
      <point x="82" y="120" type="line"/>
      <point x="80" y="61" type="line"/>
      <point x="78" y="8"/>
      <point x="59" y="13"/>
      <point x="41" y="13" type="curve"/>
      <point x="34" y="13"/>
      <point x="30" y="10"/>
      <point x="30" y="5" type="curve"/>
      <point x="30" y="-1"/>
      <point x="34" y="-4"/>
      <point x="42" y="-4" type="curve"/>
      <point x="53" y="-4"/>
      <point x="77" y="0"/>
      <point x="97" y="0" type="curve"/>
      <point x="104" y="0" type="line"/>
      <point x="140" y="0"/>
      <point x="187" y="-4"/>
      <point x="203" y="-4" type="curve"/>
      <point x="217" y="-4"/>
      <point x="224" y="-1"/>
      <point x="224" y="5" type="curve"/>
      <point x="224" y="10"/>
      <point x="217" y="13"/>
      <point x="205" y="13" type="curve"/>
      <point x="176" y="13"/>
      <point x="138" y="7"/>
      <point x="136" y="61" type="curve"/>
      <point x="134" y="120" type="line"/>
      <point x="134" y="287" type="line" smooth="yes"/>
      <point x="134" y="404"/>
      <point x="157" y="450"/>
      <point x="198" y="450" type="curve" smooth="yes"/>
      <point x="213" y="450"/>
      <point x="218" y="445"/>
      <point x="230" y="445" type="curve" smooth="yes"/>
      <point x="247" y="445"/>
      <point x="259" y="458"/>
      <point x="259" y="477" type="curve" smooth="yes"/>
      <point x="259" y="498"/>
      <point x="244" y="510"/>
      <point x="223" y="510" type="curve" smooth="yes"/>
      <point x="193" y="510"/>
      <point x="170" y="487"/>
      <point x="145" y="440" type="curve" smooth="yes"/>
      <point x="140" y="431"/>
      <point x="138" y="427"/>
      <point x="134" y="427" type="curve" smooth="yes"/>
      <point x="129" y="427"/>
      <point x="128" y="433"/>
      <point x="128" y="439" type="curve" smooth="yes"/>
      <point x="128" y="452"/>
      <point x="132" y="488"/>
      <point x="132" y="497" type="curve" smooth="yes"/>
      <point x="132" y="503"/>
      <point x="129" y="506"/>
      <point x="125" y="506" type="curve" smooth="yes"/>
      <point x="114" y="506"/>
      <point x="115" y="494"/>
      <point x="87" y="474" type="curve" smooth="yes"/>
      <point x="50" y="448"/>
      <point x="32" y="454"/>
      <point x="32" y="441" type="curve" smooth="yes"/>
      <point x="32" y="436"/>
      <point x="35" y="433"/>
      <point x="40" y="433" type="curve" smooth="yes"/>
      <point x="70" y="433"/>
      <point x="82" y="422"/>
    </contour>
  </outline>
</glyph>
<glyph name="s" format="2">
  <advance width="311"/>
  <unicode hex="0073"/>
  <anchor x="151" y="0" name="bottom"/>
  <anchor x="157" y="500" name="top"/>
  <outline>
    <contour>
      <point x="147" y="510" type="curve" smooth="yes"/>
      <point x="83" y="510"/>
      <point x="36" y="462"/>
      <point x="36" y="386" type="curve" smooth="yes"/>
      <point x="36" y="328"/>
      <point x="64" y="286"/>
      <point x="143" y="218" type="curve" smooth="yes"/>
      <point x="208" y="163"/>
      <point x="235" y="128"/>
      <point x="235" y="79" type="curve" smooth="yes"/>
      <point x="235" y="32"/>
      <point x="206" y="3"/>
      <point x="160" y="3" type="curve" smooth="yes"/>
      <point x="90" y="3"/>
      <point x="54" y="61"/>
      <point x="51" y="178" type="curve" smooth="yes"/>
      <point x="51" y="196"/>
      <point x="50" y="201"/>
      <point x="44" y="201" type="curve" smooth="yes"/>
      <point x="38" y="201"/>
      <point x="35" y="197"/>
      <point x="35" y="190" type="curve" smooth="yes"/>
      <point x="35" y="177"/>
      <point x="44" y="150"/>
      <point x="44" y="84" type="curve" smooth="yes"/>
      <point x="44" y="25"/>
      <point x="37" y="14"/>
      <point x="37" y="2" type="curve" smooth="yes"/>
      <point x="37" y="-6"/>
      <point x="40" y="-10"/>
      <point x="45" y="-10" type="curve" smooth="yes"/>
      <point x="55" y="-10"/>
      <point x="54" y="7"/>
      <point x="69" y="7" type="curve" smooth="yes"/>
      <point x="86" y="7"/>
      <point x="106" y="-10"/>
      <point x="155" y="-10" type="curve" smooth="yes"/>
      <point x="226" y="-10"/>
      <point x="276" y="36"/>
      <point x="276" y="113" type="curve" smooth="yes"/>
      <point x="276" y="175"/>
      <point x="247" y="219"/>
      <point x="163" y="288" type="curve" smooth="yes"/>
      <point x="101" y="338"/>
      <point x="74" y="371"/>
      <point x="74" y="418" type="curve" smooth="yes"/>
      <point x="74" y="469"/>
      <point x="105" y="499"/>
      <point x="144" y="499" type="curve" smooth="yes"/>
      <point x="208" y="499"/>
      <point x="243" y="417"/>
      <point x="243" y="320" type="curve" smooth="yes"/>
      <point x="243" y="304"/>
      <point x="244" y="299"/>
      <point x="250" y="299" type="curve" smooth="yes"/>
      <point x="256" y="299"/>
      <point x="259" y="303"/>
      <point x="259" y="310" type="curve" smooth="yes"/>
      <point x="259" y="323"/>
      <point x="250" y="349"/>
      <point x="250" y="416" type="curve" smooth="yes"/>
      <point x="250" y="475"/>
      <point x="257" y="486"/>
      <point x="257" y="498" type="curve" smooth="yes"/>
      <point x="257" y="506"/>
      <point x="254" y="510"/>
      <point x="249" y="510" type="curve" smooth="yes"/>
      <point x="239" y="510"/>
      <point x="240" y="493"/>
      <point x="225" y="493" type="curve" smooth="yes"/>
      <point x="208" y="493"/>
      <point x="186" y="510"/>
    </contour>
  </outline>
</glyph>
<glyph name="t" format="2">
  <advance width="206"/>
  <unicode hex="0074"/>
  <guideline x="5" y="455" angle="90"/>
  <anchor x="105" y="0" name="bottom"/>
  <anchor x="96" y="250" name="center"/>
  <anchor x="96" y="500" name="top"/>
  <anchor x="176" y="758" name="topright"/>
  <outline>
    <component base="_stem.short" xOffset="-24" yOffset="10" identifier="D899ECE4"/>
    <contour>
      <point x="107" y="125" type="curve"/>
      <point x="55" y="95" type="line"/>
      <point x="55" y="19"/>
      <point x="71" y="-10"/>
      <point x="115" y="-10" type="curve" smooth="yes"/>
      <point x="147" y="-10"/>
      <point x="171" y="17"/>
      <point x="184" y="70" type="curve" smooth="yes"/>
      <point x="186" y="79"/>
      <point x="189" y="93"/>
      <point x="180" y="93" type="curve" smooth="yes"/>
      <point x="174" y="93"/>
      <point x="173" y="88"/>
      <point x="170" y="75" type="curve" smooth="yes"/>
      <point x="163" y="44"/>
      <point x="155" y="30"/>
      <point x="138" y="30" type="curve" smooth="yes"/>
      <point x="112" y="30"/>
      <point x="107" y="54"/>
    </contour>
    <contour>
      <point x="55" y="437" type="curve" smooth="yes"/>
      <point x="55" y="382"/>
      <point x="55" y="399"/>
      <point x="55" y="389" type="curve"/>
      <point x="107" y="389" type="line"/>
      <point x="107" y="459" type="line" smooth="yes"/>
      <point x="107" y="486"/>
      <point x="127" y="478"/>
      <point x="170" y="478" type="curve" smooth="yes"/>
      <point x="179" y="478"/>
      <point x="185" y="482"/>
      <point x="185" y="489" type="curve" smooth="yes"/>
      <point x="185" y="495"/>
      <point x="181" y="499"/>
      <point x="172" y="499" type="curve" smooth="yes"/>
      <point x="123" y="499"/>
      <point x="107" y="490"/>
      <point x="107" y="510" type="curve" smooth="yes"/>
      <point x="107" y="542"/>
      <point x="117" y="593"/>
      <point x="123" y="613" type="curve" smooth="yes"/>
      <point x="125" y="620"/>
      <point x="123" y="626"/>
      <point x="118" y="627" type="curve" smooth="yes"/>
      <point x="113" y="628"/>
      <point x="109" y="625"/>
      <point x="107" y="618" type="curve" smooth="yes"/>
      <point x="93" y="569"/>
      <point x="62" y="519"/>
      <point x="30" y="498" type="curve" smooth="yes"/>
      <point x="19" y="491"/>
      <point x="15" y="489"/>
      <point x="15" y="483" type="curve" smooth="yes"/>
      <point x="15" y="477"/>
      <point x="19" y="474"/>
      <point x="25" y="474" type="curve" smooth="yes"/>
      <point x="40" y="474"/>
      <point x="55" y="478"/>
    </contour>
  </outline>
</glyph>
